OxygenFF.ufo
<glyph name="exclam" format="1">
  <advance width="486"/>
  <unicode hex="0021"/>
  <outline>
    <contour>
      <point x="331" y="1462" type="line" smooth="no"/>
      <point x="331" y="1234" type="line" smooth="no"/>
      <point x="275" y="377" type="line" smooth="no"/>
      <point x="216" y="377" type="line" smooth="no"/>
      <point x="154" y="1234" type="line" smooth="no"/>
      <point x="154" y="1462" type="line" smooth="no"/>
    </contour>
    <contour>
      <point x="154" y="-23" type="line" smooth="no"/>
      <point x="154" y="185" type="line" smooth="no"/>
      <point x="331" y="185" type="line" smooth="no"/>
      <point x="331" y="-23" type="line" smooth="no"/>
    </contour>
  </outline>
</glyph>
<glyph name="quotedbl" format="1">
  <advance width="710"/>
  <unicode hex="0022"/>
  <outline>
    <contour>
      <point x="459" y="1063" type="line" smooth="no"/>
      <point x="429" y="1555" type="line" smooth="no"/>
      <point x="574" y="1555" type="line" smooth="no"/>
      <point x="574" y="1063" type="line" smooth="no"/>
    </contour>
    <contour>
      <point x="167" y="1063" type="line" smooth="no"/>
      <point x="137" y="1555" type="line" smooth="no"/>
      <point x="281" y="1555" type="line" smooth="no"/>
      <point x="281" y="1063" type="line" smooth="no"/>
    </contour>
  </outline>
</glyph>
<glyph name="dollar" format="1">
  <advance width="1158"/>
  <unicode hex="0024"/>
  <outline>
    <contour>
      <point x="535" y="1591" type="line" smooth="no"/>
      <point x="643" y="1591" type="line" smooth="no"/>
      <point x="643" y="1485" type="line" smooth="no"/>
      <point x="788" y="1474"/>
      <point x="916" y="1437"/>
      <point x="995" y="1378" type="curve" smooth="no"/>
      <point x="939" y="1225" type="line" smooth="no"/>
      <point x="883" y="1265"/>
      <point x="765" y="1306"/>
      <point x="643" y="1317" type="curve" smooth="no"/>
      <point x="643" y="828" type="line" smooth="no"/>
      <point x="886" y="759"/>
      <point x="1048" y="654"/>
      <point x="1048" y="401" type="curve" smooth="yes"/>
      <point x="1048" y="148"/>
      <point x="883" y="17"/>
      <point x="643" y="-15" type="curve" smooth="no"/>
      <point x="643" y="-173" type="line" smooth="no"/>
      <point x="535" y="-173" type="line" smooth="no"/>
      <point x="535" y="-23" type="line" smooth="no"/>
      <point x="338" y="-20"/>
      <point x="196" y="46"/>
      <point x="113" y="100" type="curve" smooth="no"/>
      <point x="174" y="261" type="line" smooth="no"/>
      <point x="266" y="189"/>
      <point x="394" y="145"/>
      <point x="535" y="141" type="curve" smooth="no"/>
      <point x="535" y="669" type="line" smooth="no"/>
      <point x="420" y="705" type="line" smooth="no"/>
      <point x="244" y="764"/>
      <point x="113" y="871"/>
      <point x="113" y="1083" type="curve" smooth="yes"/>
      <point x="113" y="1331"/>
      <point x="298" y="1481"/>
      <point x="535" y="1489" type="curve" smooth="no"/>
    </contour>
    <contour>
      <point x="643" y="628" type="curve" smooth="no"/>
      <point x="643" y="148" type="line" smooth="no"/>
      <point x="775" y="174"/>
      <point x="867" y="251"/>
      <point x="867" y="392" type="curve" smooth="yes"/>
      <point x="867" y="504"/>
      <point x="800" y="573"/>
    </contour>
    <contour>
      <point x="535" y="865" type="line" smooth="no"/>
      <point x="535" y="1321" type="line" smooth="no"/>
      <point x="387" y="1313"/>
      <point x="286" y="1239"/>
      <point x="286" y="1100" type="curve" smooth="yes"/>
      <point x="286" y="984"/>
      <point x="350" y="929"/>
      <point x="478" y="884" type="curve" smooth="no"/>
    </contour>
  </outline>
</glyph>
<glyph name="quotesingle" format="1">
  <advance width="417"/>
  <unicode hex="0027"/>
  <outline>
    <contour>
      <point x="168" y="1063" type="line" smooth="no"/>
      <point x="137" y="1557" type="line" smooth="no"/>
      <point x="281" y="1557" type="line" smooth="no"/>
      <point x="281" y="1063" type="line" smooth="no"/>
    </contour>
  </outline>
</glyph>
<glyph name="parenleft" format="1">
  <advance width="612"/>
  <unicode hex="0028"/>
  <outline>
    <contour>
      <point x="520" y="-223" type="curve"/>
      <point x="373" y="-223" type="line"/>
      <point x="232" y="17"/>
      <point x="125" y="325"/>
      <point x="125" y="631" type="curve" smooth="yes"/>
      <point x="125" y="949"/>
      <point x="221" y="1236"/>
      <point x="370" y="1505" type="curve"/>
      <point x="518" y="1505" type="line"/>
      <point x="373" y="1238"/>
      <point x="290" y="946"/>
      <point x="290" y="637" type="curve" smooth="yes"/>
      <point x="290" y="352"/>
      <point x="379" y="28"/>
    </contour>
  </outline>
</glyph>
<glyph name="parenright" format="1">
  <advance width="612"/>
  <unicode hex="0029"/>
  <outline>
    <contour>
      <point x="238" y="-223" type="curve" smooth="no"/>
      <point x="93" y="-223" type="line" smooth="no"/>
      <point x="232" y="28"/>
      <point x="322" y="351"/>
      <point x="322" y="637" type="curve" smooth="yes"/>
      <point x="322" y="946"/>
      <point x="238" y="1238"/>
      <point x="93" y="1505" type="curve" smooth="no"/>
      <point x="241" y="1505" type="line" smooth="no"/>
      <point x="388" y="1235"/>
      <point x="488" y="950"/>
      <point x="488" y="631" type="curve" smooth="yes"/>
      <point x="488" y="324"/>
      <point x="378" y="19"/>
    </contour>
  </outline>
</glyph>
<glyph name="asterisk" format="1">
  <advance width="1081"/>
  <unicode hex="002a"/>
  <outline>
    <contour>
      <point x="629" y="1442" type="line" smooth="no"/>
      <point x="600" y="1019" type="line" smooth="no"/>
      <point x="921" y="1213" type="line" smooth="no"/>
      <point x="946" y="1157"/>
      <point x="967" y="1106"/>
      <point x="992" y="1050" type="curve" smooth="no"/>
      <point x="641" y="915" type="line" smooth="no"/>
      <point x="736" y="802"/>
      <point x="817" y="681"/>
      <point x="897" y="568" type="curve" smooth="no"/>
      <point x="852" y="533"/>
      <point x="807" y="509"/>
      <point x="762" y="474" type="curve" smooth="no"/>
      <point x="537" y="843" type="line" smooth="no"/>
      <point x="320" y="474" type="line" smooth="no"/>
      <point x="184" y="568" type="line" smooth="no"/>
      <point x="438" y="915" type="line" smooth="no"/>
      <point x="91" y="1050" type="line" smooth="no"/>
      <point x="159" y="1213" type="line" smooth="no"/>
      <point x="483" y="1019" type="line" smooth="no"/>
      <point x="451" y="1442" type="line" smooth="no"/>
    </contour>
  </outline>
</glyph>
<glyph name="plus" format="1">
  <advance width="1081"/>
  <unicode hex="002b"/>
  <outline>
    <contour>
      <point x="101" y="606" type="line" smooth="no"/>
      <point x="487" y="606" type="line" smooth="no"/>
      <point x="487" y="1065" type="line" smooth="no"/>
      <point x="621" y="1065" type="line" smooth="no"/>
      <point x="621" y="606" type="line" smooth="no"/>
      <point x="989" y="606" type="line" smooth="no"/>
      <point x="989" y="472" type="line" smooth="no"/>
      <point x="619" y="472" type="line" smooth="no"/>
      <point x="619" y="0" type="line" smooth="no"/>
      <point x="484" y="0" type="line" smooth="no"/>
      <point x="484" y="472" type="line" smooth="no"/>
      <point x="101" y="472" type="line" smooth="no"/>
    </contour>
  </outline>
</glyph>
<glyph name="comma" format="1">
  <advance width="508"/>
  <unicode hex="002c"/>
  <outline>
    <contour>
      <point x="367" y="230" type="line" smooth="no"/>
      <point x="268" y="-276" type="line" smooth="no"/>
      <point x="126" y="-276" type="line" smooth="no"/>
      <point x="155" y="230" type="line" smooth="no"/>
    </contour>
  </outline>
</glyph>
<glyph name="hyphen" format="1">
  <advance width="686"/>
  <unicode hex="002d"/>
  <outline>
    <contour>
      <point x="89" y="521" type="line" smooth="no"/>
      <point x="89" y="663" type="line" smooth="no"/>
      <point x="597" y="663" type="line" smooth="no"/>
      <point x="597" y="521" type="line" smooth="no"/>
    </contour>
  </outline>
</glyph>
<glyph name="period" format="1">
  <advance width="494"/>
  <unicode hex="002e"/>
  <outline>
    <contour>
      <point x="261.415" y="251.778" type="curve" smooth="yes"/>
      <point x="350.02" y="251.778"/>
      <point x="394.498" y="185.906"/>
      <point x="394.498" y="120.026" type="curve" smooth="yes"/>
      <point x="394.498" y="54.1273"/>
      <point x="349.994" y="-11.7802"/>
      <point x="260.634" y="-11.7802" type="curve" smooth="yes"/>
      <point x="172.604" y="-11.7802"/>
      <point x="128.414" y="54.0887"/>
      <point x="128.414" y="119.968" type="curve" smooth="yes"/>
      <point x="128.414" y="185.868"/>
      <point x="172.631" y="251.778"/>
    </contour>
  </outline>
</glyph>
<glyph name="slash" format="1">
  <advance width="952"/>
  <unicode hex="002f"/>
  <outline>
    <contour>
      <point x="194" y="-218" type="line" smooth="no"/>
      <point x="50" y="-218" type="line" smooth="no"/>
      <point x="726" y="1466" type="line" smooth="no"/>
      <point x="872" y="1466" type="line" smooth="no"/>
    </contour>
  </outline>
</glyph>
<glyph name="zero" format="1">
  <advance width="1275"/>
  <unicode hex="0030"/>
  <outline>
    <contour>
      <point x="639" y="-23" type="curve" smooth="yes"/>
      <point x="275" y="-23"/>
      <point x="126" y="312"/>
      <point x="126" y="751" type="curve" smooth="yes"/>
      <point x="126" y="1210"/>
      <point x="290" y="1525"/>
      <point x="639" y="1525" type="curve" smooth="yes"/>
      <point x="988" y="1525"/>
      <point x="1149" y="1210"/>
      <point x="1149" y="751" type="curve" smooth="yes"/>
      <point x="1149" y="312"/>
      <point x="1003" y="-23"/>
    </contour>
    <contour>
      <point x="639" y="1373" type="curve" smooth="yes"/>
      <point x="431" y="1373"/>
      <point x="318" y="1113"/>
      <point x="318" y="757" type="curve" smooth="yes"/>
      <point x="318" y="394"/>
      <point x="431" y="129"/>
      <point x="639" y="129" type="curve" smooth="yes"/>
      <point x="847" y="129"/>
      <point x="960" y="394"/>
      <point x="960" y="757" type="curve" smooth="yes"/>
      <point x="960" y="1113"/>
      <point x="847" y="1373"/>
    </contour>
  </outline>
</glyph>
<glyph name="one" format="1">
  <advance width="647"/>
  <unicode hex="0031"/>
  <outline>
    <contour>
      <point x="321" y="1497" type="curve"/>
      <point x="500" y="1497" type="line"/>
      <point x="500" y="0" type="line"/>
      <point x="321" y="0" type="line"/>
      <point x="321" y="1316" type="line"/>
      <point x="242" y="1264"/>
      <point x="168" y="1234"/>
      <point x="76" y="1193" type="curve"/>
      <point x="76" y="1365" type="line"/>
      <point x="164" y="1404"/>
      <point x="242" y="1441"/>
    </contour>
  </outline>
</glyph>
<glyph name="two" format="1">
  <advance width="1116"/>
  <unicode hex="0032"/>
  <outline>
    <contour>
      <point x="528" y="1525" type="curve" smooth="yes"/>
      <point x="807" y="1525"/>
      <point x="994" y="1370"/>
      <point x="994" y="1113" type="curve" smooth="yes"/>
      <point x="994" y="925"/>
      <point x="884" y="781"/>
      <point x="721" y="605" type="curve" smooth="no"/>
      <point x="298" y="154" type="line" smooth="no"/>
      <point x="965" y="154" type="line" smooth="no"/>
      <point x="965" y="0" type="line" smooth="no"/>
      <point x="123" y="0" type="line" smooth="no"/>
      <point x="123" y="189" type="line" smooth="no"/>
      <point x="604" y="736" type="line" smooth="yes"/>
      <point x="719" y="867"/>
      <point x="801" y="980"/>
      <point x="801" y="1097" type="curve" smooth="yes"/>
      <point x="801" y="1270"/>
      <point x="696" y="1359"/>
      <point x="523" y="1359" type="curve" smooth="yes"/>
      <point x="398" y="1359"/>
      <point x="286" y="1318"/>
      <point x="202" y="1233" type="curve" smooth="no"/>
      <point x="144" y="1390" type="line" smooth="no"/>
      <point x="226" y="1467"/>
      <point x="340" y="1525"/>
    </contour>
  </outline>
</glyph>
<glyph name="three" format="1">
  <advance width="1121"/>
  <unicode hex="0033"/>
  <outline>
    <contour>
      <point x="839" y="412" type="curve" smooth="yes"/>
      <point x="839" y="681"/>
      <point x="617" y="722"/>
      <point x="338" y="722" type="curve"/>
      <point x="338" y="871" type="line"/>
      <point x="568" y="871"/>
      <point x="786" y="897"/>
      <point x="786" y="1133" type="curve" smooth="yes"/>
      <point x="786" y="1298"/>
      <point x="688" y="1368"/>
      <point x="511" y="1368" type="curve" smooth="yes"/>
      <point x="374" y="1368"/>
      <point x="255" y="1324"/>
      <point x="176" y="1261" type="curve"/>
      <point x="120" y="1412" type="line"/>
      <point x="211" y="1481"/>
      <point x="342" y="1525"/>
      <point x="549" y="1525" type="curve" smooth="yes"/>
      <point x="770" y="1525"/>
      <point x="978" y="1395"/>
      <point x="978" y="1156" type="curve" smooth="yes"/>
      <point x="978" y="964"/>
      <point x="877" y="847"/>
      <point x="715" y="797" type="curve"/>
      <point x="898" y="757"/>
      <point x="1014" y="620"/>
      <point x="1014" y="410" type="curve" smooth="yes"/>
      <point x="1014" y="143"/>
      <point x="801" y="-23"/>
      <point x="511" y="-23" type="curve" smooth="yes"/>
      <point x="317" y="-23"/>
      <point x="176" y="40"/>
      <point x="120" y="93" type="curve"/>
      <point x="176" y="240" type="line"/>
      <point x="251" y="181"/>
      <point x="358" y="132"/>
      <point x="509" y="132" type="curve" smooth="yes"/>
      <point x="705" y="132"/>
      <point x="839" y="230"/>
    </contour>
  </outline>
</glyph>
<glyph name="four" format="1">
  <advance width="1181"/>
  <unicode hex="0034"/>
  <outline>
    <contour>
      <point x="1117" y="371" type="line" smooth="no"/>
      <point x="946" y="371" type="line" smooth="no"/>
      <point x="946" y="0" type="line" smooth="no"/>
      <point x="778" y="0" type="line" smooth="no"/>
      <point x="778" y="371" type="line" smooth="no"/>
      <point x="102" y="371" type="line" smooth="no"/>
      <point x="102" y="524" type="line" smooth="no"/>
      <point x="759" y="1497" type="line" smooth="no"/>
      <point x="946" y="1497" type="line" smooth="no"/>
      <point x="946" y="509" type="line" smooth="no"/>
      <point x="1117" y="509" type="line" smooth="no"/>
    </contour>
    <contour>
      <point x="778" y="1232" type="line" smooth="no"/>
      <point x="278" y="509" type="line" smooth="no"/>
      <point x="778" y="509" type="line" smooth="no"/>
    </contour>
  </outline>
</glyph>
<glyph name="five" format="1">
  <advance width="1182"/>
  <unicode hex="0035"/>
  <outline>
    <contour>
      <point x="994" y="1497" type="line"/>
      <point x="994" y="1332" type="line"/>
      <point x="369" y="1332" type="line"/>
      <point x="364" y="1187"/>
      <point x="358" y="1006"/>
      <point x="354" y="861" type="curve"/>
      <point x="434" y="912"/>
      <point x="515" y="933"/>
      <point x="599" y="933" type="curve" smooth="yes"/>
      <point x="902" y="933"/>
      <point x="1054" y="731"/>
      <point x="1054" y="477" type="curve" smooth="yes"/>
      <point x="1054" y="178"/>
      <point x="850" y="-23"/>
      <point x="513" y="-23" type="curve" smooth="yes"/>
      <point x="338" y="-23"/>
      <point x="200" y="33"/>
      <point x="111" y="114" type="curve"/>
      <point x="176" y="255" type="line"/>
      <point x="240" y="205"/>
      <point x="353" y="139"/>
      <point x="519" y="139" type="curve" smooth="yes"/>
      <point x="741" y="139"/>
      <point x="873" y="279"/>
      <point x="873" y="475" type="curve" smooth="yes"/>
      <point x="873" y="648"/>
      <point x="768" y="776"/>
      <point x="565" y="776" type="curve" smooth="yes"/>
      <point x="470" y="776"/>
      <point x="390" y="746"/>
      <point x="327" y="677" type="curve"/>
      <point x="188" y="696" type="line"/>
      <point x="227" y="1497" type="line"/>
    </contour>
  </outline>
</glyph>
<glyph name="six" format="1">
  <advance width="1234"/>
  <unicode hex="0036"/>
  <outline>
    <contour>
      <point x="677" y="912" type="curve" smooth="yes"/>
      <point x="958" y="912"/>
      <point x="1136" y="732"/>
      <point x="1136" y="456" type="curve" smooth="yes"/>
      <point x="1136" y="189"/>
      <point x="949" y="-23"/>
      <point x="618" y="-23" type="curve" smooth="yes"/>
      <point x="278" y="-23"/>
      <point x="108" y="186"/>
      <point x="108" y="462" type="curve" smooth="yes"/>
      <point x="108" y="772"/>
      <point x="265" y="935"/>
      <point x="744" y="1462" type="curve"/>
      <point x="991" y="1462" type="line"/>
      <point x="429" y="852" type="line"/>
      <point x="493" y="887"/>
      <point x="597" y="912"/>
    </contour>
    <contour>
      <point x="282" y="443" type="curve" smooth="yes"/>
      <point x="282" y="270"/>
      <point x="407" y="137"/>
      <point x="613" y="137" type="curve" smooth="yes"/>
      <point x="819" y="137"/>
      <point x="953" y="274"/>
      <point x="953" y="445" type="curve" smooth="yes"/>
      <point x="953" y="628"/>
      <point x="834" y="759"/>
      <point x="618" y="759" type="curve" smooth="yes"/>
      <point x="397" y="759"/>
      <point x="282" y="614"/>
    </contour>
  </outline>
</glyph>
<glyph name="seven" format="1">
  <advance width="1063"/>
  <unicode hex="0037"/>
  <outline>
    <contour>
      <point x="272" y="0" type="line" smooth="no"/>
      <point x="786" y="1341" type="line" smooth="no"/>
      <point x="88" y="1341" type="line" smooth="no"/>
      <point x="88" y="1496" type="line" smooth="no"/>
      <point x="989" y="1496" type="line" smooth="no"/>
      <point x="989" y="1360" type="line" smooth="no"/>
      <point x="454" y="0" type="line" smooth="no"/>
    </contour>
  </outline>
</glyph>
<glyph name="nine" format="1">
  <advance width="1187"/>
  <unicode hex="0039"/>
  <outline>
    <contour>
      <point x="548" y="557" type="curve" smooth="yes"/>
      <point x="280" y="557"/>
      <point x="102" y="734"/>
      <point x="102" y="1010" type="curve" smooth="yes"/>
      <point x="102" y="1277"/>
      <point x="287" y="1489"/>
      <point x="608" y="1489" type="curve" smooth="yes"/>
      <point x="935" y="1489"/>
      <point x="1106" y="1282"/>
      <point x="1106" y="1006" type="curve" smooth="yes"/>
      <point x="1106" y="685"/>
      <point x="934" y="525"/>
      <point x="482" y="-23" type="curve"/>
      <point x="246" y="-23" type="line"/>
      <point x="797" y="617" type="line"/>
      <point x="733" y="583"/>
      <point x="628" y="557"/>
    </contour>
    <contour>
      <point x="934" y="1025" type="curve" smooth="yes"/>
      <point x="934" y="1198"/>
      <point x="820" y="1332"/>
      <point x="614" y="1332" type="curve" smooth="yes"/>
      <point x="409" y="1332"/>
      <point x="285" y="1192"/>
      <point x="285" y="1020" type="curve" smooth="yes"/>
      <point x="285" y="836"/>
      <point x="392" y="707"/>
      <point x="608" y="707" type="curve" smooth="yes"/>
      <point x="830" y="707"/>
      <point x="934" y="853"/>
    </contour>
  </outline>
</glyph>
<glyph name="colon" format="1">
  <advance width="494"/>
  <unicode hex="003a"/>
  <outline>
    <contour>
      <point x="146" y="893" type="line" smooth="no"/>
      <point x="146" y="1124" type="line" smooth="no"/>
      <point x="352" y="1124" type="line" smooth="no"/>
      <point x="352" y="893" type="line" smooth="no"/>
    </contour>
    <contour>
      <point x="146" y="-25" type="line" smooth="no"/>
      <point x="146" y="208" type="line" smooth="no"/>
      <point x="352" y="208" type="line" smooth="no"/>
      <point x="352" y="-25" type="line" smooth="no"/>
    </contour>
  </outline>
</glyph>
<glyph name="semicolon" format="1">
  <advance width="518"/>
  <unicode hex="003b"/>
  <outline>
    <contour>
      <point x="174" y="893" type="line" smooth="no"/>
      <point x="174" y="1124" type="line" smooth="no"/>
      <point x="380" y="1124" type="line" smooth="no"/>
      <point x="380" y="893" type="line" smooth="no"/>
    </contour>
    <contour>
      <point x="376" y="197" type="line" smooth="no"/>
      <point x="251" y="-310" type="line" smooth="no"/>
      <point x="138" y="-310" type="line" smooth="no"/>
      <point x="194" y="197" type="line" smooth="no"/>
    </contour>
  </outline>
</glyph>
<glyph name="less" format="1">
  <advance width="1179"/>
  <unicode hex="003c"/>
  <outline>
    <contour>
      <point x="1061" y="982" type="line" smooth="no"/>
      <point x="294" y="596" type="line" smooth="no"/>
      <point x="1057" y="216" type="line" smooth="no"/>
      <point x="1057" y="50" type="line" smooth="no"/>
      <point x="103" y="547" type="line" smooth="no"/>
      <point x="103" y="642" type="line" smooth="no"/>
      <point x="1061" y="1149" type="line" smooth="no"/>
    </contour>
  </outline>
</glyph>
<glyph name="equal" format="1">
  <advance width="1286"/>
  <unicode hex="003d"/>
  <outline>
    <contour>
      <point x="145" y="452" type="line" smooth="no"/>
      <point x="1146" y="452" type="line" smooth="no"/>
      <point x="1146" y="305" type="line" smooth="no"/>
      <point x="145" y="305" type="line" smooth="no"/>
    </contour>
    <contour>
      <point x="143" y="891" type="line" smooth="no"/>
      <point x="1146" y="891" type="line" smooth="no"/>
      <point x="1146" y="741" type="line" smooth="no"/>
      <point x="143" y="741" type="line" smooth="no"/>
    </contour>
  </outline>
</glyph>
<glyph name="greater" format="1">
  <advance width="1182"/>
  <unicode hex="003e"/>
  <outline>
    <contour>
      <point x="126" y="230" type="line" smooth="no"/>
      <point x="891" y="598" type="line" smooth="no"/>
      <point x="130" y="997" type="line" smooth="no"/>
      <point x="130" y="1160" type="line" smooth="no"/>
      <point x="1086" y="640" type="line" smooth="no"/>
      <point x="1086" y="544" type="line" smooth="no"/>
      <point x="126" y="62" type="line" smooth="no"/>
    </contour>
  </outline>
</glyph>
<glyph name="question" format="1">
  <advance width="867"/>
  <unicode hex="003f"/>
  <outline>
    <contour>
      <point x="128" y="1257" type="curve" smooth="no"/>
      <point x="86" y="1383" type="line" smooth="no"/>
      <point x="173" y="1451"/>
      <point x="280" y="1489"/>
      <point x="387" y="1489" type="curve" smooth="yes"/>
      <point x="607" y="1489"/>
      <point x="767" y="1373"/>
      <point x="767" y="1154" type="curve" smooth="yes"/>
      <point x="767" y="835"/>
      <point x="423" y="804"/>
      <point x="423" y="547" type="curve" smooth="yes"/>
      <point x="423" y="436" type="line" smooth="no"/>
      <point x="289" y="436" type="line" smooth="no"/>
      <point x="287" y="458"/>
      <point x="285" y="480"/>
      <point x="284" y="501" type="curve" smooth="yes"/>
      <point x="281" y="537"/>
      <point x="280" y="581"/>
      <point x="280" y="610" type="curve" smooth="yes"/>
      <point x="280" y="823"/>
      <point x="612" y="898"/>
      <point x="612" y="1147" type="curve" smooth="yes"/>
      <point x="612" y="1279"/>
      <point x="500" y="1343"/>
      <point x="367" y="1343" type="curve" smooth="yes"/>
      <point x="247" y="1343"/>
      <point x="176" y="1287"/>
    </contour>
    <contour>
      <point x="253" y="0" type="line" smooth="no"/>
      <point x="253" y="230" type="line" smooth="no"/>
      <point x="473" y="230" type="line" smooth="no"/>
      <point x="473" y="0" type="line" smooth="no"/>
    </contour>
  </outline>
</glyph>
<glyph name="at" format="1">
  <advance width="1797"/>
  <unicode hex="0040"/>
  <outline>
    <contour>
      <point x="1239" y="146" type="curve" smooth="yes"/>
      <point x="1140" y="146"/>
      <point x="1071" y="193"/>
      <point x="1055" y="304" type="curve"/>
      <point x="987" y="205"/>
      <point x="906" y="165"/>
      <point x="817" y="165" type="curve" smooth="yes"/>
      <point x="673" y="165"/>
      <point x="569" y="283"/>
      <point x="569" y="480" type="curve" smooth="yes"/>
      <point x="569" y="740"/>
      <point x="691" y="986"/>
      <point x="976" y="986" type="curve" smooth="yes"/>
      <point x="1080" y="986"/>
      <point x="1194" y="953"/>
      <point x="1276" y="924" type="curve"/>
      <point x="1228" y="692"/>
      <point x="1171" y="452"/>
      <point x="1171" y="373" type="curve" smooth="yes"/>
      <point x="1171" y="298"/>
      <point x="1204" y="267"/>
      <point x="1260" y="267" type="curve" smooth="yes"/>
      <point x="1390" y="267"/>
      <point x="1569" y="454"/>
      <point x="1569" y="690" type="curve" smooth="yes"/>
      <point x="1569" y="1042"/>
      <point x="1293" y="1254"/>
      <point x="920" y="1254" type="curve" smooth="yes"/>
      <point x="545" y="1254"/>
      <point x="239" y="954"/>
      <point x="239" y="569" type="curve" smooth="yes"/>
      <point x="239" y="148"/>
      <point x="545" y="-118"/>
      <point x="908" y="-118" type="curve" smooth="yes"/>
      <point x="1091" y="-118"/>
      <point x="1241" y="-59"/>
      <point x="1353" y="34" type="curve"/>
      <point x="1423" y="-54" type="line"/>
      <point x="1298" y="-169"/>
      <point x="1119" y="-239"/>
      <point x="906" y="-239" type="curve" smooth="yes"/>
      <point x="463" y="-239"/>
      <point x="110" y="84"/>
      <point x="110" y="569" type="curve" smooth="yes"/>
      <point x="110" y="1017"/>
      <point x="470" y="1374"/>
      <point x="925" y="1374" type="curve" smooth="yes"/>
      <point x="1354" y="1374"/>
      <point x="1696" y="1107"/>
      <point x="1696" y="688" type="curve" smooth="yes"/>
      <point x="1696" y="341"/>
      <point x="1445" y="146"/>
    </contour>
    <contour>
      <point x="841" y="291" type="curve" smooth="yes"/>
      <point x="1019" y="291"/>
      <point x="1066" y="591"/>
      <point x="1114" y="847" type="curve"/>
      <point x="1087" y="861"/>
      <point x="1018" y="868"/>
      <point x="979" y="868" type="curve" smooth="yes"/>
      <point x="771" y="868"/>
      <point x="702" y="659"/>
      <point x="702" y="470" type="curve" smooth="yes"/>
      <point x="702" y="362"/>
      <point x="752" y="291"/>
    </contour>
  </outline>
</glyph>
<glyph name="A" format="1">
  <advance width="1327"/>
  <unicode hex="0041"/>
  <outline>
    <contour>
      <point x="-1" y="0" type="line"/>
      <point x="573" y="1496" type="line"/>
      <point x="785" y="1496" type="line"/>
      <point x="1328" y="0" type="line"/>
      <point x="1146" y="0" type="line"/>
      <point x="975" y="473" type="line"/>
      <point x="365" y="473" type="line"/>
      <point x="181" y="0" type="line"/>
    </contour>
    <contour>
      <point x="913" y="627" type="line"/>
      <point x="680" y="1294" type="line"/>
      <point x="423" y="627" type="line"/>
    </contour>
    <contour>
      <point x="664" y="1489" type="move" name="top"/>
    </contour>
    <contour>
      <point x="1194" y="10" type="move" name="ogonek"/>
    </contour>
  </outline>
</glyph>
<glyph name="B" format="1">
  <advance width="1288"/>
  <unicode hex="0042"/>
  <outline>
    <contour>
      <point x="162" y="0" type="line"/>
      <point x="162" y="1462" type="line"/>
      <point x="598" y="1462" type="line" smooth="yes"/>
      <point x="959" y="1462"/>
      <point x="1166" y="1364"/>
      <point x="1166" y="1100" type="curve" smooth="yes"/>
      <point x="1166" y="957"/>
      <point x="1105" y="820"/>
      <point x="954" y="770" type="curve"/>
      <point x="1142" y="730"/>
      <point x="1228" y="585"/>
      <point x="1228" y="426" type="curve" smooth="yes"/>
      <point x="1228" y="163"/>
      <point x="1074" y="0"/>
      <point x="685" y="0" type="curve" smooth="yes"/>
    </contour>
    <contour>
      <point x="339" y="1315" type="line"/>
      <point x="339" y="819" type="line"/>
      <point x="683" y="819" type="line" smooth="yes"/>
      <point x="822" y="819"/>
      <point x="981" y="854"/>
      <point x="981" y="1065" type="curve" smooth="yes"/>
      <point x="981" y="1290"/>
      <point x="815" y="1315"/>
      <point x="572" y="1315" type="curve" smooth="yes"/>
    </contour>
    <contour>
      <point x="339" y="681" type="line"/>
      <point x="339" y="142" type="line"/>
      <point x="652" y="142" type="line" smooth="yes"/>
      <point x="912" y="142"/>
      <point x="1048" y="227"/>
      <point x="1048" y="428" type="curve" smooth="yes"/>
      <point x="1048" y="616"/>
      <point x="927" y="681"/>
      <point x="703" y="681" type="curve" smooth="yes"/>
    </contour>
  </outline>
</glyph>
<glyph name="C" format="1">
  <advance width="1312.00011087"/>
  <unicode hex="0043"/>
  <outline>
    <contour>
      <point x="826.737110867" y="1525.01" type="curve" smooth="yes"/>
      <point x="365.590110867" y="1525.01"/>
      <point x="112.200110867" y="1187.2"/>
      <point x="112.000110867" y="745" type="curve" smooth="yes"/>
      <point x="111.809110867" y="321.999"/>
      <point x="358.409110867" y="-23"/>
      <point x="828.000110867" y="-23" type="curve" smooth="yes"/>
      <point x="1021.85011087" y="-23"/>
      <point x="1159.61011087" y="19"/>
      <point x="1259.00011087" y="107" type="curve"/>
      <point x="1201.00011087" y="252" type="line"/>
      <point x="1118.55011087" y="186.286"/>
      <point x="991.689110867" y="128.992"/>
      <point x="841.994110867" y="128.992" type="curve" smooth="yes"/>
      <point x="447.815110867" y="128.992"/>
      <point x="301.000110867" y="429.448"/>
      <point x="301.000110867" y="746" type="curve" smooth="yes"/>
      <point x="301.000110867" y="1078.18"/>
      <point x="469.101110867" y="1373"/>
      <point x="832.000110867" y="1373" type="curve" smooth="yes"/>
      <point x="985.503110867" y="1373"/>
      <point x="1115.62011087" y="1318.99"/>
      <point x="1200.00011087" y="1254" type="curve"/>
      <point x="1264.00011087" y="1389" type="line"/>
      <point x="1161.00011087" y="1473"/>
      <point x="1023.95011087" y="1525.01"/>
    </contour>
    <contour>
      <point x="660.000110867" y="1489" type="move" name="top"/>
    </contour>
    <contour>
      <point x="660.000110867" y="0" type="move" name="bottom"/>
    </contour>
  </outline>
</glyph>
<glyph name="D" format="1">
  <advance width="1532"/>
  <unicode hex="0044"/>
  <outline>
    <contour>
      <point x="147" y="0" type="line"/>
      <point x="147" y="1496" type="line"/>
      <point x="513" y="1496" type="line" smooth="yes"/>
      <point x="1030" y="1496"/>
      <point x="1431" y="1325"/>
      <point x="1431" y="748" type="curve" smooth="yes"/>
      <point x="1431" y="250"/>
      <point x="1084" y="0"/>
      <point x="612" y="0" type="curve" smooth="yes"/>
    </contour>
    <contour>
      <point x="324" y="1341" type="line"/>
      <point x="324" y="156" type="line"/>
      <point x="630" y="156" type="line" smooth="yes"/>
      <point x="986" y="156"/>
      <point x="1238" y="357"/>
      <point x="1238" y="744" type="curve" smooth="yes"/>
      <point x="1238" y="1215"/>
      <point x="943" y="1341"/>
      <point x="534" y="1341" type="curve" smooth="yes"/>
    </contour>
    <contour>
      <point x="766" y="1489" type="move" name="top"/>
    </contour>
    <contour>
      <point x="766" y="745" type="move" name="center"/>
    </contour>
  </outline>
</glyph>
<glyph name="E" format="1">
  <advance width="1096"/>
  <unicode hex="0045"/>
  <outline>
    <contour>
      <point x="967" y="845" type="line" smooth="no"/>
      <point x="967" y="692" type="line" smooth="no"/>
      <point x="324" y="692" type="line" smooth="no"/>
      <point x="324" y="156" type="line" smooth="no"/>
      <point x="1038" y="156" type="line" smooth="no"/>
      <point x="1023" y="0" type="line" smooth="no"/>
      <point x="147" y="0" type="line" smooth="no"/>
      <point x="147" y="1496" type="line" smooth="no"/>
      <point x="1009" y="1496" type="line" smooth="no"/>
      <point x="995" y="1341" type="line" smooth="no"/>
      <point x="324" y="1341" type="line" smooth="no"/>
      <point x="324" y="845" type="line" smooth="no"/>
    </contour>
  </outline>
</glyph>
<glyph name="F" format="1">
  <advance width="1024"/>
  <unicode hex="0046"/>
  <outline>
    <contour>
      <point x="939" y="838" type="line" smooth="no"/>
      <point x="939" y="695" type="line" smooth="no"/>
      <point x="323" y="695" type="line" smooth="no"/>
      <point x="323" y="0" type="line" smooth="no"/>
      <point x="147" y="0" type="line" smooth="no"/>
      <point x="147" y="1496" type="line" smooth="no"/>
      <point x="973" y="1496" type="line" smooth="no"/>
      <point x="959" y="1341" type="line" smooth="no"/>
      <point x="323" y="1341" type="line" smooth="no"/>
      <point x="323" y="838" type="line" smooth="no"/>
    </contour>
  </outline>
</glyph>
<glyph name="H" format="1">
  <advance width="1463"/>
  <unicode hex="0048"/>
  <outline>
    <contour>
      <point x="1140" y="696" type="line"/>
      <point x="323" y="696" type="line"/>
      <point x="323" y="0" type="line"/>
      <point x="147" y="0" type="line"/>
      <point x="147" y="1496" type="line"/>
      <point x="323" y="1496" type="line"/>
      <point x="323" y="848" type="line"/>
      <point x="1140" y="848" type="line"/>
      <point x="1140" y="1496" type="line"/>
      <point x="1316" y="1496" type="line"/>
      <point x="1316" y="0" type="line"/>
      <point x="1140" y="0" type="line"/>
    </contour>
    <contour>
      <point x="732" y="1489" type="move" name="top"/>
    </contour>
    <contour>
      <point x="732" y="745" type="move" name="center"/>
    </contour>
  </outline>
</glyph>
<glyph name="I" format="1">
  <advance width="486"/>
  <unicode hex="0049"/>
  <outline>
    <contour>
      <point x="331" y="0" type="line" smooth="no"/>
      <point x="155" y="0" type="line" smooth="no"/>
      <point x="155" y="1496" type="line" smooth="no"/>
      <point x="331" y="1496" type="line" smooth="no"/>
    </contour>
  </outline>
</glyph>
<glyph name="J" format="1">
  <advance width="647"/>
  <unicode hex="004a"/>
  <outline>
    <contour>
      <point x="321" y="253" type="curve" smooth="yes"/>
      <point x="321" y="1496" type="line" smooth="no"/>
      <point x="500" y="1496" type="line" smooth="no"/>
      <point x="500" y="302" type="line" smooth="yes"/>
      <point x="500" y="-6"/>
      <point x="465" y="-153"/>
      <point x="113" y="-153" type="curve" smooth="yes"/>
      <point x="78" y="-153" type="line" smooth="no"/>
      <point x="57" y="0" type="line" smooth="no"/>
      <point x="131" y="0" type="line" smooth="yes"/>
      <point x="313" y="0"/>
      <point x="321" y="105"/>
    </contour>
  </outline>
</glyph>
<glyph name="K" format="1">
  <advance width="1228"/>
  <unicode hex="004b"/>
  <outline>
    <contour>
      <point x="582" y="778" type="line" smooth="no"/>
      <point x="1263" y="0" type="line" smooth="no"/>
      <point x="1040" y="0" type="line" smooth="no"/>
      <point x="440" y="682" type="line" smooth="no"/>
      <point x="323" y="581" type="line" smooth="no"/>
      <point x="323" y="0" type="line" smooth="no"/>
      <point x="147" y="0" type="line" smooth="no"/>
      <point x="147" y="1496" type="line" smooth="no"/>
      <point x="323" y="1496" type="line" smooth="no"/>
      <point x="323" y="770" type="line" smooth="no"/>
      <point x="961" y="1496" type="line" smooth="no"/>
      <point x="1194" y="1496" type="line" smooth="no"/>
    </contour>
  </outline>
</glyph>
<glyph name="L" format="1">
  <advance width="960"/>
  <unicode hex="004C"/>
  <outline>
    <contour>
      <point x="148" y="1496" type="line"/>
      <point x="325" y="1496" type="line"/>
      <point x="325" y="156" type="line"/>
      <point x="970" y="156" type="line"/>
      <point x="970" y="0" type="line"/>
      <point x="148" y="0" type="line"/>
    </contour>
    <contour>
      <point x="480" y="1489" type="move" name="top"/>
    </contour>
    <contour>
      <point x="480" y="0" type="move" name="bottom"/>
    </contour>
  </outline>
</glyph>
<glyph name="M" format="1">
  <advance width="1785"/>
  <unicode hex="004D"/>
  <outline>
    <contour>
      <point x="316" y="1181" type="line"/>
      <point x="316" y="0" type="line"/>
      <point x="149" y="0" type="line"/>
      <point x="149" y="1496" type="line"/>
      <point x="341" y="1496" type="line"/>
      <point x="900" y="347" type="line"/>
      <point x="1453" y="1496" type="line"/>
      <point x="1636" y="1496" type="line"/>
      <point x="1636" y="0" type="line"/>
      <point x="1470" y="0" type="line"/>
      <point x="1470" y="1175" type="line"/>
      <point x="998" y="183" type="line"/>
      <point x="797" y="183" type="line"/>
    </contour>
  </outline>
</glyph>
<glyph name="N" format="1">
  <advance width="1488"/>
  <unicode hex="004e"/>
  <outline>
    <contour>
      <point x="1341" y="0" type="line" smooth="no"/>
      <point x="1144" y="0" type="line" smooth="no"/>
      <point x="405" y="1096" type="line" smooth="no"/>
      <point x="314" y="1239" type="line" smooth="no"/>
      <point x="314" y="0" type="line" smooth="no"/>
      <point x="147" y="0" type="line" smooth="no"/>
      <point x="147" y="1496" type="line" smooth="no"/>
      <point x="341" y="1496" type="line" smooth="no"/>
      <point x="1085" y="398" type="line" smooth="no"/>
      <point x="1178" y="253" type="line" smooth="no"/>
      <point x="1178" y="1496" type="line" smooth="no"/>
      <point x="1341" y="1496" type="line" smooth="no"/>
    </contour>
  </outline>
</glyph>
<glyph name="O" format="1">
  <advance width="1683"/>
  <unicode hex="004F"/>
  <outline>
    <contour>
      <point x="842" y="-23" type="curve" smooth="yes"/>
      <point x="362" y="-23"/>
      <point x="112" y="308"/>
      <point x="112" y="746" type="curve" smooth="yes"/>
      <point x="112" y="1211"/>
      <point x="379" y="1525"/>
      <point x="842" y="1525" type="curve" smooth="yes"/>
      <point x="1305" y="1525"/>
      <point x="1571" y="1211"/>
      <point x="1571" y="746" type="curve" smooth="yes"/>
      <point x="1571" y="308"/>
      <point x="1321" y="-23"/>
    </contour>
    <contour>
      <point x="842" y="1373" type="curve" smooth="yes"/>
      <point x="482" y="1373"/>
      <point x="301" y="1122.62"/>
      <point x="301" y="746" type="curve" smooth="yes"/>
      <point x="301" y="402.214"/>
      <point x="466.2" y="129"/>
      <point x="842" y="129" type="curve" smooth="yes"/>
      <point x="1218.2" y="129"/>
      <point x="1382" y="402.214"/>
      <point x="1382" y="746" type="curve" smooth="yes"/>
      <point x="1382" y="1118.62"/>
      <point x="1203" y="1373"/>
    </contour>
    <contour>
      <point x="842" y="1489" type="move" name="top"/>
    </contour>
  </outline>
</glyph>
<glyph name="P" format="1">
  <advance width="1146"/>
  <unicode hex="0050"/>
  <outline>
    <contour>
      <point x="323" y="0" type="line" smooth="no"/>
      <point x="147" y="0" type="line" smooth="no"/>
      <point x="147" y="1496" type="line" smooth="no"/>
      <point x="613" y="1496" type="line" smooth="yes"/>
      <point x="897" y="1496"/>
      <point x="1115" y="1382"/>
      <point x="1115" y="1093" type="curve" smooth="yes"/>
      <point x="1115" y="815"/>
      <point x="995" y="625"/>
      <point x="552" y="625" type="curve" smooth="yes"/>
      <point x="490" y="625"/>
      <point x="399" y="634"/>
      <point x="323" y="641" type="curve" smooth="no"/>
    </contour>
    <contour>
      <point x="569" y="778" type="curve" smooth="yes"/>
      <point x="908" y="778"/>
      <point x="935" y="941"/>
      <point x="935" y="1090" type="curve" smooth="yes"/>
      <point x="935" y="1267"/>
      <point x="802" y="1337"/>
      <point x="617" y="1337" type="curve" smooth="yes"/>
      <point x="323" y="1337" type="line" smooth="no"/>
      <point x="323" y="783" type="line" smooth="no"/>
      <point x="323" y="783"/>
      <point x="501" y="778"/>
    </contour>
  </outline>
</glyph>
<glyph name="Q" format="1">
  <advance width="1693"/>
  <unicode hex="0051"/>
  <outline>
    <contour>
      <point x="847" y="-23" type="curve" smooth="yes"/>
      <point x="367" y="-23"/>
      <point x="117" y="298"/>
      <point x="117" y="746" type="curve" smooth="yes"/>
      <point x="117" y="1221"/>
      <point x="384" y="1525"/>
      <point x="847" y="1525" type="curve" smooth="yes"/>
      <point x="1310" y="1525"/>
      <point x="1576" y="1221"/>
      <point x="1576" y="746" type="curve" smooth="yes"/>
      <point x="1576" y="298"/>
      <point x="1326" y="-23"/>
    </contour>
    <contour>
      <point x="847" y="1363" type="curve" smooth="yes"/>
      <point x="487" y="1363"/>
      <point x="306" y="1092"/>
      <point x="306" y="746" type="curve" smooth="yes"/>
      <point x="306" y="405"/>
      <point x="484" y="139"/>
      <point x="847" y="139" type="curve" smooth="yes"/>
      <point x="1210" y="139"/>
      <point x="1387" y="405"/>
      <point x="1387" y="746" type="curve" smooth="yes"/>
      <point x="1387" y="1092"/>
      <point x="1208" y="1363"/>
    </contour>
    <contour>
      <point x="954" y="-8" type="curve"/>
      <point x="1128" y="21" type="line"/>
      <point x="1175" y="-72"/>
      <point x="1238" y="-152"/>
      <point x="1291" y="-212" type="curve" smooth="yes"/>
      <point x="1322" y="-247"/>
      <point x="1354" y="-278"/>
      <point x="1385" y="-306" type="curve"/>
      <point x="1267" y="-426" type="line"/>
      <point x="1228" y="-387"/>
      <point x="1189" y="-346"/>
      <point x="1152" y="-301" type="curve"/>
      <point x="1087" y="-225"/>
      <point x="1010" y="-121"/>
    </contour>
  </outline>
</glyph>
<glyph name="R" format="1">
  <advance width="1320"/>
  <unicode hex="0052"/>
  <outline>
    <contour>
      <point x="1283" y="0" type="line"/>
      <point x="1101" y="0" type="line"/>
      <point x="890" y="474" type="line"/>
      <point x="855" y="563"/>
      <point x="808" y="633"/>
      <point x="777" y="684" type="curve"/>
      <point x="732" y="681"/>
      <point x="681" y="682"/>
      <point x="624" y="682" type="curve" smooth="yes"/>
      <point x="339" y="682" type="line"/>
      <point x="339" y="0" type="line"/>
      <point x="163" y="0" type="line"/>
      <point x="163" y="1497" type="line"/>
      <point x="622" y="1497" type="line" smooth="yes"/>
      <point x="951" y="1497"/>
      <point x="1217" y="1442"/>
      <point x="1217" y="1105" type="curve" smooth="yes"/>
      <point x="1217" y="920"/>
      <point x="1131" y="772"/>
      <point x="935" y="724" type="curve"/>
      <point x="978" y="669"/>
      <point x="1020" y="612"/>
      <point x="1047" y="532" type="curve"/>
    </contour>
    <contour>
      <point x="339" y="1341" type="line"/>
      <point x="339" y="841" type="line"/>
      <point x="665" y="841" type="line" smooth="yes"/>
      <point x="936" y="841"/>
      <point x="1043" y="937"/>
      <point x="1043" y="1102" type="curve" smooth="yes"/>
      <point x="1043" y="1258"/>
      <point x="935" y="1341"/>
      <point x="706" y="1341" type="curve" smooth="yes"/>
    </contour>
    <contour>
      <point x="703" y="1489" type="line"/>
    </contour>
    <contour>
      <point x="703" y="0" type="line"/>
    </contour>
    <contour>
      <point x="683" y="1489" type="line" smooth="yes"/>
    </contour>
    <contour>
      <point x="683" y="0" type="line" smooth="yes"/>
    </contour>
    <contour>
      <point x="663" y="1489" type="move" name="top"/>
    </contour>
    <contour>
      <point x="663" y="0" type="move" name="bottom"/>
    </contour>
  </outline>
</glyph>
<glyph name="S" format="1">
  <advance width="1254"/>
  <unicode hex="0053"/>
  <outline>
    <contour>
      <point x="655" y="130" type="curve" smooth="yes"/>
      <point x="866" y="130"/>
      <point x="989" y="216"/>
      <point x="989" y="411" type="curve" smooth="yes"/>
      <point x="989" y="540"/>
      <point x="944.556" y="624"/>
      <point x="742.556" y="675" type="curve" smooth="no"/>
      <point x="442" y="749" type="line" smooth="yes"/>
      <point x="232" y="801"/>
      <point x="98.138" y="910.652"/>
      <point x="98.138" y="1109.04" type="curve" smooth="yes"/>
      <point x="98.138" y="1399.89"/>
      <point x="321" y="1525"/>
      <point x="656" y="1525" type="curve" smooth="yes"/>
      <point x="843" y="1525"/>
      <point x="1008" y="1482"/>
      <point x="1113" y="1418" type="curve" smooth="no"/>
      <point x="1060.56" y="1277" type="line" smooth="no"/>
      <point x="980.556" y="1321"/>
      <point x="817.232" y="1372"/>
      <point x="652" y="1372" type="curve" smooth="yes"/>
      <point x="408.856" y="1372"/>
      <point x="282.453" y="1291.99"/>
      <point x="282.453" y="1118.86" type="curve" smooth="yes"/>
      <point x="282.453" y="1001.95"/>
      <point x="362.025" y="939.312"/>
      <point x="509" y="904" type="curve" smooth="yes"/>
      <point x="795.556" y="836" type="line" smooth="no"/>
      <point x="1023.56" y="779"/>
      <point x="1170" y="676"/>
      <point x="1170" y="432" type="curve" smooth="yes"/>
      <point x="1170" y="121"/>
      <point x="956" y="-23"/>
      <point x="644" y="-23" type="curve" smooth="yes"/>
      <point x="378" y="-23"/>
      <point x="189" y="44"/>
      <point x="96" y="100" type="curve" smooth="no"/>
      <point x="148.556" y="244" type="line" smooth="no"/>
      <point x="285.556" y="178"/>
      <point x="460" y="130"/>
    </contour>
  </outline>
</glyph>
<glyph name="T" format="1">
  <advance width="1072"/>
  <unicode hex="0054"/>
  <outline>
    <contour>
      <point x="536" y="1489" type="line"/>
    </contour>
    <contour>
      <point x="536" y="0" type="line"/>
    </contour>
    <contour>
      <point x="536" y="745" type="line"/>
    </contour>
    <contour>
      <point x="20" y="1341" type="line"/>
      <point x="20" y="1497" type="line"/>
      <point x="1052" y="1497" type="line"/>
      <point x="1052" y="1341" type="line"/>
      <point x="623" y="1341" type="line"/>
      <point x="623" y="0" type="line"/>
      <point x="447" y="0" type="line"/>
      <point x="447" y="1341" type="line"/>
    </contour>
    <contour>
      <point x="536" y="1489" type="line" smooth="yes"/>
    </contour>
    <contour>
      <point x="536" y="0" type="line" smooth="yes"/>
    </contour>
    <contour>
      <point x="536" y="745" type="line" smooth="yes"/>
    </contour>
    <contour>
      <point x="536" y="1489" type="move" name="top"/>
    </contour>
    <contour>
      <point x="536" y="0" type="move" name="bottom"/>
    </contour>
    <contour>
      <point x="536" y="745" type="move" name="center"/>
    </contour>
  </outline>
</glyph>
<glyph name="U" format="1">
  <advance width="1394"/>
  <unicode hex="0055"/>
  <outline>
    <contour>
      <point x="692" y="-23" type="curve" smooth="yes"/>
      <point x="257" y="-23"/>
      <point x="131" y="201.596"/>
      <point x="131" y="523" type="curve" smooth="yes"/>
      <point x="131" y="1497" type="line"/>
      <point x="307" y="1497" type="line"/>
      <point x="307" y="529" type="line" smooth="yes"/>
      <point x="307" y="237"/>
      <point x="422" y="125"/>
      <point x="692" y="125" type="curve" smooth="yes"/>
      <point x="961" y="125"/>
      <point x="1079" y="237"/>
      <point x="1079" y="529" type="curve" smooth="yes"/>
      <point x="1079" y="1497" type="line"/>
      <point x="1254" y="1497" type="line"/>
      <point x="1254" y="523" type="line" smooth="yes"/>
      <point x="1254" y="201.596"/>
      <point x="1128" y="-23"/>
    </contour>
    <contour>
      <point x="695" y="1489" type="line"/>
    </contour>
    <contour>
      <point x="1263" y="10" type="line"/>
    </contour>
    <contour>
      <point x="692" y="1489" type="line" smooth="yes"/>
    </contour>
    <contour>
      <point x="1257" y="10" type="line" smooth="yes"/>
    </contour>
    <contour>
      <point x="692" y="1489" type="move" name="top"/>
    </contour>
    <contour>
      <point x="1257" y="10" type="move" name="ogonek"/>
    </contour>
  </outline>
</glyph>
<glyph name="V" format="1">
  <advance width="1269"/>
  <unicode hex="0056"/>
  <outline>
    <contour>
      <point x="620.003" y="167" type="line"/>
      <point x="775.003" y="614"/>
      <point x="936.003" y="1053"/>
      <point x="1095" y="1497" type="curve"/>
      <point x="1277" y="1497" type="line"/>
      <point x="709.003" y="0" type="line"/>
      <point x="524.003" y="0" type="line"/>
      <point x="-7.99707" y="1497" type="line"/>
      <point x="183.003" y="1497" type="line"/>
      <point x="550.003" y="406" type="line"/>
    </contour>
  </outline>
</glyph>
<glyph name="W" format="1">
  <advance width="1983"/>
  <unicode hex="0057"/>
  <outline>
    <contour>
      <point x="1492" y="195" type="line" smooth="no"/>
      <point x="1786" y="1496" type="line" smooth="no"/>
      <point x="1968" y="1496" type="line" smooth="no"/>
      <point x="1596" y="0" type="line" smooth="no"/>
      <point x="1386" y="0" type="line" smooth="no"/>
      <point x="991" y="1247" type="line" smooth="no"/>
      <point x="595" y="0" type="line" smooth="no"/>
      <point x="387" y="0" type="line" smooth="no"/>
      <point x="15" y="1496" type="line" smooth="no"/>
      <point x="198" y="1496" type="line" smooth="no"/>
      <point x="497" y="197" type="line" smooth="no"/>
      <point x="892" y="1496" type="line" smooth="no"/>
      <point x="1102" y="1496" type="line" smooth="no"/>
    </contour>
  </outline>
</glyph>
<glyph name="X" format="1">
  <advance width="1347"/>
  <unicode hex="0058"/>
  <outline>
    <contour>
      <point x="35" y="0" type="line"/>
      <point x="560" y="781" type="line"/>
      <point x="67" y="1497" type="line"/>
      <point x="281" y="1497" type="line"/>
      <point x="684" y="892" type="line"/>
      <point x="1114" y="1497" type="line"/>
      <point x="1304" y="1497" type="line"/>
      <point x="805" y="781" type="line"/>
      <point x="1312" y="0" type="line"/>
      <point x="1107" y="0" type="line"/>
      <point x="677" y="680" type="line"/>
      <point x="230" y="0" type="line"/>
    </contour>
  </outline>
</glyph>
<glyph name="Y" format="1">
  <advance width="1250"/>
  <unicode hex="0059"/>
  <outline>
    <contour>
      <point x="1247" y="1497" type="line"/>
      <point x="691" y="614" type="line"/>
      <point x="691" y="0" type="line"/>
      <point x="514" y="0" type="line"/>
      <point x="514" y="614" type="line"/>
      <point x="3" y="1497" type="line"/>
      <point x="191" y="1497" type="line"/>
      <point x="620" y="778" type="line"/>
      <point x="1055" y="1497" type="line"/>
    </contour>
    <contour>
      <point x="625" y="1489" type="line"/>
    </contour>
    <contour>
      <point x="606" y="1489" type="line" smooth="yes"/>
    </contour>
    <contour>
      <point x="593" y="1489" type="move" name="top"/>
    </contour>
  </outline>
</glyph>
<glyph name="Z" format="1">
  <advance width="1200"/>
  <unicode hex="005A"/>
  <outline>
    <contour>
      <point x="1156.99" y="1496" type="line"/>
      <point x="1156.99" y="1372" type="line"/>
      <point x="315" y="156" type="line"/>
      <point x="1148.99" y="156" type="line"/>
      <point x="1148.99" y="0" type="line"/>
      <point x="91" y="0" type="line"/>
      <point x="91" y="139" type="line"/>
      <point x="922" y="1335" type="line"/>
      <point x="125" y="1335" type="line"/>
      <point x="124.995" y="1496" type="line"/>
    </contour>
    <contour>
      <point x="600" y="1489" type="move" name="top"/>
    </contour>
  </outline>
</glyph>
<glyph name="bracketleft" format="1">
  <advance width="678"/>
  <unicode hex="005b"/>
  <outline>
    <contour>
      <point x="570" y="-139" type="line" smooth="no"/>
      <point x="570" y="-261" type="line" smooth="no"/>
      <point x="121" y="-261" type="line" smooth="no"/>
      <point x="121" y="1505" type="line" smooth="no"/>
      <point x="570" y="1505" type="line" smooth="no"/>
      <point x="570" y="1381" type="line" smooth="no"/>
      <point x="299" y="1381" type="line" smooth="no"/>
      <point x="299" y="-139" type="line" smooth="no"/>
    </contour>
  </outline>
</glyph>
<glyph name="backslash" format="1">
  <advance width="935"/>
  <unicode hex="005c"/>
  <outline>
    <contour>
      <point x="881" y="-120" type="line" smooth="no"/>
      <point x="735" y="-120" type="line" smooth="no"/>
      <point x="82" y="1466" type="line" smooth="no"/>
      <point x="230" y="1466" type="line" smooth="no"/>
    </contour>
  </outline>
</glyph>
<glyph name="bracketright" format="1">
  <advance width="678"/>
  <unicode hex="005d"/>
  <outline>
    <contour>
      <point x="109" y="-139" type="line" smooth="no"/>
      <point x="380" y="-139" type="line" smooth="no"/>
      <point x="380" y="1381" type="line" smooth="no"/>
      <point x="109" y="1381" type="line" smooth="no"/>
      <point x="109" y="1505" type="line" smooth="no"/>
      <point x="558" y="1505" type="line" smooth="no"/>
      <point x="558" y="-261" type="line" smooth="no"/>
      <point x="109" y="-261" type="line" smooth="no"/>
    </contour>
  </outline>
</glyph>
<glyph name="asciicircum" format="1">
  <advance width="1204"/>
  <unicode hex="005e"/>
  <outline>
    <contour>
      <point x="227" y="627" type="line" smooth="no"/>
      <point x="90" y="627" type="line" smooth="no"/>
      <point x="546" y="1559" type="line" smooth="no"/>
      <point x="651" y="1559" type="line" smooth="no"/>
      <point x="1113" y="627" type="line" smooth="no"/>
      <point x="979" y="627" type="line" smooth="no"/>
      <point x="595" y="1375" type="line" smooth="no"/>
    </contour>
  </outline>
</glyph>
<glyph name="underscore" format="1">
  <advance width="1252"/>
  <unicode hex="005f"/>
  <outline>
    <contour>
      <point x="1102" y="-156" type="line" smooth="no"/>
      <point x="1102" y="-292" type="line" smooth="no"/>
      <point x="150" y="-292" type="line" smooth="no"/>
      <point x="150" y="-156" type="line" smooth="no"/>
    </contour>
  </outline>
</glyph>
<glyph name="grave" format="1">
  <advance width="643"/>
  <unicode hex="0060"/>
  <outline>
    <contour>
      <point x="269" y="1098" type="line" smooth="no"/>
    </contour>
    <contour>
      <point x="408" y="1251" type="line" smooth="no"/>
      <point x="85" y="1638" type="line" smooth="no"/>
      <point x="335" y="1638" type="line" smooth="no"/>
      <point x="520" y="1251" type="line" smooth="no"/>
    </contour>
    <contour>
      <point x="268.5" y="1098" type="line" smooth="no"/>
    </contour>
    <contour>
      <point x="268.5" y="1098" type="line" smooth="no"/>
    </contour>
    <contour>
      <point x="302.5" y="1098" type="move" smooth="yes"/>
    </contour>
  </outline>
</glyph>
<glyph name="a" format="1">
  <advance width="1053"/>
  <unicode hex="0061"/>
  <outline>
    <contour>
      <point x="440" y="107" type="curve" smooth="yes"/>
      <point x="335" y="107"/>
      <point x="252" y="153"/>
      <point x="252" y="276" type="curve" smooth="yes"/>
      <point x="252" y="430"/>
      <point x="343" y="474"/>
      <point x="655" y="515" type="curve" smooth="yes"/>
      <point x="657.974" y="515.391"/>
      <point x="755" y="528"/>
      <point x="755" y="529" type="curve" smooth="yes"/>
      <point x="755" y="269" type="line"/>
      <point x="684" y="170"/>
      <point x="544" y="107"/>
    </contour>
    <contour>
      <point x="760" y="120" type="curve"/>
      <point x="760" y="120"/>
      <point x="784" y="1"/>
      <point x="785" y="0" type="curve"/>
      <point x="922" y="0" type="line"/>
      <point x="922" y="806" type="line" smooth="yes"/>
      <point x="922" y="1051"/>
      <point x="752" y="1124"/>
      <point x="535" y="1124" type="curve" smooth="yes"/>
      <point x="380" y="1124"/>
      <point x="233" y="1087"/>
      <point x="150" y="1041" type="curve"/>
      <point x="150" y="1041"/>
      <point x="195" y="909"/>
      <point x="196" y="909" type="curve" smooth="yes"/>
      <point x="286" y="953"/>
      <point x="418" y="983"/>
      <point x="539" y="983" type="curve" smooth="yes"/>
      <point x="680" y="983"/>
      <point x="755" y="914"/>
      <point x="755" y="781" type="curve" smooth="yes"/>
      <point x="755" y="647" type="line"/>
      <point x="755" y="647"/>
      <point x="646" y="633"/>
      <point x="645" y="633" type="curve" smooth="yes"/>
      <point x="362" y="592"/>
      <point x="84" y="562"/>
      <point x="84" y="274" type="curve" smooth="yes"/>
      <point x="84" y="69"/>
      <point x="241" y="-25"/>
      <point x="422" y="-25" type="curve" smooth="yes"/>
      <point x="537" y="-25"/>
      <point x="664" y="12"/>
    </contour>
    <contour>
      <point x="527" y="1098" type="move" name="top"/>
    </contour>
    <contour>
      <point x="948" y="10" type="move" name="ogonek"/>
    </contour>
  </outline>
</glyph>
<glyph name="b" format="1">
  <advance width="1187"/>
  <unicode hex="0062"/>
  <outline>
    <contour>
      <point x="122" y="1510" type="line"/>
      <point x="291" y="1510" type="line"/>
      <point x="291" y="926" type="line"/>
      <point x="367" y="1069"/>
      <point x="514" y="1124"/>
      <point x="633" y="1124" type="curve" smooth="yes"/>
      <point x="938" y="1124"/>
      <point x="1097" y="854"/>
      <point x="1097" y="562" type="curve" smooth="yes"/>
      <point x="1097" y="244"/>
      <point x="941" y="-25"/>
      <point x="629" y="-25" type="curve" smooth="yes"/>
      <point x="482" y="-25"/>
      <point x="355" y="45"/>
      <point x="288" y="163" type="curve"/>
      <point x="288" y="0" type="line"/>
      <point x="122" y="0" type="line"/>
    </contour>
    <contour>
      <point x="617" y="113" type="curve" smooth="yes"/>
      <point x="853" y="113"/>
      <point x="924" y="351"/>
      <point x="924" y="551" type="curve" smooth="yes"/>
      <point x="924" y="750"/>
      <point x="854" y="986"/>
      <point x="617" y="986" type="curve" smooth="yes"/>
      <point x="385" y="986"/>
      <point x="288" y="809.5"/>
      <point x="288" y="551" type="curve" smooth="yes"/>
      <point x="288" y="314"/>
      <point x="385" y="113"/>
    </contour>
  </outline>
</glyph>
<glyph name="c" format="1">
  <advance width="1040"/>
  <unicode hex="0063"/>
  <outline>
    <contour>
      <point x="644" y="113" type="curve" smooth="yes"/>
      <point x="752" y="113"/>
      <point x="844" y="154"/>
      <point x="911" y="197" type="curve"/>
      <point x="962" y="75" type="line"/>
      <point x="884" y="8"/>
      <point x="754" y="-25"/>
      <point x="636" y="-25" type="curve" smooth="yes"/>
      <point x="271" y="-25"/>
      <point x="96" y="246"/>
      <point x="96" y="554" type="curve" smooth="yes"/>
      <point x="96" y="850"/>
      <point x="277" y="1124"/>
      <point x="633" y="1124" type="curve" smooth="yes"/>
      <point x="772" y="1124"/>
      <point x="893" y="1088"/>
      <point x="961" y="1029" type="curve"/>
      <point x="910" y="904" type="line"/>
      <point x="818" y="960"/>
      <point x="731" y="986"/>
      <point x="643" y="986" type="curve" smooth="yes"/>
      <point x="424" y="986"/>
      <point x="270" y="812"/>
      <point x="270" y="554" type="curve" smooth="yes"/>
      <point x="270" y="292"/>
      <point x="403" y="113"/>
    </contour>
    <contour>
      <point x="520" y="1098" type="move" name="top"/>
    </contour>
    <contour>
      <point x="520" y="0" type="move" name="bottom"/>
    </contour>
  </outline>
</glyph>
<glyph name="e" format="1">
  <advance width="1082"/>
  <unicode hex="0065"/>
  <outline>
    <contour>
      <point x="590" y="-25" type="curve" smooth="yes"/>
      <point x="766" y="-25"/>
      <point x="905" y="30"/>
      <point x="995" y="107" type="curve"/>
      <point x="943" y="229" type="line"/>
      <point x="865" y="176"/>
      <point x="751" y="119"/>
      <point x="595" y="119" type="curve" smooth="yes"/>
      <point x="402" y="119"/>
      <point x="258" y="272"/>
      <point x="258" y="519" type="curve"/>
      <point x="1009" y="519" type="line"/>
      <point x="1009" y="538"/>
      <point x="1011" y="578"/>
      <point x="1011" y="594" type="curve" smooth="yes"/>
      <point x="1011" y="918"/>
      <point x="852" y="1124"/>
      <point x="579" y="1124" type="curve" smooth="yes"/>
      <point x="563" y="1124" type="line"/>
      <point x="277" y="1116"/>
      <point x="86" y="879"/>
      <point x="86" y="551" type="curve" smooth="yes"/>
      <point x="86" y="198"/>
      <point x="277" y="-25"/>
    </contour>
    <contour>
      <point x="569" y="988" type="curve" smooth="yes"/>
      <point x="732" y="988"/>
      <point x="849" y="869"/>
      <point x="849" y="635" type="curve"/>
      <point x="264" y="635" type="line"/>
      <point x="283" y="851"/>
      <point x="403" y="988"/>
    </contour>
    <contour>
      <point x="541" y="1098" type="move" name="top"/>
    </contour>
    <contour>
      <point x="541" y="0" type="move" name="bottom"/>
    </contour>
    <contour>
      <point x="974" y="10" type="move" name="ogonek"/>
    </contour>
  </outline>
</glyph>
<glyph name="f" format="1">
  <advance width="677"/>
  <unicode hex="0066"/>
  <outline>
    <contour>
      <point x="65" y="985" type="line"/>
      <point x="65" y="1098" type="line"/>
      <point x="221" y="1098" type="line"/>
      <point x="221" y="1450.4"/>
      <point x="311" y="1536"/>
      <point x="584" y="1536" type="curve" smooth="yes"/>
      <point x="657" y="1536" type="line"/>
      <point x="677" y="1408" type="line"/>
      <point x="583" y="1408" type="line" smooth="yes"/>
      <point x="399.532" y="1408"/>
      <point x="394" y="1331"/>
      <point x="394" y="1098" type="curve"/>
      <point x="643" y="1098" type="line"/>
      <point x="643" y="985" type="line"/>
      <point x="394" y="985" type="line"/>
      <point x="394" y="0" type="line"/>
      <point x="221" y="0" type="line"/>
      <point x="221" y="985" type="line"/>
    </contour>
  </outline>
</glyph>
<glyph name="g" format="1">
  <advance width="1169"/>
  <unicode hex="0067"/>
  <outline>
    <contour>
      <point x="900" y="597" type="line" smooth="yes"/>
      <point x="900" y="805"/>
      <point x="810" y="982"/>
      <point x="583" y="982" type="curve" smooth="yes"/>
      <point x="347" y="982"/>
      <point x="258" y="744"/>
      <point x="258" y="554" type="curve" smooth="yes"/>
      <point x="258" y="366"/>
      <point x="356" y="143"/>
      <point x="582" y="143" type="curve" smooth="yes"/>
      <point x="817" y="143"/>
      <point x="900" y="319"/>
      <point x="900" y="516" type="curve" smooth="yes"/>
      <point x="900" y="569" type="line"/>
    </contour>
    <contour>
      <point x="349" y="-502" type="line"/>
      <point x="327" y="-351" type="line"/>
      <point x="531" y="-351" type="line" smooth="yes"/>
      <point x="876" y="-351"/>
      <point x="900" y="-193"/>
      <point x="900" y="83" type="curve" smooth="yes"/>
      <point x="900" y="184" type="line"/>
      <point x="828" y="80"/>
      <point x="730" y="1"/>
      <point x="557" y="1" type="curve" smooth="yes"/>
      <point x="234" y="1"/>
      <point x="86" y="294"/>
      <point x="86" y="545" type="curve" smooth="yes"/>
      <point x="86" y="857"/>
      <point x="236" y="1124"/>
      <point x="569" y="1124" type="curve" smooth="yes"/>
      <point x="714" y="1124"/>
      <point x="817" y="1064"/>
      <point x="900" y="951" type="curve"/>
      <point x="900" y="1098" type="line"/>
      <point x="1063" y="1098" type="line"/>
      <point x="1063" y="79" type="line" smooth="yes"/>
      <point x="1063" y="-206"/>
      <point x="1040" y="-502"/>
      <point x="527" y="-502" type="curve" smooth="yes"/>
    </contour>
    <contour>
      <point x="584" y="1098" type="move" name="top"/>
    </contour>
  </outline>
</glyph>
<glyph name="h" format="1">
  <advance width="1115"/>
  <unicode hex="0068"/>
  <outline>
    <contour>
      <point x="283" y="727" type="curve" smooth="no"/>
      <point x="283" y="0" type="line" smooth="no"/>
      <point x="115" y="0" type="line" smooth="no"/>
      <point x="115" y="1510" type="line" smooth="no"/>
      <point x="283" y="1510" type="line" smooth="no"/>
      <point x="283" y="945" type="line" smooth="no"/>
      <point x="379" y="1072"/>
      <point x="509" y="1124"/>
      <point x="676" y="1124" type="curve" smooth="yes"/>
      <point x="905" y="1124"/>
      <point x="1008" y="965"/>
      <point x="1008" y="677" type="curve" smooth="yes"/>
      <point x="1008" y="0" type="line" smooth="no"/>
      <point x="842" y="0" type="line" smooth="no"/>
      <point x="842" y="600" type="line" smooth="yes"/>
      <point x="842" y="848"/>
      <point x="807" y="971"/>
      <point x="620" y="971" type="curve" smooth="yes"/>
      <point x="449" y="971"/>
      <point x="310" y="831"/>
    </contour>
  </outline>
</glyph>
<glyph name="i" format="1">
  <advance width="440"/>
  <unicode hex="0069"/>
  <outline>
    <contour>
      <point x="310" y="1098" type="line"/>
      <point x="310" y="0" type="line"/>
      <point x="141" y="0" type="line"/>
      <point x="141" y="1098" type="line"/>
    </contour>
    <contour>
      <point x="310" y="1490" type="line"/>
      <point x="310" y="1292" type="line"/>
      <point x="141" y="1292" type="line"/>
      <point x="141" y="1490" type="line"/>
    </contour>
  </outline>
</glyph>
<glyph name="j" format="1">
  <advance width="475"/>
  <unicode hex="006A"/>
  <outline>
    <contour>
      <point x="343" y="1098" type="line"/>
      <point x="343" y="-139" type="line" smooth="yes"/>
      <point x="343" y="-407"/>
      <point x="191" y="-502"/>
      <point x="-12" y="-502" type="curve"/>
      <point x="-12" y="-351" type="line"/>
      <point x="170" y="-351"/>
      <point x="175" y="-214"/>
      <point x="175" y="-49" type="curve" smooth="yes"/>
      <point x="175" y="-23" type="line"/>
      <point x="175" y="1098" type="line"/>
    </contour>
    <contour>
      <point x="343" y="1490" type="line"/>
      <point x="343" y="1292" type="line"/>
      <point x="175" y="1292" type="line"/>
      <point x="175" y="1490" type="line"/>
    </contour>
  </outline>
</glyph>
<glyph name="k" format="1">
  <advance width="1016"/>
  <unicode hex="006B"/>
  <outline>
    <contour>
      <point x="118" y="1510" type="line"/>
      <point x="288" y="1510" type="line"/>
      <point x="288" y="644" type="line"/>
      <point x="770" y="1098" type="line"/>
      <point x="997" y="1098" type="line"/>
      <point x="523" y="651" type="line"/>
      <point x="1030" y="0" type="line"/>
      <point x="815" y="0" type="line"/>
      <point x="395" y="567" type="line"/>
      <point x="288" y="468" type="line"/>
      <point x="288" y="0" type="line"/>
      <point x="118" y="0" type="line"/>
    </contour>
    <contour>
      <point x="507" y="0" type="move" name="bottom"/>
    </contour>
  </outline>
</glyph>
<glyph name="l" format="1">
  <advance width="565"/>
  <unicode hex="006C"/>
  <outline>
    <contour>
      <point x="135" y="480" type="curve" smooth="yes"/>
      <point x="135" y="1510" type="line"/>
      <point x="306" y="1510" type="line"/>
      <point x="306" y="456" type="line" smooth="yes"/>
      <point x="306" y="212"/>
      <point x="306" y="133"/>
      <point x="440" y="133" type="curve" smooth="yes"/>
      <point x="561" y="133" type="line"/>
      <point x="542" y="-11" type="line"/>
      <point x="460" y="-11" type="line" smooth="yes"/>
      <point x="156" y="-11"/>
      <point x="135" y="90"/>
    </contour>
    <contour>
      <point x="282" y="1098" type="move" name="top"/>
    </contour>
    <contour>
      <point x="282" y="0" type="move" name="bottom"/>
    </contour>
    <contour>
      <point x="550" y="1098" type="move" name="topright"/>
    </contour>
  </outline>
</glyph>
<glyph name="m" format="1">
  <advance width="1779"/>
  <unicode hex="006d"/>
  <outline>
    <contour>
      <point x="1334" y="1124" type="curve" smooth="yes"/>
      <point x="1179" y="1124"/>
      <point x="1051" y="1069"/>
      <point x="954" y="921" type="curve" smooth="no"/>
      <point x="903" y="1068"/>
      <point x="798" y="1124"/>
      <point x="645" y="1124" type="curve" smooth="yes"/>
      <point x="506" y="1124"/>
      <point x="372" y="1063"/>
      <point x="275" y="934" type="curve" smooth="no"/>
      <point x="259" y="1098" type="line" smooth="no"/>
      <point x="115" y="1098" type="line" smooth="no"/>
      <point x="115" y="1066"/>
      <point x="118" y="913"/>
      <point x="118" y="820" type="curve" smooth="yes"/>
      <point x="118" y="0" type="line" smooth="no"/>
      <point x="286" y="0" type="line" smooth="no"/>
      <point x="286" y="749" type="line" smooth="no"/>
      <point x="322" y="861"/>
      <point x="454" y="979"/>
      <point x="625" y="979" type="curve" smooth="yes"/>
      <point x="791" y="979"/>
      <point x="829" y="832"/>
      <point x="829" y="608" type="curve" smooth="yes"/>
      <point x="829" y="0" type="line" smooth="no"/>
      <point x="997" y="0" type="line" smooth="no"/>
      <point x="997" y="731" type="line" smooth="no"/>
      <point x="1048" y="879"/>
      <point x="1168" y="979"/>
      <point x="1307" y="979" type="curve" smooth="yes"/>
      <point x="1494" y="979"/>
      <point x="1504" y="820"/>
      <point x="1504" y="573" type="curve" smooth="yes"/>
      <point x="1504" y="0" type="line" smooth="no"/>
      <point x="1672" y="0" type="line" smooth="no"/>
      <point x="1672" y="697" type="line" smooth="yes"/>
      <point x="1672" y="954"/>
      <point x="1582" y="1124"/>
    </contour>
  </outline>
</glyph>
<glyph name="n" format="1">
  <advance width="1118"/>
  <unicode hex="006e"/>
  <outline>
    <contour>
      <point x="665" y="1124" type="curve" smooth="yes"/>
      <point x="906" y="1124"/>
      <point x="1011" y="965"/>
      <point x="1011" y="657" type="curve" smooth="yes"/>
      <point x="1011" y="0" type="line" smooth="no"/>
      <point x="843" y="0" type="line" smooth="no"/>
      <point x="843" y="551" type="line" smooth="yes"/>
      <point x="843" y="836"/>
      <point x="832" y="980"/>
      <point x="629" y="980" type="curve" smooth="yes"/>
      <point x="445" y="980"/>
      <point x="313" y="849"/>
      <point x="286" y="750" type="curve" smooth="no"/>
      <point x="286" y="0" type="line" smooth="no"/>
      <point x="118" y="0" type="line" smooth="no"/>
      <point x="118" y="831" type="line" smooth="no"/>
      <point x="115" y="1098" type="line" smooth="no"/>
      <point x="259" y="1098" type="line" smooth="no"/>
      <point x="275" y="935" type="line" smooth="no"/>
      <point x="360" y="1052"/>
      <point x="513" y="1124"/>
    </contour>
  </outline>
</glyph>
<glyph name="o" format="1">
  <advance width="1205"/>
  <unicode hex="006F"/>
  <outline>
    <contour>
      <point x="1115" y="549" type="curve" smooth="yes"/>
      <point x="1115" y="245"/>
      <point x="936" y="-25"/>
      <point x="607" y="-25" type="curve" smooth="yes"/>
      <point x="275" y="-25"/>
      <point x="90" y="232"/>
      <point x="90" y="547" type="curve" smooth="yes"/>
      <point x="90" y="861"/>
      <point x="278" y="1124"/>
      <point x="610" y="1124" type="curve" smooth="yes"/>
      <point x="946" y="1124"/>
      <point x="1115" y="865"/>
    </contour>
    <contour>
      <point x="941" y="547" type="curve" smooth="yes"/>
      <point x="941" y="780"/>
      <point x="854" y="986"/>
      <point x="607" y="986" type="curve" smooth="yes"/>
      <point x="371" y="986"/>
      <point x="263" y="768"/>
      <point x="263" y="544" type="curve" smooth="yes"/>
      <point x="263" y="323"/>
      <point x="370" y="113"/>
      <point x="610" y="113" type="curve" smooth="yes"/>
      <point x="847" y="113"/>
      <point x="941" y="323"/>
    </contour>
    <contour>
      <point x="603" y="1098" type="move" name="top"/>
    </contour>
  </outline>
</glyph>
<glyph name="p" format="1">
  <advance width="1176"/>
  <unicode hex="0070"/>
  <outline>
    <contour>
      <point x="131" y="-459" type="line"/>
      <point x="131" y="1099" type="line"/>
      <point x="290" y="1099" type="line"/>
      <point x="300" y="951" type="line"/>
      <point x="384" y="1064"/>
      <point x="494" y="1124"/>
      <point x="639" y="1124" type="curve" smooth="yes"/>
      <point x="963" y="1124"/>
      <point x="1099" y="854"/>
      <point x="1099" y="537" type="curve" smooth="yes"/>
      <point x="1099" y="240"/>
      <point x="925.5" y="-25"/>
      <point x="639" y="-25" type="curve" smooth="yes"/>
      <point x="499" y="-25"/>
      <point x="376" y="33"/>
      <point x="300" y="160" type="curve"/>
      <point x="300" y="-437" type="line"/>
    </contour>
    <contour>
      <point x="297" y="548" type="curve" smooth="yes"/>
      <point x="297" y="313"/>
      <point x="385" y="118"/>
      <point x="614" y="118" type="curve" smooth="yes"/>
      <point x="844" y="118"/>
      <point x="926" y="349"/>
      <point x="926" y="548" type="curve" smooth="yes"/>
      <point x="926" y="747"/>
      <point x="844" y="982"/>
      <point x="614" y="982" type="curve" smooth="yes"/>
      <point x="385" y="982"/>
      <point x="297" y="785"/>
    </contour>
  </outline>
</glyph>
<glyph name="q" format="1">
  <advance width="1193"/>
  <unicode hex="0071"/>
  <outline>
    <contour>
      <point x="1071" y="-439" type="line"/>
      <point x="902" y="-459" type="line"/>
      <point x="902" y="171" type="line"/>
      <point x="832" y="48"/>
      <point x="706" y="-28"/>
      <point x="549" y="-25" type="curve" smooth="yes"/>
      <point x="251" y="-20"/>
      <point x="96" y="246"/>
      <point x="96" y="538" type="curve" smooth="yes"/>
      <point x="96" y="855"/>
      <point x="249" y="1124"/>
      <point x="570" y="1124" type="curve" smooth="yes"/>
      <point x="723" y="1124"/>
      <point x="834" y="1049"/>
      <point x="905" y="938" type="curve"/>
      <point x="905" y="1098" type="line"/>
      <point x="1071" y="1098" type="line"/>
      <point x="1071" y="816" type="line"/>
    </contour>
    <contour>
      <point x="905" y="551" type="curve" smooth="yes"/>
      <point x="905" y="783"/>
      <point x="809" y="976"/>
      <point x="577" y="976" type="curve" smooth="yes"/>
      <point x="341" y="976"/>
      <point x="269" y="748"/>
      <point x="269" y="551" type="curve" smooth="yes"/>
      <point x="269" y="346"/>
      <point x="342" y="123"/>
      <point x="578" y="123" type="curve" smooth="yes"/>
      <point x="812" y="123"/>
      <point x="905" y="317"/>
    </contour>
  </outline>
</glyph>
<glyph name="r" format="1">
  <advance width="652"/>
  <unicode hex="0072"/>
  <outline>
    <contour>
      <point x="645" y="1098" type="line"/>
      <point x="661" y="945" type="line"/>
      <point x="600" y="945" type="line" smooth="yes"/>
      <point x="395" y="945"/>
      <point x="292" y="808"/>
      <point x="292" y="644" type="curve" smooth="yes"/>
      <point x="292" y="0" type="line"/>
      <point x="122" y="0" type="line"/>
      <point x="122" y="845" type="line" smooth="yes"/>
      <point x="122" y="932"/>
      <point x="119" y="1015"/>
      <point x="119" y="1098" type="curve"/>
      <point x="263" y="1098" type="line"/>
      <point x="276" y="908" type="line"/>
      <point x="353" y="1049"/>
      <point x="467" y="1098"/>
      <point x="596" y="1098" type="curve" smooth="yes"/>
    </contour>
    <contour>
      <point x="328" y="1098" type="move" name="top"/>
    </contour>
    <contour>
      <point x="328" y="0" type="move" name="bottom"/>
    </contour>
  </outline>
</glyph>
<glyph name="s" format="1">
  <advance width="889"/>
  <unicode hex="0073"/>
  <outline>
    <contour>
      <point x="115.956" y="210" type="line"/>
      <point x="182.956" y="166.277"/>
      <point x="301" y="114"/>
      <point x="439" y="114" type="curve" smooth="yes"/>
      <point x="584" y="114"/>
      <point x="659" y="183"/>
      <point x="659" y="300" type="curve" smooth="yes"/>
      <point x="659" y="370"/>
      <point x="639" y="436"/>
      <point x="509" y="470" type="curve" smooth="yes"/>
      <point x="362" y="509" type="line" smooth="yes"/>
      <point x="143" y="567"/>
      <point x="82.9561" y="681"/>
      <point x="82.9561" y="815" type="curve" smooth="yes"/>
      <point x="82.9561" y="969.559"/>
      <point x="206.036" y="1124.12"/>
      <point x="444.564" y="1124.12" type="curve" smooth="yes"/>
      <point x="589.286" y="1124.12"/>
      <point x="690.962" y="1091.66"/>
      <point x="772.956" y="1047" type="curve"/>
      <point x="725.956" y="922" type="line"/>
      <point x="666.456" y="946.633"/>
      <point x="575" y="991"/>
      <point x="455" y="991" type="curve" smooth="yes"/>
      <point x="336" y="991"/>
      <point x="247" y="926"/>
      <point x="247" y="812" type="curve" smooth="yes"/>
      <point x="247" y="745"/>
      <point x="287" y="694"/>
      <point x="406" y="662" type="curve" smooth="yes"/>
      <point x="553" y="623" type="line" smooth="yes"/>
      <point x="718" y="579"/>
      <point x="822" y="481"/>
      <point x="822" y="296" type="curve" smooth="yes"/>
      <point x="822" y="88"/>
      <point x="672.871" y="-25"/>
      <point x="462.956" y="-25" type="curve" smooth="yes"/>
      <point x="293.956" y="-25"/>
      <point x="151.956" y="10.7196"/>
      <point x="71.9561" y="73" type="curve"/>
    </contour>
    <contour>
      <point x="452" y="1098" type="move" name="top"/>
    </contour>
    <contour>
      <point x="452" y="0" type="move" name="bottom"/>
    </contour>
  </outline>
</glyph>
<glyph name="t" format="1">
  <advance width="695"/>
  <unicode hex="0074"/>
  <outline>
    <contour>
      <point x="10" y="973" type="line"/>
      <point x="10" y="1098" type="line"/>
      <point x="181" y="1098" type="line"/>
      <point x="226" y="1462" type="line"/>
      <point x="350" y="1462" type="line"/>
      <point x="350" y="1098" type="line"/>
      <point x="641" y="1098" type="line"/>
      <point x="641" y="973" type="line"/>
      <point x="350" y="973" type="line"/>
      <point x="350" y="409" type="line" smooth="yes"/>
      <point x="350" y="178"/>
      <point x="352" y="133"/>
      <point x="563" y="133" type="curve" smooth="yes"/>
      <point x="644" y="133" type="line"/>
      <point x="618" y="-11" type="line"/>
      <point x="583" y="-11" type="line" smooth="yes"/>
      <point x="182" y="-11"/>
      <point x="181" y="90"/>
      <point x="181" y="463" type="curve" smooth="yes"/>
      <point x="181" y="973" type="line"/>
    </contour>
    <contour>
      <point x="346" y="0" type="line" smooth="yes"/>
    </contour>
    <contour>
      <point x="346" y="549" type="line" smooth="yes"/>
    </contour>
    <contour>
      <point x="336" y="0" type="move" name="bottom"/>
    </contour>
    <contour>
      <point x="336" y="549" type="move" name="center"/>
    </contour>
  </outline>
</glyph>
<glyph name="u" format="1">
  <advance width="1101"/>
  <unicode hex="0075"/>
  <outline>
    <contour>
      <point x="552" y="-25" type="curve" smooth="yes"/>
      <point x="320" y="-25"/>
      <point x="108" y="80.0694"/>
      <point x="108" y="366" type="curve" smooth="yes"/>
      <point x="108" y="1098" type="line"/>
      <point x="279" y="1098" type="line"/>
      <point x="279" y="364" type="line" smooth="yes"/>
      <point x="279" y="167.245"/>
      <point x="393.9" y="113"/>
      <point x="552" y="113" type="curve" smooth="yes"/>
      <point x="707.9" y="113"/>
      <point x="824" y="169.084"/>
      <point x="824" y="364" type="curve" smooth="yes"/>
      <point x="824" y="1098" type="line"/>
      <point x="993" y="1098" type="line"/>
      <point x="993" y="366" type="line" smooth="yes"/>
      <point x="993" y="78.1241"/>
      <point x="784" y="-25"/>
    </contour>
    <contour>
      <point x="551" y="1098" type="move" name="top"/>
    </contour>
    <contour>
      <point x="991" y="10" type="move" name="ogonek"/>
    </contour>
  </outline>
</glyph>
<glyph name="v" format="1">
  <advance width="1017"/>
  <unicode hex="0076"/>
  <outline>
    <contour>
      <point x="415" y="0" type="line"/>
      <point x="7" y="1098" type="line"/>
      <point x="193" y="1098" type="line"/>
      <point x="422" y="448" type="line"/>
      <point x="507" y="187" type="line"/>
      <point x="592" y="448" type="line"/>
      <point x="825" y="1098" type="line"/>
      <point x="1010" y="1098" type="line"/>
      <point x="584" y="0" type="line"/>
    </contour>
  </outline>
</glyph>
<glyph name="w" format="1">
  <advance width="1555"/>
  <unicode hex="0077"/>
  <outline>
    <contour>
      <point x="12" y="1098" type="line"/>
      <point x="195" y="1098" type="line"/>
      <point x="415" y="218" type="line"/>
      <point x="685" y="1098" type="line"/>
      <point x="889" y="1098" type="line"/>
      <point x="1145" y="222" type="line"/>
      <point x="1362" y="1098" type="line"/>
      <point x="1543" y="1098" type="line"/>
      <point x="1221" y="0" type="line"/>
      <point x="1055" y="0" type="line"/>
      <point x="783" y="925" type="line"/>
      <point x="493" y="0" type="line"/>
      <point x="324" y="0" type="line"/>
    </contour>
    <contour>
      <point x="773" y="1098" type="move" name="top"/>
    </contour>
  </outline>
</glyph>
<glyph name="x" format="1">
  <advance width="1003"/>
  <unicode hex="0078"/>
  <outline>
    <contour>
      <point x="798" y="1098" type="line" smooth="no"/>
      <point x="993" y="1098" type="line" smooth="no"/>
      <point x="605" y="552" type="line" smooth="no"/>
      <point x="993" y="0" type="line" smooth="no"/>
      <point x="811" y="0" type="line" smooth="no"/>
      <point x="507" y="439" type="line" smooth="no"/>
      <point x="204" y="0" type="line" smooth="no"/>
      <point x="11" y="0" type="line" smooth="no"/>
      <point x="407" y="556" type="line" smooth="no"/>
      <point x="21" y="1098" type="line" smooth="no"/>
      <point x="214" y="1098" type="line" smooth="no"/>
      <point x="505" y="682" type="line" smooth="no"/>
    </contour>
  </outline>
</glyph>
<glyph name="y" format="1">
  <advance width="1033"/>
  <unicode hex="0079"/>
  <outline>
    <contour>
      <point x="536" y="201" type="curve"/>
      <point x="635.08" y="487.645"/>
      <point x="748.078" y="800.288"/>
      <point x="856" y="1098" type="curve"/>
      <point x="1033" y="1098" type="line"/>
      <point x="590" y="-95" type="line" smooth="yes"/>
      <point x="492.302" y="-361.423"/>
      <point x="460.3" y="-501.802"/>
      <point x="132.3" y="-501.802" type="curve" smooth="yes"/>
      <point x="101" y="-351" type="line"/>
      <point x="357" y="-351"/>
      <point x="364" y="-286"/>
      <point x="443" y="28" type="curve"/>
      <point x="-14" y="1098" type="line"/>
      <point x="162" y="1098" type="line"/>
      <point x="288.037" y="800.357"/>
      <point x="424.074" y="496.514"/>
    </contour>
    <contour>
      <point x="515" y="1098" type="move" name="top"/>
    </contour>
  </outline>
</glyph>
<glyph name="z" format="1">
  <advance width="925"/>
  <unicode hex="007A"/>
  <outline>
    <contour>
      <point x="623" y="964" type="line"/>
      <point x="115" y="964" type="line"/>
      <point x="115" y="1098" type="line"/>
      <point x="821" y="1098" type="line"/>
      <point x="821" y="964" type="line"/>
      <point x="302" y="136" type="line"/>
      <point x="839" y="136" type="line"/>
      <point x="839" y="0" type="line"/>
      <point x="108" y="0" type="line"/>
      <point x="108" y="139" type="line"/>
    </contour>
    <contour>
      <point x="463" y="1098" type="move" name="top"/>
    </contour>
  </outline>
</glyph>
<glyph name="braceleft" format="1">
  <advance width="670"/>
  <unicode hex="007b"/>
  <outline>
    <contour>
      <point x="286" y="689" type="curve" smooth="no"/>
      <point x="406" y="630"/>
      <point x="433" y="486"/>
      <point x="433" y="390" type="curve" smooth="yes"/>
      <point x="433" y="156" type="line" smooth="yes"/>
      <point x="433" y="-45"/>
      <point x="435" y="-101"/>
      <point x="578" y="-101" type="curve" smooth="no"/>
      <point x="578" y="-238" type="line" smooth="no"/>
      <point x="362" y="-238"/>
      <point x="272" y="-155"/>
      <point x="272" y="53" type="curve" smooth="yes"/>
      <point x="272" y="335" type="line" smooth="yes"/>
      <point x="272" y="465"/>
      <point x="267" y="614"/>
      <point x="149" y="614" type="curve" smooth="yes"/>
      <point x="89" y="614" type="line" smooth="no"/>
      <point x="89" y="764" type="line" smooth="no"/>
      <point x="149" y="764" type="line" smooth="yes"/>
      <point x="267" y="764"/>
      <point x="272" y="913"/>
      <point x="272" y="1043" type="curve" smooth="yes"/>
      <point x="272" y="1326" type="line" smooth="yes"/>
      <point x="272" y="1534"/>
      <point x="362" y="1616"/>
      <point x="578" y="1616" type="curve" smooth="no"/>
      <point x="578" y="1479" type="line" smooth="no"/>
      <point x="435" y="1479"/>
      <point x="433" y="1424"/>
      <point x="433" y="1223" type="curve" smooth="yes"/>
      <point x="433" y="988" type="line" smooth="yes"/>
      <point x="433" y="892"/>
      <point x="406" y="748"/>
    </contour>
  </outline>
</glyph>
<glyph name="bar" format="1">
  <advance width="470"/>
  <unicode hex="007c"/>
  <outline>
    <contour>
      <point x="310" y="1603" type="line" smooth="no"/>
      <point x="310" y="-303" type="line" smooth="no"/>
      <point x="160" y="-303" type="line" smooth="no"/>
      <point x="160" y="1603" type="line" smooth="no"/>
    </contour>
  </outline>
</glyph>
<glyph name="exclamdown" format="1">
  <advance width="497"/>
  <unicode hex="00a1"/>
  <outline>
    <contour>
      <point x="152" y="953" type="line" smooth="no"/>
      <point x="152" y="1174" type="line" smooth="no"/>
      <point x="341" y="1174" type="line" smooth="no"/>
      <point x="341" y="953" type="line" smooth="no"/>
    </contour>
    <contour>
      <point x="332" y="747" type="line" smooth="no"/>
      <point x="332" y="-415" type="line" smooth="no"/>
      <point x="196" y="-415" type="line" smooth="no"/>
      <point x="196" y="747" type="line" smooth="no"/>
    </contour>
  </outline>
</glyph>
<glyph name="sterling" format="1">
  <advance width="1093"/>
  <unicode hex="00a3"/>
  <outline>
    <contour>
      <point x="97" y="707" type="line" smooth="no"/>
      <point x="97" y="849" type="line" smooth="no"/>
      <point x="271" y="849" type="line" smooth="no"/>
      <point x="271" y="976" type="line" smooth="yes"/>
      <point x="271" y="1286"/>
      <point x="320" y="1586"/>
      <point x="710" y="1586" type="curve" smooth="yes"/>
      <point x="883" y="1586"/>
      <point x="988" y="1506"/>
      <point x="1052" y="1400" type="curve" smooth="no"/>
      <point x="969" y="1292" type="line" smooth="no"/>
      <point x="897" y="1375"/>
      <point x="822" y="1422"/>
      <point x="710" y="1422" type="curve" smooth="yes"/>
      <point x="514" y="1422"/>
      <point x="431" y="1283"/>
      <point x="431" y="1069" type="curve" smooth="yes"/>
      <point x="431" y="849" type="line" smooth="no"/>
      <point x="845" y="849" type="line" smooth="no"/>
      <point x="845" y="707" type="line" smooth="no"/>
      <point x="431" y="707" type="line" smooth="no"/>
      <point x="431" y="530" type="line" smooth="yes"/>
      <point x="431" y="390"/>
      <point x="422" y="240"/>
      <point x="336" y="152" type="curve" smooth="no"/>
      <point x="368" y="156"/>
      <point x="399" y="162"/>
      <point x="431" y="162" type="curve" smooth="yes"/>
      <point x="1045" y="162" type="line" smooth="no"/>
      <point x="1045" y="0" type="line" smooth="no"/>
      <point x="129" y="0" type="line" smooth="no"/>
      <point x="107" y="137" type="line" smooth="no"/>
      <point x="243" y="209"/>
      <point x="271" y="311"/>
      <point x="271" y="467" type="curve" smooth="yes"/>
      <point x="271" y="707" type="line" smooth="no"/>
    </contour>
  </outline>
</glyph>
<glyph name="currency" format="1">
  <advance width="1023"/>
  <unicode hex="00a4"/>
  <outline>
    <contour>
      <point x="516" y="1132" type="curve" smooth="yes"/>
      <point x="561" y="1132"/>
      <point x="602" y="1125"/>
      <point x="645" y="1114" type="curve" smooth="no"/>
      <point x="752" y="1400" type="line" smooth="no"/>
      <point x="795" y="1383" type="line" smooth="no"/>
      <point x="688" y="1096" type="line" smooth="no"/>
      <point x="827" y="1026"/>
      <point x="887" y="890"/>
      <point x="887" y="714" type="curve" smooth="yes"/>
      <point x="887" y="571"/>
      <point x="839" y="433"/>
      <point x="740" y="361" type="curve" smooth="no"/>
      <point x="883" y="59" type="line" smooth="no"/>
      <point x="851" y="44" type="line" smooth="no"/>
      <point x="703" y="339" type="line" smooth="no"/>
      <point x="646" y="308"/>
      <point x="585" y="294"/>
      <point x="510" y="294" type="curve" smooth="yes"/>
      <point x="467" y="294"/>
      <point x="430" y="302"/>
      <point x="395" y="310" type="curve" smooth="no"/>
      <point x="295" y="44" type="line" smooth="no"/>
      <point x="258" y="59" type="line" smooth="no"/>
      <point x="354" y="324" type="line" smooth="no"/>
      <point x="206" y="382"/>
      <point x="139" y="533"/>
      <point x="139" y="709" type="curve" smooth="yes"/>
      <point x="139" y="871"/>
      <point x="194" y="1013"/>
      <point x="314" y="1082" type="curve" smooth="no"/>
      <point x="168" y="1383" type="line" smooth="no"/>
      <point x="203" y="1400" type="line" smooth="no"/>
      <point x="354" y="1102" type="line" smooth="no"/>
      <point x="401" y="1121"/>
      <point x="456" y="1132"/>
    </contour>
    <contour>
      <point x="804" y="709" type="curve" smooth="yes"/>
      <point x="804" y="893"/>
      <point x="713" y="1055"/>
      <point x="510" y="1055" type="curve" smooth="yes"/>
      <point x="320" y="1055"/>
      <point x="219" y="888"/>
      <point x="219" y="709" type="curve" smooth="yes"/>
      <point x="219" y="529"/>
      <point x="320" y="371"/>
      <point x="516" y="371" type="curve" smooth="yes"/>
      <point x="711" y="371"/>
      <point x="804" y="531"/>
    </contour>
  </outline>
</glyph>
<glyph name="yen" format="1">
  <advance width="1099"/>
  <unicode hex="00a5"/>
  <outline>
    <contour>
      <point x="625" y="330" type="line" smooth="no"/>
      <point x="625" y="0" type="line" smooth="no"/>
      <point x="473" y="0" type="line" smooth="no"/>
      <point x="473" y="330" type="line" smooth="no"/>
      <point x="82" y="330" type="line" smooth="no"/>
      <point x="82" y="452" type="line" smooth="no"/>
      <point x="472" y="452" type="line" smooth="no"/>
      <point x="472" y="646" type="line" smooth="no"/>
      <point x="85" y="646" type="line" smooth="no"/>
      <point x="85" y="767" type="line" smooth="no"/>
      <point x="436" y="767" type="line" smooth="no"/>
      <point x="19" y="1496" type="line" smooth="no"/>
      <point x="198" y="1496" type="line" smooth="no"/>
      <point x="550" y="875" type="line" smooth="no"/>
      <point x="910" y="1496" type="line" smooth="no"/>
      <point x="1080" y="1496" type="line" smooth="no"/>
      <point x="650" y="767" type="line" smooth="no"/>
      <point x="999" y="767" type="line" smooth="no"/>
      <point x="999" y="646" type="line" smooth="no"/>
      <point x="624" y="646" type="line" smooth="no"/>
      <point x="624" y="452" type="line" smooth="no"/>
      <point x="1002" y="452" type="line" smooth="no"/>
      <point x="1002" y="330" type="line" smooth="no"/>
    </contour>
  </outline>
</glyph>
<glyph name="brokenbar" format="1">
  <advance width="449"/>
  <unicode hex="00a6"/>
  <outline>
    <contour>
      <point x="301" y="1603" type="line" smooth="no"/>
      <point x="301" y="964" type="line" smooth="no"/>
      <point x="151" y="964" type="line" smooth="no"/>
      <point x="151" y="1603" type="line" smooth="no"/>
    </contour>
    <contour>
      <point x="301" y="339" type="line" smooth="no"/>
      <point x="301" y="-301" type="line" smooth="no"/>
      <point x="151" y="-301" type="line" smooth="no"/>
      <point x="151" y="339" type="line" smooth="no"/>
    </contour>
  </outline>
</glyph>
<glyph name="dieresis" format="1">
  <advance width="770"/>
  <unicode hex="00a8"/>
  <outline>
    <contour>
      <point x="391" y="1098" type="line" smooth="no"/>
    </contour>
    <contour>
      <point x="663" y="1254" type="line" smooth="no"/>
      <point x="508" y="1254" type="line" smooth="no"/>
      <point x="508" y="1466" type="line" smooth="no"/>
      <point x="663" y="1466" type="line" smooth="no"/>
    </contour>
    <contour>
      <point x="272" y="1254" type="line" smooth="no"/>
      <point x="118" y="1254" type="line" smooth="no"/>
      <point x="118" y="1466" type="line" smooth="no"/>
      <point x="272" y="1466" type="line" smooth="no"/>
    </contour>
    <contour>
      <point x="390.5" y="1098" type="line" smooth="no"/>
    </contour>
    <contour>
      <point x="390.5" y="1098" type="line" smooth="no"/>
    </contour>
    <contour>
      <point x="390.5" y="1098" type="move" smooth="yes"/>
    </contour>
  </outline>
</glyph>
<glyph name="copyright" format="1">
  <advance width="1841"/>
  <unicode hex="00A9"/>
  <outline>
    <contour>
      <point x="1317.0" y="-26.0"/>
      <point x="1701.0" y="242.0"/>
      <point x="1701.0" y="781.0" type="curve" smooth="yes"/>
      <point x="1701.0" y="1316.0"/>
      <point x="1312.0" y="1586.0"/>
      <point x="897.0" y="1586.0" type="curve" smooth="yes"/>
      <point x="505.0" y="1586.0"/>
      <point x="117.0" y="1318.0"/>
      <point x="117.0" y="781.0" type="curve" smooth="yes"/>
      <point x="117.0" y="242.0"/>
      <point x="510.0" y="-26.0"/>
      <point x="902.0" y="-26.0" type="curve" smooth="yes"/>
    </contour>
    <contour>
      <point x="1588.0" y="387.0"/>
      <point x="1353.0" y="67.0"/>
      <point x="902.0" y="67.0" type="curve" smooth="yes"/>
      <point x="469.0" y="67.0"/>
      <point x="230.0" y="389.0"/>
      <point x="230.0" y="783.0" type="curve" smooth="yes"/>
      <point x="230.0" y="1169.0"/>
      <point x="468.0" y="1493.0"/>
      <point x="897.0" y="1493.0" type="curve" smooth="yes"/>
      <point x="1350.0" y="1493.0"/>
      <point x="1588.0" y="1168.0"/>
      <point x="1588.0" y="778.0" type="curve" smooth="yes"/>
    </contour>
    <contour>
      <point x="1191.0" y="459.0" type="curve"/>
      <point x="1230.0" y="352.0" type="line"/>
      <point x="1160.0" y="307.0"/>
      <point x="1033.0" y="270.0"/>
      <point x="909.0" y="270.0" type="curve" smooth="yes"/>
      <point x="633.0" y="270.0"/>
      <point x="434.0" y="489.0"/>
      <point x="434.0" y="785.0" type="curve" smooth="yes"/>
      <point x="434.0" y="1081.0"/>
      <point x="626.0" y="1301.0"/>
      <point x="919.0" y="1301.0" type="curve" smooth="yes"/>
      <point x="1039.0" y="1301.0"/>
      <point x="1145.0" y="1268.0"/>
      <point x="1227.0" y="1211.0" type="curve"/>
      <point x="1227.0" y="1211.0"/>
      <point x="1167.0" y="1114.0"/>
      <point x="1167.0" y="1114.0" type="curve"/>
      <point x="1105.0" y="1158.0"/>
      <point x="1003.0" y="1182.0"/>
      <point x="910.0" y="1182.0" type="curve" smooth="yes"/>
      <point x="676.0" y="1182.0"/>
      <point x="570.0" y="997.0"/>
      <point x="570.0" y="789.0" type="curve" smooth="yes"/>
      <point x="570.0" y="564.0"/>
      <point x="682.0" y="387.0"/>
      <point x="929.0" y="387.0" type="curve" smooth="yes"/>
      <point x="1021.0" y="387.0"/>
      <point x="1135.0" y="420.0"/>
    </contour>
  </outline>
</glyph>
<glyph name="guillemotleft" format="1">
  <advance width="983"/>
  <unicode hex="00ab"/>
  <outline>
    <contour>
      <point x="119" y="583" type="line" smooth="no"/>
      <point x="363" y="982" type="line" smooth="no"/>
      <point x="529" y="982" type="line" smooth="no"/>
      <point x="270" y="583" type="line" smooth="no"/>
      <point x="520" y="182" type="line" smooth="no"/>
      <point x="357" y="182" type="line" smooth="no"/>
    </contour>
    <contour>
      <point x="462" y="583" type="line" smooth="no"/>
      <point x="726" y="982" type="line" smooth="no"/>
      <point x="864" y="982" type="line" smooth="no"/>
      <point x="633" y="583" type="line" smooth="no"/>
      <point x="858" y="182" type="line" smooth="no"/>
      <point x="722" y="182" type="line" smooth="no"/>
    </contour>
  </outline>
</glyph>
<glyph name="logicalnot" format="1">
  <advance width="1280"/>
  <unicode hex="00ac"/>
  <outline>
    <contour>
      <point x="1136" y="256" type="line" smooth="no"/>
      <point x="1003" y="256" type="line" smooth="no"/>
      <point x="1003" y="709" type="line" smooth="no"/>
      <point x="115" y="709" type="line" smooth="no"/>
      <point x="115" y="860" type="line" smooth="no"/>
      <point x="1136" y="860" type="line" smooth="no"/>
    </contour>
  </outline>
</glyph>
<glyph name="registered" format="1">
  <advance width="1824"/>
  <unicode hex="00AE"/>
  <outline>
    <contour>
      <point x="1317" y="-26"/>
      <point x="1701" y="242"/>
      <point x="1701" y="781" type="curve" smooth="yes"/>
      <point x="1701" y="1316"/>
      <point x="1312" y="1586"/>
      <point x="897" y="1586" type="curve" smooth="yes"/>
      <point x="505" y="1586"/>
      <point x="117" y="1318"/>
      <point x="117" y="781" type="curve" smooth="yes"/>
      <point x="117" y="242"/>
      <point x="510" y="-26"/>
      <point x="902" y="-26" type="curve" smooth="yes"/>
    </contour>
    <contour>
      <point x="1588" y="387"/>
      <point x="1353" y="67"/>
      <point x="902" y="67" type="curve" smooth="yes"/>
      <point x="469" y="67"/>
      <point x="230" y="389"/>
      <point x="230" y="783" type="curve" smooth="yes"/>
      <point x="230" y="1169"/>
      <point x="468" y="1493"/>
      <point x="897" y="1493" type="curve" smooth="yes"/>
      <point x="1350" y="1493"/>
      <point x="1588" y="1168"/>
      <point x="1588" y="778" type="curve" smooth="yes"/>
    </contour>
    <contour>
      <point x="1141" y="871"/>
      <point x="1041" y="843"/>
      <point x="857" y="843" type="curve" smooth="yes"/>
      <point x="731" y="843" type="line"/>
      <point x="731" y="1149" type="line"/>
      <point x="847" y="1149" type="line" smooth="yes"/>
      <point x="1055" y="1149"/>
      <point x="1141" y="1131"/>
      <point x="1141" y="999" type="curve" smooth="yes"/>
    </contour>
    <contour>
      <point x="914" y="716" type="line"/>
      <point x="961" y="680"/>
      <point x="995" y="618"/>
      <point x="1046" y="525" type="curve" smooth="yes"/>
      <point x="1171" y="301" type="line"/>
      <point x="1320" y="301" type="line"/>
      <point x="1181" y="531"/>
      <point x="1132" y="662"/>
      <point x="1040" y="735" type="curve"/>
      <point x="1237" y="759"/>
      <point x="1300" y="877"/>
      <point x="1300" y="1007" type="curve" smooth="yes"/>
      <point x="1300" y="1184"/>
      <point x="1158" y="1277"/>
      <point x="857" y="1277" type="curve" smooth="yes"/>
      <point x="599" y="1277" type="line"/>
      <point x="599" y="301" type="line"/>
      <point x="731" y="301" type="line"/>
      <point x="731" y="716" type="line"/>
    </contour>
  </outline>
</glyph>
<glyph name="macron" format="1">
  <advance width="770"/>
  <unicode hex="00af"/>
  <outline>
    <contour>
      <point x="387" y="1098" type="line" smooth="no"/>
    </contour>
    <contour>
      <point x="637" y="1275" type="line" smooth="no"/>
      <point x="136" y="1275" type="line" smooth="no"/>
      <point x="136" y="1418" type="line" smooth="no"/>
      <point x="637" y="1418" type="line" smooth="no"/>
    </contour>
    <contour>
      <point x="386.5" y="1098" type="line" smooth="no"/>
    </contour>
    <contour>
      <point x="386.5" y="1098" type="line" smooth="no"/>
    </contour>
    <contour>
      <point x="386.5" y="1098" type="move" smooth="yes"/>
    </contour>
  </outline>
</glyph>
<glyph name="uni00AF" format="1">
  <advance width="1062"/>
  <unicode hex="00af"/>
  <outline>
    <contour>
      <point x="933" y="1625" type="line" smooth="no"/>
      <point x="933" y="1486" type="line" smooth="no"/>
      <point x="133" y="1486" type="line" smooth="no"/>
      <point x="133" y="1625" type="line" smooth="no"/>
    </contour>
  </outline>
</glyph>
<glyph name="plusminus" format="1">
  <advance width="1234"/>
  <unicode hex="00b1"/>
  <outline>
    <contour>
      <point x="1111" y="0" type="line" smooth="no"/>
      <point x="133" y="0" type="line" smooth="no"/>
      <point x="133" y="148" type="line" smooth="no"/>
      <point x="1111" y="148" type="line" smooth="no"/>
    </contour>
    <contour>
      <point x="133" y="789" type="line" smooth="no"/>
      <point x="550" y="789" type="line" smooth="no"/>
      <point x="550" y="1193" type="line" smooth="no"/>
      <point x="683" y="1193" type="line" smooth="no"/>
      <point x="683" y="789" type="line" smooth="no"/>
      <point x="1108" y="789" type="line" smooth="no"/>
      <point x="1108" y="642" type="line" smooth="no"/>
      <point x="687" y="642" type="line" smooth="no"/>
      <point x="687" y="240" type="line" smooth="no"/>
      <point x="553" y="240" type="line" smooth="no"/>
      <point x="553" y="642" type="line" smooth="no"/>
      <point x="133" y="642" type="line" smooth="no"/>
    </contour>
  </outline>
</glyph>
<glyph name="twosuperior" format="1">
  <advance width="763"/>
  <unicode hex="00b2"/>
  <outline>
    <contour>
      <point x="615" y="650" type="line" smooth="no"/>
      <point x="134" y="650" type="line" smooth="no"/>
      <point x="134" y="769" type="line" smooth="no"/>
      <point x="348" y="1010"/>
      <point x="504" y="1183"/>
      <point x="504" y="1303" type="curve" smooth="yes"/>
      <point x="504" y="1376"/>
      <point x="459" y="1424"/>
      <point x="380" y="1424" type="curve" smooth="yes"/>
      <point x="304" y="1424"/>
      <point x="252" y="1371"/>
      <point x="217" y="1282" type="curve" smooth="no"/>
      <point x="143" y="1367" type="line" smooth="no"/>
      <point x="183" y="1484"/>
      <point x="275" y="1551"/>
      <point x="387" y="1551" type="curve" smooth="yes"/>
      <point x="518" y="1551"/>
      <point x="617" y="1454"/>
      <point x="617" y="1305" type="curve" smooth="yes"/>
      <point x="617" y="1122"/>
      <point x="476" y="965"/>
      <point x="297" y="778" type="curve" smooth="no"/>
      <point x="615" y="778" type="line" smooth="no"/>
    </contour>
  </outline>
</glyph>
<glyph name="acute" format="1">
  <advance width="639"/>
  <unicode hex="00B4"/>
  <outline>
    <contour>
      <point x="380" y="1097" type="line"/>
    </contour>
    <contour>
      <point x="567" y="1638" type="line"/>
      <point x="242" y="1250" type="line"/>
      <point x="128" y="1250" type="line"/>
      <point x="314" y="1638" type="line"/>
    </contour>
    <contour>
      <point x="380" y="1097" type="line" smooth="yes"/>
    </contour>
    <contour>
      <point x="380" y="1097" type="move" name="_top"/>
    </contour>
  </outline>
</glyph>
<glyph name="middot" format="1">
  <advance width="468"/>
  <unicode hex="00b7"/>
  <outline>
    <contour>
      <point x="332" y="778" type="line" smooth="no"/>
      <point x="332" y="551" type="line" smooth="no"/>
      <point x="140" y="551" type="line" smooth="no"/>
      <point x="140" y="778" type="line" smooth="no"/>
    </contour>
  </outline>
</glyph>
<glyph name="onesuperior" format="1">
  <advance width="613"/>
  <unicode hex="00b9"/>
  <outline>
    <contour>
      <point x="136" y="1294" type="curve" smooth="no"/>
      <point x="136" y="1436" type="line" smooth="no"/>
      <point x="197" y="1461"/>
      <point x="245" y="1487"/>
      <point x="285" y="1519" type="curve" smooth="no"/>
      <point x="377" y="1538" type="line" smooth="no"/>
      <point x="377" y="775" type="line" smooth="no"/>
      <point x="483" y="775" type="line" smooth="no"/>
      <point x="483" y="650" type="line" smooth="no"/>
      <point x="163" y="650" type="line" smooth="no"/>
      <point x="163" y="778" type="line" smooth="no"/>
      <point x="271" y="778" type="line" smooth="no"/>
      <point x="271" y="1179"/>
      <point x="269" y="1263"/>
      <point x="269" y="1369" type="curve" smooth="no"/>
      <point x="230" y="1344"/>
      <point x="181" y="1317"/>
    </contour>
  </outline>
</glyph>
<glyph name="guillemotright" format="1">
  <advance width="1007"/>
  <unicode hex="00bb"/>
  <outline>
    <contour>
      <point x="895" y="585" type="line" smooth="no"/>
      <point x="653" y="182" type="line" smooth="no"/>
      <point x="491" y="182" type="line" smooth="no"/>
      <point x="744" y="585" type="line" smooth="no"/>
      <point x="501" y="982" type="line" smooth="no"/>
      <point x="659" y="982" type="line" smooth="no"/>
    </contour>
    <contour>
      <point x="528" y="585" type="line" smooth="no"/>
      <point x="263" y="182" type="line" smooth="no"/>
      <point x="124" y="182" type="line" smooth="no"/>
      <point x="356" y="585" type="line" smooth="no"/>
      <point x="129" y="982" type="line" smooth="no"/>
      <point x="266" y="982" type="line" smooth="no"/>
    </contour>
  </outline>
</glyph>
<glyph name="onehalf" format="1">
  <advance width="1591"/>
  <unicode hex="00bd"/>
  <outline>
    <contour>
      <point x="122" y="1294" type="curve" smooth="no"/>
      <point x="122" y="1436" type="line" smooth="no"/>
      <point x="183" y="1461"/>
      <point x="231" y="1487"/>
      <point x="271" y="1519" type="curve" smooth="no"/>
      <point x="363" y="1538" type="line" smooth="no"/>
      <point x="363" y="775" type="line" smooth="no"/>
      <point x="487" y="775" type="line" smooth="no"/>
      <point x="487" y="650" type="line" smooth="no"/>
      <point x="149" y="650" type="line" smooth="no"/>
      <point x="149" y="778" type="line" smooth="no"/>
      <point x="257" y="778" type="line" smooth="no"/>
      <point x="257" y="1179"/>
      <point x="255" y="1263"/>
      <point x="255" y="1369" type="curve" smooth="no"/>
      <point x="216" y="1344"/>
      <point x="167" y="1317"/>
    </contour>
    <contour>
      <point x="1165" y="1547" type="line" smooth="no"/>
      <point x="1319" y="1547" type="line" smooth="no"/>
      <point x="379" y="0" type="line" smooth="no"/>
      <point x="245" y="0" type="line" smooth="no"/>
    </contour>
    <contour>
      <point x="1457" y="-30" type="line" smooth="no"/>
      <point x="934" y="-30" type="line" smooth="no"/>
      <point x="934" y="93" type="line" smooth="no"/>
      <point x="1187" y="333"/>
      <point x="1370" y="508"/>
      <point x="1370" y="627" type="curve" smooth="yes"/>
      <point x="1370" y="700"/>
      <point x="1317" y="745"/>
      <point x="1225" y="745" type="curve" smooth="yes"/>
      <point x="1137" y="745"/>
      <point x="1071" y="693"/>
      <point x="1031" y="604" type="curve" smooth="no"/>
      <point x="943" y="689" type="line" smooth="no"/>
      <point x="991" y="806"/>
      <point x="1098" y="872"/>
      <point x="1230" y="872" type="curve" smooth="yes"/>
      <point x="1381" y="872"/>
      <point x="1483" y="778"/>
      <point x="1483" y="629" type="curve" smooth="yes"/>
      <point x="1483" y="445"/>
      <point x="1316" y="287"/>
      <point x="1123" y="99" type="curve" smooth="no"/>
      <point x="1457" y="99" type="line" smooth="no"/>
    </contour>
  </outline>
</glyph>
<glyph name="questiondown" format="1">
  <advance width="867"/>
  <unicode hex="00bf"/>
  <outline>
    <contour>
      <point x="725" y="207" type="curve" smooth="no"/>
      <point x="767" y="81" type="line" smooth="no"/>
      <point x="680" y="13"/>
      <point x="573" y="-25"/>
      <point x="466" y="-25" type="curve" smooth="yes"/>
      <point x="246" y="-25"/>
      <point x="86" y="91"/>
      <point x="86" y="310" type="curve" smooth="yes"/>
      <point x="86" y="628"/>
      <point x="430" y="660"/>
      <point x="430" y="917" type="curve" smooth="yes"/>
      <point x="430" y="1028" type="line" smooth="no"/>
      <point x="564" y="1028" type="line" smooth="no"/>
      <point x="568" y="963" type="line" smooth="yes"/>
      <point x="571" y="927"/>
      <point x="573" y="883"/>
      <point x="573" y="854" type="curve" smooth="yes"/>
      <point x="573" y="641"/>
      <point x="241" y="566"/>
      <point x="241" y="317" type="curve" smooth="yes"/>
      <point x="241" y="185"/>
      <point x="353" y="121"/>
      <point x="486" y="121" type="curve" smooth="yes"/>
      <point x="606" y="121"/>
      <point x="677" y="177"/>
    </contour>
    <contour>
      <point x="600" y="1464" type="line" smooth="no"/>
      <point x="600" y="1234" type="line" smooth="no"/>
      <point x="380" y="1234" type="line" smooth="no"/>
      <point x="380" y="1464" type="line" smooth="no"/>
    </contour>
  </outline>
</glyph>
<glyph name="AE" format="1">
  <advance width="2092"/>
  <unicode hex="00c6"/>
  <outline>
    <contour>
      <point x="1046" y="1489" type="line" smooth="no"/>
    </contour>
    <contour>
      <point x="1069" y="1409" type="line" smooth="no"/>
      <point x="1017" y="1409" type="line" smooth="no"/>
      <point x="564" y="589" type="line" smooth="no"/>
      <point x="1130" y="589" type="line" smooth="no"/>
    </contour>
    <contour>
      <point x="85" y="0" type="line" smooth="no"/>
      <point x="905" y="1568" type="line" smooth="no"/>
      <point x="1946" y="1568" type="line" smooth="no"/>
      <point x="1946" y="1409" type="line" smooth="no"/>
      <point x="1241" y="1409" type="line" smooth="no"/>
      <point x="1280" y="882" type="line" smooth="no"/>
      <point x="1911" y="882" type="line" smooth="no"/>
      <point x="1911" y="724" type="line" smooth="no"/>
      <point x="1300" y="724" type="line" smooth="no"/>
      <point x="1342" y="158" type="line" smooth="no"/>
      <point x="1966" y="158" type="line" smooth="no"/>
      <point x="1966" y="0" type="line" smooth="no"/>
      <point x="1183" y="0" type="line" smooth="no"/>
      <point x="1152" y="427" type="line" smooth="no"/>
      <point x="480" y="427" type="line" smooth="no"/>
      <point x="258" y="0" type="line" smooth="no"/>
    </contour>
    <contour>
      <point x="1046" y="1489" type="line" smooth="no"/>
    </contour>
    <contour>
      <point x="1046" y="1489" type="line" smooth="no"/>
    </contour>
    <contour>
      <point x="1046" y="1489" type="move" smooth="yes"/>
    </contour>
  </outline>
</glyph>
<glyph name="Eth" format="1">
  <advance width="1635"/>
  <unicode hex="00D0"/>
  <outline>
    <contour>
      <point x="269" y="0" type="line"/>
      <point x="269" y="707" type="line"/>
      <point x="100" y="707" type="line"/>
      <point x="100" y="856" type="line"/>
      <point x="269" y="856" type="line"/>
      <point x="269" y="1568" type="line"/>
      <point x="568" y="1568" type="line" smooth="yes"/>
      <point x="1111" y="1568"/>
      <point x="1499" y="1389"/>
      <point x="1499" y="781" type="curve" smooth="yes"/>
      <point x="1499" y="304"/>
      <point x="1213" y="0"/>
      <point x="677" y="0" type="curve" smooth="yes"/>
    </contour>
    <contour>
      <point x="637" y="707" type="line"/>
      <point x="421" y="707" type="line"/>
      <point x="421" y="158" type="line"/>
      <point x="692" y="158" type="line" smooth="yes"/>
      <point x="1133" y="158"/>
      <point x="1339" y="416"/>
      <point x="1339" y="775" type="curve" smooth="yes"/>
      <point x="1339" y="1247"/>
      <point x="1083" y="1409"/>
      <point x="591" y="1409" type="curve" smooth="yes"/>
      <point x="421" y="1409" type="line"/>
      <point x="421" y="856" type="line"/>
      <point x="637" y="856" type="line"/>
    </contour>
  </outline>
</glyph>
<glyph name="multiply" format="1">
  <advance width="993"/>
  <unicode hex="00d7"/>
  <outline>
    <contour>
      <point x="860" y="915" type="line" smooth="no"/>
      <point x="595" y="598" type="line" smooth="no"/>
      <point x="860" y="278" type="line" smooth="no"/>
      <point x="767" y="166" type="line" smooth="no"/>
      <point x="488" y="486" type="line" smooth="no"/>
      <point x="206" y="166" type="line" smooth="no"/>
      <point x="115" y="276" type="line" smooth="no"/>
      <point x="381" y="598" type="line" smooth="no"/>
      <point x="115" y="917" type="line" smooth="no"/>
      <point x="206" y="1027" type="line" smooth="no"/>
      <point x="488" y="707" type="line" smooth="no"/>
      <point x="767" y="1027" type="line" smooth="no"/>
    </contour>
  </outline>
</glyph>
<glyph name="ae" format="1">
  <advance width="1674.45257893"/>
  <unicode hex="00E6"/>
  <outline>
    <contour>
      <point x="856.452578929" y="112" type="curve"/>
      <point x="936.452578929" y="24"/>
      <point x="1039.45257893" y="-25.0"/>
      <point x="1183.45257893" y="-25.0" type="curve" smooth="yes"/>
      <point x="1359.45257893" y="-25.0"/>
      <point x="1488.45257893" y="38.0"/>
      <point x="1569.45257893" y="108.0" type="curve"/>
      <point x="1517.45257893" y="229.0" type="line"/>
      <point x="1447.45257893" y="180.0"/>
      <point x="1323.45257893" y="119.0"/>
      <point x="1194.45257893" y="119.0" type="curve" smooth="yes"/>
      <point x="981.452578929" y="119.0"/>
      <point x="898.452578929" y="275"/>
      <point x="882.452578929" y="509" type="curve"/>
      <point x="1379.45257893" y="534" type="line"/>
      <point x="1540.45257893" y="542"/>
      <point x="1566.45257893" y="588"/>
      <point x="1566.45257893" y="684" type="curve" smooth="yes"/>
      <point x="1566.45257893" y="909"/>
      <point x="1465.45257893" y="1124.0"/>
      <point x="1192.45257893" y="1124.0" type="curve" smooth="yes"/>
      <point x="1047.45257893" y="1124.0"/>
      <point x="910.452578929" y="1063.0"/>
      <point x="837.452578929" y="932.0" type="curve"/>
      <point x="807.452578929" y="1062.0"/>
      <point x="679.452578929" y="1124.0"/>
      <point x="520.452578929" y="1124.0" type="curve" smooth="yes"/>
      <point x="370.452578929" y="1124.0"/>
      <point x="212.452578929" y="1078.0"/>
      <point x="132.452578929" y="1032.0" type="curve"/>
      <point x="168.452578929" y="894.0" type="line"/>
      <point x="251.452578929" y="938.0"/>
      <point x="387.452578929" y="976.0"/>
      <point x="524.452578929" y="976.0" type="curve" smooth="yes"/>
      <point x="665.452578929" y="976.0"/>
      <point x="714.452578929" y="914.0"/>
      <point x="714.452578929" y="781.0" type="curve" smooth="yes"/>
      <point x="714.452578929" y="616" type="line"/>
      <point x="379.452578929" y="598"/>
      <point x="66.4525789291" y="581"/>
      <point x="80.4525789291" y="281" type="curve" smooth="yes"/>
      <point x="100.452578929" y="-158"/>
      <point x="609.452578929" y="-40"/>
    </contour>
    <contour>
      <point x="1189.45257893" y="984" type="curve" smooth="yes"/>
      <point x="1338.45257893" y="984"/>
      <point x="1404.45257893" y="879"/>
      <point x="1404.45257893" y="644" type="curve"/>
      <point x="888.452578929" y="615" type="line"/>
      <point x="899.452578929" y="821"/>
      <point x="988.452578929" y="984"/>
    </contour>
    <contour>
      <point x="576.889198647" y="138.352112676"/>
      <point x="259.452578929" y="4"/>
      <point x="248.452578929" y="280" type="curve" smooth="yes"/>
      <point x="243.452578929" y="414"/>
      <point x="325.452578929" y="478"/>
      <point x="711.452578929" y="499" type="curve"/>
      <point x="717.452578929" y="386"/>
      <point x="742.452578929" y="290.0"/>
      <point x="787.452578929" y="208.0" type="curve"/>
    </contour>
  </outline>
</glyph>
<glyph name="eth" format="1">
  <advance width="1204"/>
  <unicode hex="00f0"/>
  <outline>
    <contour>
      <point x="569" y="972" type="curve" smooth="yes"/>
      <point x="700" y="972"/>
      <point x="787" y="919"/>
      <point x="844" y="877" type="curve" smooth="no"/>
      <point x="798" y="964"/>
      <point x="700" y="1096"/>
      <point x="541" y="1257" type="curve" smooth="no"/>
      <point x="269" y="1145" type="line" smooth="no"/>
      <point x="226" y="1277" type="line" smooth="no"/>
      <point x="446" y="1364" type="line" smooth="no"/>
      <point x="210" y="1588" type="line" smooth="no"/>
      <point x="433" y="1588" type="line" smooth="no"/>
      <point x="601" y="1431" type="line" smooth="no"/>
      <point x="868" y="1542" type="line" smooth="no"/>
      <point x="914" y="1413" type="line" smooth="no"/>
      <point x="694" y="1322" type="line" smooth="no"/>
      <point x="987" y="980"/>
      <point x="1117" y="773"/>
      <point x="1117" y="492" type="curve" smooth="yes"/>
      <point x="1117" y="199"/>
      <point x="943" y="-25"/>
      <point x="603" y="-25" type="curve" smooth="yes"/>
      <point x="271" y="-25"/>
      <point x="87" y="212"/>
      <point x="87" y="486" type="curve" smooth="yes"/>
      <point x="87" y="777"/>
      <point x="279" y="972"/>
    </contour>
    <contour>
      <point x="603" y="833" type="curve" smooth="yes"/>
      <point x="391" y="833"/>
      <point x="269" y="675"/>
      <point x="269" y="485" type="curve" smooth="yes"/>
      <point x="269" y="294"/>
      <point x="382" y="114"/>
      <point x="609" y="114" type="curve" smooth="yes"/>
      <point x="825" y="114"/>
      <point x="945" y="271"/>
      <point x="945" y="472" type="curve" smooth="yes"/>
      <point x="945" y="653"/>
      <point x="825" y="833"/>
    </contour>
  </outline>
</glyph>
<glyph name="divide" format="1">
  <advance width="1211"/>
  <unicode hex="00f7"/>
  <outline>
    <contour>
      <point x="1098" y="523" type="line" smooth="no"/>
      <point x="97" y="523" type="line" smooth="no"/>
      <point x="97" y="672" type="line" smooth="no"/>
      <point x="1098" y="672" type="line" smooth="no"/>
    </contour>
    <contour>
      <point x="716" y="1166" type="line" smooth="no"/>
      <point x="716" y="939" type="line" smooth="no"/>
      <point x="491" y="939" type="line" smooth="no"/>
      <point x="491" y="1166" type="line" smooth="no"/>
    </contour>
    <contour>
      <point x="682" y="249" type="line" smooth="no"/>
      <point x="682" y="22" type="line" smooth="no"/>
      <point x="491" y="22" type="line" smooth="no"/>
      <point x="491" y="249" type="line" smooth="no"/>
    </contour>
  </outline>
</glyph>
<glyph name="oslash" format="1">
  <advance width="1260"/>
  <unicode hex="00f8"/>
  <outline>
    <contour>
      <point x="641" y="1098" type="line" smooth="no"/>
    </contour>
    <contour>
      <point x="636" y="1132" type="curve" smooth="yes"/>
      <point x="696" y="1132"/>
      <point x="750" y="1122"/>
      <point x="801" y="1110" type="curve" smooth="no"/>
      <point x="909" y="1377" type="line" smooth="no"/>
      <point x="1014" y="1341" type="line" smooth="no"/>
      <point x="904" y="1069" type="line" smooth="no"/>
      <point x="1069" y="973"/>
      <point x="1148" y="779"/>
      <point x="1148" y="551" type="curve" smooth="yes"/>
      <point x="1148" y="239"/>
      <point x="978" y="-25"/>
      <point x="630" y="-25" type="curve" smooth="yes"/>
      <point x="570" y="-25"/>
      <point x="516" y="-14"/>
      <point x="465" y="-2" type="curve" smooth="no"/>
      <point x="347" y="-280" type="line" smooth="no"/>
      <point x="247" y="-247" type="line" smooth="no"/>
      <point x="363" y="38" type="line" smooth="no"/>
      <point x="194" y="132"/>
      <point x="112" y="323"/>
      <point x="112" y="551" type="curve" smooth="yes"/>
      <point x="112" y="871"/>
      <point x="281" y="1132"/>
    </contour>
    <contour>
      <point x="264" y="549" type="curve" smooth="yes"/>
      <point x="264" y="399"/>
      <point x="318" y="260"/>
      <point x="423" y="182" type="curve" smooth="no"/>
      <point x="746" y="971" type="line" smooth="no"/>
      <point x="709" y="979"/>
      <point x="673" y="988"/>
      <point x="630" y="988" type="curve" smooth="yes"/>
      <point x="392" y="988"/>
      <point x="264" y="778"/>
    </contour>
    <contour>
      <point x="994" y="551" type="curve" smooth="yes"/>
      <point x="994" y="704"/>
      <point x="945" y="839"/>
      <point x="844" y="919" type="curve" smooth="no"/>
      <point x="519" y="135" type="line" smooth="no"/>
      <point x="556" y="124"/>
      <point x="593" y="117"/>
      <point x="636" y="117" type="curve" smooth="yes"/>
      <point x="877" y="117"/>
      <point x="994" y="322"/>
    </contour>
    <contour>
      <point x="641" y="1098" type="line" smooth="no"/>
    </contour>
    <contour>
      <point x="641" y="1098" type="line" smooth="no"/>
    </contour>
    <contour>
      <point x="641" y="1098" type="move" smooth="yes"/>
    </contour>
  </outline>
</glyph>
<glyph name="thorn" format="1">
  <advance width="1293"/>
  <unicode hex="00FE"/>
  <outline>
    <contour>
      <point x="333" y="-459" type="line"/>
      <point x="162" y="-459" type="line"/>
      <point x="162" y="1322" type="line" smooth="yes"/>
      <point x="162" y="1338"/>
      <point x="159" y="1406"/>
      <point x="159" y="1474" type="curve"/>
      <point x="157" y="1603" type="line"/>
      <point x="333" y="1603" type="line"/>
      <point x="333" y="953" type="line"/>
      <point x="421" y="1066"/>
      <point x="539" y="1124"/>
      <point x="692" y="1124" type="curve" smooth="yes"/>
      <point x="1021" y="1124"/>
      <point x="1158" y="855"/>
      <point x="1158" y="538" type="curve" smooth="yes"/>
      <point x="1158" y="246"/>
      <point x="1044" y="-25"/>
      <point x="712" y="-25" type="curve" smooth="yes"/>
      <point x="555" y="-25"/>
      <point x="420" y="35"/>
      <point x="333" y="162" type="curve"/>
    </contour>
    <contour>
      <point x="329" y="551" type="curve" smooth="yes"/>
      <point x="329" y="321"/>
      <point x="431" y="139"/>
      <point x="672" y="139" type="curve" smooth="yes"/>
      <point x="908" y="139"/>
      <point x="985" y="359"/>
      <point x="985" y="551" type="curve" smooth="yes"/>
      <point x="985" y="743"/>
      <point x="908" y="964"/>
      <point x="672" y="964" type="curve" smooth="yes"/>
      <point x="431" y="964"/>
      <point x="329" y="781"/>
    </contour>
  </outline>
</glyph>
<glyph name="gcedilla" format="1">
  <advance width="1268"/>
  <unicode hex="0123"/>
  <outline>
    <contour>
      <point x="939" y="563" type="curve" smooth="yes"/>
      <point x="939" y="784"/>
      <point x="838" y="964"/>
      <point x="597" y="964" type="curve" smooth="yes"/>
      <point x="361" y="964"/>
      <point x="282" y="750"/>
      <point x="282" y="563" type="curve" smooth="yes"/>
      <point x="282" y="375"/>
      <point x="361" y="166"/>
      <point x="597" y="166" type="curve" smooth="yes"/>
      <point x="838" y="166"/>
      <point x="939" y="342"/>
    </contour>
    <contour>
      <point x="357" y="-432" type="line"/>
      <point x="357" y="-268" type="line"/>
      <point x="513" y="-268" type="line" smooth="yes"/>
      <point x="939" y="-268"/>
      <point x="941" y="-116"/>
      <point x="941" y="119" type="curve" smooth="yes"/>
      <point x="941" y="184" type="line"/>
      <point x="866" y="67"/>
      <point x="750" y="0"/>
      <point x="567" y="0" type="curve" smooth="yes"/>
      <point x="240" y="0"/>
      <point x="111" y="294"/>
      <point x="111" y="554" type="curve" smooth="yes"/>
      <point x="111" y="866"/>
      <point x="250" y="1124"/>
      <point x="580" y="1124" type="curve" smooth="yes"/>
      <point x="733" y="1124"/>
      <point x="850" y="1066"/>
      <point x="938" y="953" type="curve"/>
      <point x="939" y="1098" type="line"/>
      <point x="1115" y="1098" type="line"/>
      <point x="1111" y="968" type="line" smooth="yes"/>
      <point x="1108" y="900"/>
      <point x="1107" y="832"/>
      <point x="1107" y="816" type="curve" smooth="yes"/>
      <point x="1107" y="135" type="line" smooth="yes"/>
      <point x="1107" y="-133"/>
      <point x="1087" y="-432"/>
      <point x="507" y="-432" type="curve" smooth="yes"/>
    </contour>
    <contour>
      <point x="793" y="1749" type="line"/>
      <point x="683" y="1250" type="line"/>
      <point x="488" y="1250" type="line"/>
      <point x="653" y="1749" type="line"/>
    </contour>
  </outline>
</glyph>
<glyph name="hbar" format="1">
  <advance width="1115"/>
  <unicode hex="0127"/>
  <outline>
    <contour>
      <point x="558" y="1270" type="line"/>
      <point x="21" y="1270" type="line"/>
      <point x="21" y="1386" type="line"/>
      <point x="558" y="1386" type="line"/>
    </contour>
    <component base="h"/>
  </outline>
</glyph>
<glyph name="dotlessi" format="1">
  <advance width="430"/>
  <unicode hex="0131"/>
  <outline>
    <contour>
      <point x="304" y="1098" type="line" smooth="no"/>
      <point x="304" y="0" type="line" smooth="no"/>
      <point x="135" y="0" type="line" smooth="no"/>
      <point x="135" y="1098" type="line" smooth="no"/>
    </contour>
  </outline>
</glyph>
<glyph name="Lslash" format="1">
  <advance width="1184"/>
  <unicode hex="0141"/>
  <outline>
    <contour>
      <point x="1099" y="158" type="line"/>
      <point x="1099" y="0" type="line"/>
      <point x="266" y="0" type="line"/>
      <point x="266" y="650" type="line"/>
      <point x="100" y="527" type="line"/>
      <point x="100" y="675" type="line"/>
      <point x="266" y="798" type="line"/>
      <point x="266" y="1568" type="line"/>
      <point x="416" y="1568" type="line"/>
      <point x="416" y="915" type="line"/>
      <point x="715" y="1105" type="line"/>
      <point x="715" y="959" type="line"/>
      <point x="416" y="768" type="line"/>
      <point x="416" y="158" type="line"/>
    </contour>
  </outline>
</glyph>
<glyph name="Lslash" format="1">
  <advance width="1184"/>
  <unicode hex="0141"/>
  <outline>
    <contour>
      <point x="1099" y="158" type="line" smooth="no"/>
      <point x="1099" y="0" type="line" smooth="no"/>
      <point x="266" y="0" type="line" smooth="no"/>
      <point x="266" y="650" type="line" smooth="no"/>
      <point x="100" y="527" type="line" smooth="no"/>
      <point x="100" y="675" type="line" smooth="no"/>
      <point x="266" y="798" type="line" smooth="no"/>
      <point x="266" y="1568" type="line" smooth="no"/>
      <point x="416" y="1568" type="line" smooth="no"/>
      <point x="416" y="915" type="line" smooth="no"/>
      <point x="715" y="1105" type="line" smooth="no"/>
      <point x="715" y="959" type="line" smooth="no"/>
      <point x="416" y="768" type="line" smooth="no"/>
      <point x="416" y="158" type="line" smooth="no"/>
    </contour>
  </outline>
</glyph>
<glyph name="lslash" format="1">
  <advance width="589"/>
  <unicode hex="0142"/>
  <outline>
    <contour>
      <point x="487" y="985" type="line"/>
      <point x="487" y="839" type="line"/>
      <point x="31" y="486" type="line"/>
      <point x="31" y="631" type="line"/>
    </contour>
    <component base="l"/>
  </outline>
</glyph>
<glyph name="eng" format="1">
  <advance width="1118"/>
  <unicode hex="014b"/>
  <outline>
    <contour>
      <point x="620" y="-283" type="line" smooth="no"/>
      <point x="691" y="-283" type="line" smooth="yes"/>
      <point x="988" y="-283"/>
      <point x="1011" y="-148"/>
      <point x="1011" y="158" type="curve" smooth="yes"/>
      <point x="1011" y="657" type="line" smooth="yes"/>
      <point x="1011" y="965"/>
      <point x="906" y="1124"/>
      <point x="665" y="1124" type="curve" smooth="yes"/>
      <point x="513" y="1124"/>
      <point x="360" y="1052"/>
      <point x="275" y="935" type="curve" smooth="no"/>
      <point x="259" y="1098" type="line" smooth="no"/>
      <point x="115" y="1098" type="line" smooth="no"/>
      <point x="118" y="831" type="line" smooth="no"/>
      <point x="118" y="0" type="line" smooth="no"/>
      <point x="286" y="0" type="line" smooth="no"/>
      <point x="286" y="750" type="line" smooth="no"/>
      <point x="313" y="849"/>
      <point x="445" y="980"/>
      <point x="629" y="980" type="curve" smooth="yes"/>
      <point x="832" y="980"/>
      <point x="843" y="836"/>
      <point x="843" y="551" type="curve" smooth="yes"/>
      <point x="843" y="104" type="line" smooth="yes"/>
      <point x="843" y="-110"/>
      <point x="823" y="-141"/>
      <point x="651" y="-141" type="curve" smooth="yes"/>
      <point x="588" y="-141" type="line" smooth="no"/>
    </contour>
    <contour>
      <point x="559" y="1098" type="move" smooth="yes"/>
    </contour>
    <contour>
      <point x="559" y="0" type="move" smooth="yes"/>
    </contour>
  </outline>
</glyph>
<glyph name="oe" format="1">
  <advance width="1909"/>
  <unicode hex="0153"/>
  <outline>
    <contour>
      <point x="1822" y="107" type="curve" smooth="no"/>
      <point x="1770" y="229" type="line" smooth="no"/>
      <point x="1692" y="176"/>
      <point x="1590" y="119"/>
      <point x="1434" y="119" type="curve" smooth="yes"/>
      <point x="1241" y="119"/>
      <point x="1097" y="272"/>
      <point x="1097" y="519" type="curve" smooth="no"/>
      <point x="1836" y="519" type="line" smooth="no"/>
      <point x="1836" y="538"/>
      <point x="1838" y="578"/>
      <point x="1838" y="594" type="curve" smooth="yes"/>
      <point x="1838" y="918"/>
      <point x="1691" y="1124"/>
      <point x="1418" y="1124" type="curve" smooth="yes"/>
      <point x="1402" y="1124" type="line" smooth="no"/>
      <point x="1229" y="1119"/>
      <point x="1091" y="1031"/>
      <point x="1009" y="889" type="curve" smooth="no"/>
      <point x="932" y="1031"/>
      <point x="795" y="1124"/>
      <point x="594" y="1124" type="curve" smooth="yes"/>
      <point x="262" y="1124"/>
      <point x="86" y="861"/>
      <point x="86" y="547" type="curve" smooth="yes"/>
      <point x="86" y="232"/>
      <point x="259" y="-25"/>
      <point x="591" y="-25" type="curve" smooth="yes"/>
      <point x="786" y="-25"/>
      <point x="924" y="70"/>
      <point x="1004" y="211" type="curve" smooth="no"/>
      <point x="1087" y="61"/>
      <point x="1235" y="-25"/>
      <point x="1429" y="-25" type="curve" smooth="yes"/>
      <point x="1605" y="-25"/>
      <point x="1732" y="30"/>
    </contour>
    <contour>
      <point x="1103" y="635" type="line" smooth="no"/>
      <point x="1122" y="851"/>
      <point x="1242" y="988"/>
      <point x="1408" y="988" type="curve" smooth="yes"/>
      <point x="1571" y="988"/>
      <point x="1676" y="869"/>
      <point x="1676" y="635" type="curve" smooth="no"/>
    </contour>
    <contour>
      <point x="594" y="113" type="curve" smooth="yes"/>
      <point x="354" y="113"/>
      <point x="259" y="323"/>
      <point x="259" y="544" type="curve" smooth="yes"/>
      <point x="259" y="768"/>
      <point x="355" y="986"/>
      <point x="591" y="986" type="curve" smooth="yes"/>
      <point x="838" y="986"/>
      <point x="925" y="780"/>
      <point x="925" y="547" type="curve" smooth="yes"/>
      <point x="925" y="323"/>
      <point x="831" y="113"/>
    </contour>
    <contour>
      <point x="634" y="0" type="move" smooth="yes"/>
    </contour>
    <contour>
      <point x="1079" y="10" type="move" smooth="yes"/>
    </contour>
  </outline>
</glyph>
<glyph name="tbar" format="1">
  <advance width="678"/>
  <unicode hex="0167"/>
  <outline>
    <contour>
      <point x="38" y="638" type="line"/>
      <point x="38" y="764" type="line"/>
      <point x="570" y="764" type="line"/>
      <point x="570" y="638" type="line"/>
    </contour>
    <component base="t"/>
  </outline>
</glyph>
<glyph name="dotlessj" format="1">
  <advance width="571"/>
  <unicode hex="0237"/>
  <outline>
    <contour>
      <point x="286" y="1098" type="line"/>
    </contour>
    <contour>
      <point x="28" y="-448" type="curve"/>
      <point x="28" y="-292" type="line"/>
      <point x="60" y="-299"/>
      <point x="83" y="-305"/>
      <point x="102" y="-305" type="curve" smooth="yes"/>
      <point x="215" y="-305"/>
      <point x="271" y="-201"/>
      <point x="271" y="34" type="curve" smooth="yes"/>
      <point x="271" y="1098" type="line"/>
      <point x="416" y="1098" type="line"/>
      <point x="416" y="114" type="line" smooth="yes"/>
      <point x="416" y="-129"/>
      <point x="394" y="-461"/>
      <point x="135" y="-461" type="curve" smooth="yes"/>
      <point x="100" y="-461"/>
      <point x="67" y="-456"/>
    </contour>
    <contour>
      <point x="286" y="1098" type="line" smooth="yes"/>
    </contour>
    <contour>
      <point x="286" y="1098" type="move" name="top"/>
    </contour>
  </outline>
</glyph>
<glyph name="circumflex" format="1">
  <advance width="800"/>
  <unicode hex="02c6"/>
  <outline>
    <contour>
      <point x="402" y="1098" type="line" smooth="no"/>
    </contour>
    <contour>
      <point x="108" y="1251" type="line" smooth="no"/>
      <point x="295" y="1639" type="line" smooth="no"/>
      <point x="508" y="1639" type="line" smooth="no"/>
      <point x="695" y="1251" type="line" smooth="no"/>
      <point x="561" y="1251" type="line" smooth="no"/>
      <point x="400" y="1523" type="line" smooth="no"/>
      <point x="239" y="1251" type="line" smooth="no"/>
    </contour>
    <contour>
      <point x="401.5" y="1098" type="line" smooth="no"/>
    </contour>
    <contour>
      <point x="401.5" y="1098" type="line" smooth="no"/>
    </contour>
    <contour>
      <point x="401.5" y="1098" type="move" smooth="yes"/>
    </contour>
  </outline>
</glyph>
<glyph name="breve" format="1">
  <advance width="754"/>
  <unicode hex="02d8"/>
  <outline>
    <contour>
      <point x="379" y="1098" type="line" smooth="no"/>
    </contour>
    <contour>
      <point x="377" y="1299" type="curve" smooth="yes"/>
      <point x="254" y="1299"/>
      <point x="128" y="1385"/>
      <point x="128" y="1557" type="curve" smooth="no"/>
      <point x="244" y="1557" type="line" smooth="no"/>
      <point x="244" y="1461"/>
      <point x="304" y="1416"/>
      <point x="377" y="1416" type="curve" smooth="yes"/>
      <point x="450" y="1416"/>
      <point x="513" y="1461"/>
      <point x="513" y="1557" type="curve" smooth="no"/>
      <point x="630" y="1557" type="line" smooth="no"/>
      <point x="630" y="1385"/>
      <point x="501" y="1299"/>
    </contour>
    <contour>
      <point x="379" y="1098" type="line" smooth="no"/>
    </contour>
    <contour>
      <point x="379" y="1098" type="line" smooth="no"/>
    </contour>
    <contour>
      <point x="379" y="1098" type="move" smooth="yes"/>
    </contour>
  </outline>
</glyph>
<glyph name="dotaccent" format="1">
  <advance width="411"/>
  <unicode hex="02d9"/>
  <outline>
    <contour>
      <point x="209" y="1098" type="line" smooth="no"/>
    </contour>
    <contour>
      <point x="280" y="1341" type="line" smooth="no"/>
      <point x="137" y="1341" type="line" smooth="no"/>
      <point x="137" y="1517" type="line" smooth="no"/>
      <point x="280" y="1517" type="line" smooth="no"/>
    </contour>
    <contour>
      <point x="208.5" y="1098" type="line" smooth="no"/>
    </contour>
    <contour>
      <point x="208.5" y="1098" type="line" smooth="no"/>
    </contour>
    <contour>
      <point x="208.5" y="1098" type="move" smooth="yes"/>
    </contour>
  </outline>
</glyph>
<glyph name="ogonek" format="1">
  <advance width="590"/>
  <unicode hex="02db"/>
  <outline>
    <contour>
      <point x="468" y="10" type="line" smooth="no"/>
    </contour>
    <contour>
      <point x="331" y="-303" type="curve" smooth="yes"/>
      <point x="385" y="-303"/>
      <point x="417" y="-291"/>
      <point x="468" y="-270" type="curve" smooth="no"/>
      <point x="468" y="-387" type="line" smooth="no"/>
      <point x="430" y="-403"/>
      <point x="365" y="-419"/>
      <point x="311" y="-419" type="curve" smooth="yes"/>
      <point x="203" y="-419"/>
      <point x="118" y="-357"/>
      <point x="118" y="-243" type="curve" smooth="yes"/>
      <point x="118" y="-134"/>
      <point x="213" y="-44"/>
      <point x="309" y="12" type="curve" smooth="no"/>
      <point x="423" y="0" type="line" smooth="no"/>
      <point x="319" y="-77"/>
      <point x="243" y="-146"/>
      <point x="243" y="-214" type="curve" smooth="yes"/>
      <point x="243" y="-267"/>
      <point x="290" y="-303"/>
    </contour>
    <contour>
      <point x="468" y="10" type="line" smooth="no"/>
    </contour>
    <contour>
      <point x="468" y="10" type="line" smooth="no"/>
    </contour>
    <contour>
      <point x="468" y="10" type="move" smooth="yes"/>
    </contour>
  </outline>
</glyph>
<glyph name="tilde" format="1">
  <advance width="885"/>
  <unicode hex="02dc"/>
  <outline>
    <contour>
      <point x="446" y="1098" type="line" smooth="no"/>
    </contour>
    <contour>
      <point x="134" y="1292" type="line" smooth="no"/>
      <point x="137" y="1429"/>
      <point x="200" y="1535"/>
      <point x="324" y="1535" type="curve" smooth="yes"/>
      <point x="431" y="1535"/>
      <point x="496" y="1420"/>
      <point x="582" y="1420" type="curve" smooth="yes"/>
      <point x="632" y="1420"/>
      <point x="645" y="1477"/>
      <point x="648" y="1523" type="curve" smooth="no"/>
      <point x="757" y="1523" type="line" smooth="no"/>
      <point x="752" y="1391"/>
      <point x="696" y="1279"/>
      <point x="570" y="1279" type="curve" smooth="yes"/>
      <point x="478" y="1279"/>
      <point x="382" y="1393"/>
      <point x="314" y="1393" type="curve" smooth="yes"/>
      <point x="261" y="1393"/>
      <point x="244" y="1347"/>
      <point x="241" y="1292" type="curve" smooth="no"/>
    </contour>
    <contour>
      <point x="445.5" y="1098" type="line" smooth="no"/>
    </contour>
    <contour>
      <point x="445.5" y="1098" type="line" smooth="no"/>
    </contour>
    <contour>
      <point x="445.5" y="1098" type="move" smooth="yes"/>
    </contour>
  </outline>
</glyph>
<glyph name="hungarumlaut" format="1">
  <advance width="817"/>
  <unicode hex="02dd"/>
  <outline>
    <contour>
      <point x="421" y="1098" type="line" smooth="no"/>
    </contour>
    <contour>
      <point x="479" y="1594" type="line" smooth="no"/>
      <point x="227" y="1259" type="line" smooth="no"/>
      <point x="128" y="1259" type="line" smooth="no"/>
      <point x="326" y="1594" type="line" smooth="no"/>
    </contour>
    <contour>
      <point x="713" y="1594" type="line" smooth="no"/>
      <point x="463" y="1259" type="line" smooth="no"/>
      <point x="361" y="1259" type="line" smooth="no"/>
      <point x="563" y="1594" type="line" smooth="no"/>
    </contour>
    <contour>
      <point x="420.5" y="1098" type="line" smooth="no"/>
    </contour>
    <contour>
      <point x="420.5" y="1098" type="line" smooth="no"/>
    </contour>
    <contour>
      <point x="420.5" y="1098" type="move" smooth="yes"/>
    </contour>
  </outline>
</glyph>
<glyph name="dotaccentcmb" format="1">
  <advance width="411"/>
  <unicode hex="0307"/>
  <outline>
    <contour>
      <point x="280" y="1341" type="line" smooth="no"/>
      <point x="137" y="1341" type="line" smooth="no"/>
      <point x="137" y="1517" type="line" smooth="no"/>
      <point x="280" y="1517" type="line" smooth="no"/>
    </contour>
  </outline>
</glyph>
<glyph name="uni030F" format="1">
  <advance width="855"/>
  <unicode hex="030f"/>
  <outline>
    <contour>
      <point x="359" y="1259" type="line" smooth="no"/>
      <point x="109" y="1594" type="line" smooth="no"/>
      <point x="259" y="1594" type="line" smooth="no"/>
      <point x="461" y="1259" type="line" smooth="no"/>
    </contour>
    <contour>
      <point x="627" y="1259" type="line" smooth="no"/>
      <point x="380" y="1594" type="line" smooth="no"/>
      <point x="531" y="1594" type="line" smooth="no"/>
      <point x="729" y="1259" type="line" smooth="no"/>
    </contour>
  </outline>
</glyph>
<glyph name="uni0311" format="1">
  <advance width="767"/>
  <unicode hex="0311"/>
  <outline>
    <contour>
      <point x="383" y="1557" type="curve" smooth="yes"/>
      <point x="507" y="1557"/>
      <point x="636" y="1471"/>
      <point x="636" y="1299" type="curve" smooth="no"/>
      <point x="519" y="1299" type="line" smooth="no"/>
      <point x="519" y="1395"/>
      <point x="456" y="1440"/>
      <point x="383" y="1440" type="curve" smooth="yes"/>
      <point x="310" y="1440"/>
      <point x="250" y="1395"/>
      <point x="250" y="1299" type="curve" smooth="no"/>
      <point x="134" y="1299" type="line" smooth="no"/>
      <point x="134" y="1471"/>
      <point x="260" y="1557"/>
    </contour>
  </outline>
</glyph>
<glyph name="uni0326" format="1">
  <advance width="555"/>
  <unicode hex="0326"/>
  <outline>
    <contour>
      <point x="144" y="-672" type="line" smooth="no"/>
      <point x="238" y="-174" type="line" smooth="no"/>
      <point x="404" y="-174" type="line" smooth="no"/>
      <point x="261" y="-672" type="line" smooth="no"/>
    </contour>
  </outline>
</glyph>
<glyph name="eta" format="1">
  <advance width="320"/>
  <unicode hex="03B7"/>
  <outline>
    <contour>
      <point x="160" y="1098" type="line"/>
    </contour>
    <contour>
      <point x="160" y="1098" type="line"/>
    </contour>
    <contour>
      <point x="160" y="1098" type="line"/>
    </contour>
    <contour>
      <point x="160" y="1098" type="line" smooth="yes"/>
    </contour>
    <contour>
      <point x="160" y="1098" type="move" name="top"/>
    </contour>
  </outline>
</glyph>
<glyph name="iota" format="1">
  <advance width="320"/>
  <unicode hex="03b9"/>
  <outline>
    <contour>
      <point x="160" y="1098" type="line" smooth="no"/>
    </contour>
    <contour>
      <point x="160" y="1098" type="line" smooth="no"/>
    </contour>
    <contour>
      <point x="160" y="1098" type="line" smooth="no"/>
    </contour>
    <contour>
      <point x="160" y="1098" type="move" smooth="yes"/>
    </contour>
  </outline>
</glyph>
<glyph name="uni0403" format="1">
  <advance width="1008"/>
  <unicode hex="0403"/>
  <outline>
    <contour>
      <point x="1003" y="1343" type="line"/>
      <point x="323" y="1343" type="line"/>
      <point x="323" y="0" type="line"/>
      <point x="147" y="0" type="line"/>
      <point x="147" y="1497" type="line"/>
      <point x="1003" y="1497" type="line"/>
    </contour>
  </outline>
</glyph>
<glyph name="uni0406" format="1">
  <advance width="490"/>
  <unicode hex="0406"/>
  <outline>
    <contour>
      <point x="331" y="1497" type="line" smooth="no"/>
      <point x="331" y="0" type="line" smooth="no"/>
      <point x="155" y="0" type="line" smooth="no"/>
      <point x="155" y="1497" type="line" smooth="no"/>
    </contour>
  </outline>
</glyph>
<glyph name="uni0409" format="1">
  <advance width="1825"/>
  <unicode hex="0409"/>
  <outline>
    <contour>
      <point x="1018" y="1497" type="line" smooth="no"/>
      <point x="1018" y="871" type="line" smooth="no"/>
      <point x="1277" y="871" type="line" smooth="yes"/>
      <point x="1553" y="871"/>
      <point x="1745" y="743"/>
      <point x="1745" y="428" type="curve" smooth="yes"/>
      <point x="1745" y="139"/>
      <point x="1561" y="0"/>
      <point x="1277" y="0" type="curve" smooth="yes"/>
      <point x="841" y="0" type="line" smooth="no"/>
      <point x="841" y="1335" type="line" smooth="no"/>
      <point x="459" y="1335" type="line" smooth="no"/>
      <point x="459" y="433" type="line" smooth="yes"/>
      <point x="459" y="125"/>
      <point x="424" y="-26"/>
      <point x="72" y="-26" type="curve" smooth="yes"/>
      <point x="44" y="-26" type="line" smooth="no"/>
      <point x="44" y="131" type="line" smooth="no"/>
      <point x="90" y="131" type="line" smooth="yes"/>
      <point x="271" y="131"/>
      <point x="281" y="236"/>
      <point x="281" y="384" type="curve" smooth="yes"/>
      <point x="281" y="1497" type="line" smooth="no"/>
    </contour>
    <contour>
      <point x="1277" y="707" type="curve" smooth="yes"/>
      <point x="1018" y="707" type="line" smooth="no"/>
      <point x="1019" y="160" type="line" smooth="no"/>
      <point x="1277" y="160" type="line" smooth="yes"/>
      <point x="1442" y="160"/>
      <point x="1563" y="255"/>
      <point x="1563" y="431" type="curve" smooth="yes"/>
      <point x="1563" y="607"/>
      <point x="1446" y="707"/>
    </contour>
  </outline>
</glyph>
<glyph name="uni040A" format="1">
  <advance width="1682"/>
  <unicode hex="040A"/>
  <outline>
    <contour>
      <point x="925" y="871" type="line"/>
      <point x="1144" y="871" type="line" smooth="yes"/>
      <point x="1420" y="871"/>
      <point x="1612" y="743"/>
      <point x="1612" y="428" type="curve" smooth="yes"/>
      <point x="1612" y="139"/>
      <point x="1428" y="0"/>
      <point x="1144" y="0" type="curve" smooth="yes"/>
      <point x="748" y="0" type="line"/>
      <point x="749" y="699" type="line"/>
      <point x="326" y="699" type="line"/>
      <point x="326" y="0" type="line"/>
      <point x="147" y="0" type="line"/>
      <point x="147" y="1497" type="line"/>
      <point x="326" y="1497" type="line"/>
      <point x="326" y="871" type="line"/>
      <point x="749" y="871" type="line"/>
      <point x="749" y="1497" type="line"/>
      <point x="925" y="1497" type="line"/>
    </contour>
    <contour>
      <point x="1144" y="707" type="curve" smooth="yes"/>
      <point x="925" y="707" type="line"/>
      <point x="925" y="160" type="line"/>
      <point x="1144" y="160" type="line" smooth="yes"/>
      <point x="1309" y="160"/>
      <point x="1430" y="255"/>
      <point x="1430" y="431" type="curve" smooth="yes"/>
      <point x="1430" y="607"/>
      <point x="1313" y="707"/>
    </contour>
  </outline>
</glyph>
<glyph name="uni0411" format="1">
  <advance width="1212"/>
  <unicode hex="0411"/>
  <outline>
    <contour>
      <point x="324" y="871" type="line" smooth="no"/>
      <point x="638" y="871" type="line" smooth="yes"/>
      <point x="914" y="871"/>
      <point x="1106" y="743"/>
      <point x="1106" y="428" type="curve" smooth="yes"/>
      <point x="1106" y="139"/>
      <point x="922" y="0"/>
      <point x="638" y="0" type="curve" smooth="yes"/>
      <point x="147" y="0" type="line" smooth="no"/>
      <point x="147" y="1462" type="line" smooth="no"/>
      <point x="1032" y="1462" type="line" smooth="no"/>
      <point x="1032" y="1300" type="line" smooth="no"/>
      <point x="324" y="1300" type="line" smooth="no"/>
    </contour>
    <contour>
      <point x="638" y="707" type="curve" smooth="yes"/>
      <point x="324" y="707" type="line" smooth="no"/>
      <point x="324" y="160" type="line" smooth="no"/>
      <point x="638" y="160" type="line" smooth="yes"/>
      <point x="803" y="160"/>
      <point x="924" y="255"/>
      <point x="924" y="431" type="curve" smooth="yes"/>
      <point x="924" y="607"/>
      <point x="807" y="707"/>
    </contour>
  </outline>
</glyph>
<glyph name="uni0414" format="1">
  <advance width="1387"/>
  <unicode hex="0414"/>
  <outline>
    <contour>
      <point x="523" y="1497" type="line" smooth="no"/>
      <point x="1193" y="1497" type="line" smooth="no"/>
      <point x="1193" y="152" type="line" smooth="no"/>
      <point x="1309" y="152" type="line" smooth="no"/>
      <point x="1309" y="-265" type="line" smooth="no"/>
      <point x="1132" y="-265" type="line" smooth="no"/>
      <point x="1132" y="0" type="line" smooth="no"/>
      <point x="190" y="0" type="line" smooth="no"/>
      <point x="190" y="-265" type="line" smooth="no"/>
      <point x="14" y="-265" type="line" smooth="no"/>
      <point x="14" y="152" type="line" smooth="no"/>
      <point x="171" y="152" type="line" smooth="no"/>
    </contour>
    <contour>
      <point x="1014" y="152" type="line" smooth="no"/>
      <point x="1014" y="1354" type="line" smooth="no"/>
      <point x="667" y="1354" type="line" smooth="no"/>
      <point x="367" y="152" type="line" smooth="no"/>
    </contour>
  </outline>
</glyph>
<glyph name="uni0415" format="1">
  <advance width="1096"/>
  <unicode hex="0415"/>
  <outline>
    <contour>
      <point x="967" y="845" type="line"/>
      <point x="967" y="692" type="line"/>
      <point x="324" y="692" type="line"/>
      <point x="324" y="156" type="line"/>
      <point x="1038" y="156" type="line"/>
      <point x="1023" y="0" type="line"/>
      <point x="147" y="0" type="line"/>
      <point x="147" y="1497" type="line"/>
      <point x="1009" y="1497" type="line"/>
      <point x="995" y="1341" type="line"/>
      <point x="324" y="1341" type="line"/>
      <point x="324" y="845" type="line"/>
    </contour>
  </outline>
</glyph>
<glyph name="afii10024" format="1">
  <advance width="1746"/>
  <unicode hex="0416"/>
  <outline>
    <contour>
      <point x="962" y="1497" type="line" smooth="no"/>
      <point x="962" y="789" type="line" smooth="no"/>
      <point x="1499" y="1497" type="line" smooth="no"/>
      <point x="1712" y="1497" type="line" smooth="no"/>
      <point x="1210" y="833" type="line" smooth="no"/>
      <point x="1789" y="0" type="line" smooth="no"/>
      <point x="1568" y="0" type="line" smooth="no"/>
      <point x="1076" y="725" type="line" smooth="no"/>
      <point x="962" y="578" type="line" smooth="no"/>
      <point x="962" y="0" type="line" smooth="no"/>
      <point x="786" y="0" type="line" smooth="no"/>
      <point x="786" y="578" type="line" smooth="no"/>
      <point x="681" y="716" type="line" smooth="no"/>
      <point x="179" y="0" type="line" smooth="no"/>
      <point x="-43" y="0" type="line" smooth="no"/>
      <point x="547" y="824" type="line" smooth="no"/>
      <point x="35" y="1497" type="line" smooth="no"/>
      <point x="246" y="1497" type="line" smooth="no"/>
      <point x="786" y="789" type="line" smooth="no"/>
      <point x="786" y="1497" type="line" smooth="no"/>
    </contour>
  </outline>
</glyph>
<glyph name="afii10026" format="1">
  <advance width="1489"/>
  <unicode hex="0418"/>
  <outline>
    <contour>
      <point x="147" y="0" type="line" smooth="no"/>
      <point x="147" y="1497" type="line" smooth="no"/>
      <point x="310" y="1497" type="line" smooth="no"/>
      <point x="310" y="261" type="line" smooth="no"/>
      <point x="404" y="406" type="line" smooth="no"/>
      <point x="1149" y="1497" type="line" smooth="no"/>
      <point x="1342" y="1497" type="line" smooth="no"/>
      <point x="1342" y="0" type="line" smooth="no"/>
      <point x="1181" y="0" type="line" smooth="no"/>
      <point x="1181" y="1230" type="line" smooth="no"/>
      <point x="1089" y="1087" type="line" smooth="no"/>
      <point x="346" y="0" type="line" smooth="no"/>
    </contour>
  </outline>
</glyph>
<glyph name="afii10028" format="1">
  <advance width="1228"/>
  <unicode hex="041a"/>
  <outline>
    <contour>
      <point x="582" y="799" type="line" smooth="no"/>
      <point x="1263" y="0" type="line" smooth="no"/>
      <point x="1040" y="0" type="line" smooth="no"/>
      <point x="440" y="692" type="line" smooth="no"/>
      <point x="323" y="591" type="line" smooth="no"/>
      <point x="323" y="0" type="line" smooth="no"/>
      <point x="147" y="0" type="line" smooth="no"/>
      <point x="147" y="1497" type="line" smooth="no"/>
      <point x="323" y="1497" type="line" smooth="no"/>
      <point x="323" y="780" type="line" smooth="no"/>
      <point x="1011" y="1497" type="line" smooth="no"/>
      <point x="1244" y="1497" type="line" smooth="no"/>
    </contour>
  </outline>
</glyph>
<glyph name="uni041B" format="1">
  <advance width="1223"/>
  <unicode hex="041b"/>
  <outline>
    <contour>
      <point x="27" y="0" type="line" smooth="no"/>
      <point x="217" y="0" type="line" smooth="no"/>
      <point x="553" y="1343" type="line" smooth="no"/>
      <point x="897" y="1343" type="line" smooth="no"/>
      <point x="897" y="0" type="line" smooth="no"/>
      <point x="1076" y="0" type="line" smooth="no"/>
      <point x="1076" y="1497" type="line" smooth="no"/>
      <point x="402" y="1497" type="line" smooth="no"/>
    </contour>
  </outline>
</glyph>
<glyph name="uni041F" format="1">
  <advance width="1463"/>
  <unicode hex="041f"/>
  <outline>
    <contour>
      <point x="1140" y="1343" type="line" smooth="no"/>
      <point x="323" y="1343" type="line" smooth="no"/>
      <point x="323" y="0" type="line" smooth="no"/>
      <point x="147" y="0" type="line" smooth="no"/>
      <point x="147" y="1497" type="line" smooth="no"/>
      <point x="1316" y="1497" type="line" smooth="no"/>
      <point x="1316" y="0" type="line" smooth="no"/>
      <point x="1140" y="0" type="line" smooth="no"/>
    </contour>
  </outline>
</glyph>
<glyph name="uni0420" format="1">
  <advance width="1140"/>
  <unicode hex="0420"/>
  <outline>
    <contour>
      <point x="323" y="626" type="line"/>
      <point x="323" y="0" type="line"/>
      <point x="147" y="0" type="line"/>
      <point x="147" y="1497" type="line"/>
      <point x="641" y="1497" type="line" smooth="yes"/>
      <point x="925" y="1497"/>
      <point x="1109" y="1358"/>
      <point x="1109" y="1069" type="curve" smooth="yes"/>
      <point x="1109" y="754"/>
      <point x="917" y="626"/>
      <point x="641" y="626" type="curve" smooth="yes"/>
    </contour>
    <contour>
      <point x="645" y="790" type="line" smooth="yes"/>
      <point x="836" y="790"/>
      <point x="929" y="889"/>
      <point x="929" y="1066" type="curve" smooth="yes"/>
      <point x="929" y="1243"/>
      <point x="830" y="1337"/>
      <point x="645" y="1337" type="curve" smooth="yes"/>
      <point x="323" y="1337" type="line"/>
      <point x="323" y="790" type="line"/>
    </contour>
  </outline>
</glyph>
<glyph name="afii10037" format="1">
  <advance width="1211"/>
  <unicode hex="0423"/>
  <outline>
    <contour>
      <point x="538" y="0" type="line" smooth="no"/>
      <point x="342" y="0" type="line" smooth="no"/>
      <point x="529" y="466" type="line" smooth="no"/>
      <point x="-1" y="1497" type="line" smooth="no"/>
      <point x="200" y="1497" type="line" smooth="no"/>
      <point x="636" y="637" type="line" smooth="no"/>
      <point x="1015" y="1497" type="line" smooth="no"/>
      <point x="1212" y="1497" type="line" smooth="no"/>
    </contour>
  </outline>
</glyph>
<glyph name="uni0424" format="1">
  <advance width="1727"/>
  <unicode hex="0424"/>
  <outline>
    <contour>
      <point x="937" y="1496" type="line" smooth="no"/>
      <point x="937" y="1364" type="line" smooth="no"/>
      <point x="1363" y="1335"/>
      <point x="1626" y="1120"/>
      <point x="1626" y="745" type="curve" smooth="yes"/>
      <point x="1626" y="370"/>
      <point x="1363" y="155"/>
      <point x="937" y="126" type="curve" smooth="no"/>
      <point x="937" y="0" type="line" smooth="no"/>
      <point x="774" y="0" type="line" smooth="no"/>
      <point x="774" y="128" type="line" smooth="no"/>
      <point x="342" y="165"/>
      <point x="101" y="391"/>
      <point x="101" y="745" type="curve" smooth="yes"/>
      <point x="101" y="1099"/>
      <point x="342" y="1325"/>
      <point x="774" y="1362" type="curve" smooth="no"/>
      <point x="774" y="1496" type="line" smooth="no"/>
    </contour>
    <contour>
      <point x="937" y="1207" type="curve" smooth="no"/>
      <point x="937" y="284" type="line" smooth="no"/>
      <point x="1283" y="316"/>
      <point x="1437" y="489"/>
      <point x="1437" y="745" type="curve" smooth="yes"/>
      <point x="1437" y="1001"/>
      <point x="1283" y="1175"/>
    </contour>
    <contour>
      <point x="774" y="1205" type="line" smooth="no"/>
      <point x="443" y="1170"/>
      <point x="290" y="1000"/>
      <point x="290" y="745" type="curve" smooth="yes"/>
      <point x="290" y="489"/>
      <point x="443" y="320"/>
      <point x="774" y="285" type="curve" smooth="no"/>
    </contour>
  </outline>
</glyph>
<glyph name="afii10040" format="1">
  <advance width="1488"/>
  <unicode hex="0426"/>
  <outline>
    <contour>
      <point x="1141" y="152" type="line" smooth="no"/>
      <point x="1141" y="1497" type="line" smooth="no"/>
      <point x="1316" y="1497" type="line" smooth="no"/>
      <point x="1316" y="152" type="line" smooth="no"/>
      <point x="1432" y="152" type="line" smooth="no"/>
      <point x="1432" y="-265" type="line" smooth="no"/>
      <point x="1257" y="-265" type="line" smooth="no"/>
      <point x="1257" y="0" type="line" smooth="no"/>
      <point x="147" y="0" type="line" smooth="no"/>
      <point x="147" y="1497" type="line" smooth="no"/>
      <point x="324" y="1497" type="line" smooth="no"/>
      <point x="324" y="152" type="line" smooth="no"/>
    </contour>
  </outline>
</glyph>
<glyph name="uni0428" format="1">
  <advance width="1671"/>
  <unicode hex="0428"/>
  <outline>
    <contour>
      <point x="323" y="150" type="line"/>
      <point x="747" y="150" type="line"/>
      <point x="747" y="1496" type="line"/>
      <point x="923" y="1496" type="line"/>
      <point x="923" y="150" type="line"/>
      <point x="1348" y="150" type="line"/>
      <point x="1348" y="1496" type="line"/>
      <point x="1524" y="1496" type="line"/>
      <point x="1524" y="0" type="line"/>
      <point x="147" y="0" type="line"/>
      <point x="147" y="1496" type="line"/>
      <point x="323" y="1496" type="line"/>
    </contour>
  </outline>
</glyph>
<glyph name="afii10043" format="1">
  <advance width="1735"/>
  <unicode hex="0429"/>
  <outline>
    <contour>
      <point x="1462" y="-265" type="line"/>
      <point x="1638" y="-265" type="line"/>
      <point x="1638" y="152" type="line"/>
      <point x="1524" y="152" type="line"/>
      <point x="1524" y="1496" type="line"/>
      <point x="1348" y="1496" type="line"/>
      <point x="1348" y="150" type="line"/>
      <point x="923" y="150" type="line"/>
      <point x="923" y="1496" type="line"/>
      <point x="747" y="1496" type="line"/>
      <point x="747" y="150" type="line"/>
      <point x="323" y="150" type="line"/>
      <point x="323" y="1496" type="line"/>
      <point x="147" y="1496" type="line"/>
      <point x="147" y="0" type="line"/>
      <point x="1462" y="0" type="line"/>
    </contour>
  </outline>
</glyph>
<glyph name="uni042A" format="1">
  <advance width="1424"/>
  <unicode hex="042A"/>
  <outline>
    <contour>
      <point x="828" y="696" type="curve" smooth="yes"/>
      <point x="596" y="696" type="line"/>
      <point x="596" y="160" type="line"/>
      <point x="828" y="160" type="line" smooth="yes"/>
      <point x="1076" y="160"/>
      <point x="1181" y="255"/>
      <point x="1181" y="431" type="curve" smooth="yes"/>
      <point x="1181" y="593"/>
      <point x="1080" y="696"/>
    </contour>
    <contour>
      <point x="596" y="1496" type="line"/>
      <point x="596" y="850" type="line"/>
      <point x="807" y="850" type="line" smooth="yes"/>
      <point x="1152" y="850"/>
      <point x="1347" y="717"/>
      <point x="1347" y="428" type="curve" smooth="yes"/>
      <point x="1347" y="139"/>
      <point x="1152" y="0"/>
      <point x="807" y="0" type="curve" smooth="yes"/>
      <point x="420" y="0" type="line"/>
      <point x="420" y="1496" type="line"/>
    </contour>
    <contour>
      <point x="35" y="1335" type="line"/>
      <point x="35" y="1496" type="line"/>
      <point x="567" y="1496" type="line"/>
      <point x="567" y="1335" type="line"/>
    </contour>
  </outline>
</glyph>
<glyph name="uni042B" format="1">
  <advance width="1583"/>
  <unicode hex="042b"/>
  <outline>
    <contour>
      <point x="480" y="696" type="curve" smooth="yes"/>
      <point x="323" y="696" type="line" smooth="no"/>
      <point x="323" y="160" type="line" smooth="no"/>
      <point x="480" y="160" type="line" smooth="yes"/>
      <point x="712" y="160"/>
      <point x="858" y="255"/>
      <point x="858" y="431" type="curve" smooth="yes"/>
      <point x="858" y="600"/>
      <point x="712" y="696"/>
    </contour>
    <contour>
      <point x="323" y="1496" type="line" smooth="no"/>
      <point x="323" y="855" type="line" smooth="no"/>
      <point x="460" y="855" type="line" smooth="yes"/>
      <point x="785" y="855"/>
      <point x="1025" y="732"/>
      <point x="1025" y="474" type="curve" smooth="yes"/>
      <point x="1025" y="459"/>
      <point x="1026" y="444"/>
      <point x="1023" y="428" type="curve" smooth="no"/>
      <point x="1023" y="139"/>
      <point x="805" y="0"/>
      <point x="460" y="0" type="curve" smooth="yes"/>
      <point x="147" y="0" type="line" smooth="no"/>
      <point x="147" y="1496" type="line" smooth="no"/>
    </contour>
    <contour>
      <point x="1436" y="1496" type="line" smooth="no"/>
      <point x="1436" y="0" type="line" smooth="no"/>
      <point x="1258" y="0" type="line" smooth="no"/>
      <point x="1258" y="1496" type="line" smooth="no"/>
    </contour>
  </outline>
</glyph>
<glyph name="uni042C" format="1">
  <advance width="1144"/>
  <unicode hex="042c"/>
  <outline>
    <contour>
      <point x="529" y="696" type="curve" smooth="yes"/>
      <point x="323" y="696" type="line" smooth="no"/>
      <point x="323" y="160" type="line" smooth="no"/>
      <point x="529" y="160" type="line" smooth="yes"/>
      <point x="761" y="160"/>
      <point x="906" y="255"/>
      <point x="906" y="431" type="curve" smooth="yes"/>
      <point x="906" y="600"/>
      <point x="761" y="696"/>
    </contour>
    <contour>
      <point x="323" y="1462" type="line" smooth="no"/>
      <point x="323" y="855" type="line" smooth="no"/>
      <point x="508" y="855" type="line" smooth="yes"/>
      <point x="853" y="855"/>
      <point x="1072" y="717"/>
      <point x="1072" y="428" type="curve" smooth="yes"/>
      <point x="1072" y="139"/>
      <point x="853" y="0"/>
      <point x="508" y="0" type="curve" smooth="yes"/>
      <point x="147" y="0" type="line" smooth="no"/>
      <point x="147" y="1462" type="line" smooth="no"/>
    </contour>
  </outline>
</glyph>
<glyph name="afii10047" format="1">
  <advance width="1399"/>
  <unicode hex="042D"/>
  <outline>
    <contour>
      <point x="1268" y="735" type="curve" smooth="yes"/>
      <point x="1268" y="329"/>
      <point x="1046" y="-23"/>
      <point x="560" y="-23" type="curve" smooth="yes"/>
      <point x="363" y="-23"/>
      <point x="223" y="23"/>
      <point x="122" y="112" type="curve"/>
      <point x="181" y="269" type="line"/>
      <point x="264" y="197"/>
      <point x="389" y="143"/>
      <point x="540" y="143" type="curve" smooth="yes"/>
      <point x="875" y="143"/>
      <point x="1043" y="366"/>
      <point x="1075" y="634" type="curve"/>
      <point x="383" y="634" type="line"/>
      <point x="383" y="824" type="line"/>
      <point x="1075" y="824" type="line"/>
      <point x="1046" y="1093"/>
      <point x="877" y="1323"/>
      <point x="540" y="1323" type="curve" smooth="yes"/>
      <point x="389" y="1323"/>
      <point x="264" y="1269"/>
      <point x="181" y="1197" type="curve"/>
      <point x="122" y="1354" type="line"/>
      <point x="223" y="1443"/>
      <point x="363" y="1489"/>
      <point x="560" y="1489" type="curve" smooth="yes"/>
      <point x="1045" y="1489"/>
      <point x="1268" y="1141"/>
    </contour>
  </outline>
</glyph>
<glyph name="uni042E" format="1">
  <advance width="2042"/>
  <unicode hex="042e"/>
  <outline>
    <contour>
      <point x="1289" y="-23" type="curve" smooth="yes"/>
      <point x="893" y="-23"/>
      <point x="666" y="295"/>
      <point x="637" y="686" type="curve" smooth="no"/>
      <point x="324" y="686" type="line" smooth="no"/>
      <point x="324" y="0" type="line" smooth="no"/>
      <point x="147" y="0" type="line" smooth="no"/>
      <point x="147" y="1495" type="line" smooth="no"/>
      <point x="324" y="1495" type="line" smooth="no"/>
      <point x="324" y="837" type="line" smooth="no"/>
      <point x="640" y="837" type="line" smooth="no"/>
      <point x="672" y="1240"/>
      <point x="893" y="1525"/>
      <point x="1280" y="1525" type="curve" smooth="yes"/>
      <point x="1699" y="1525"/>
      <point x="1941" y="1189"/>
      <point x="1941" y="742" type="curve" smooth="yes"/>
      <point x="1941" y="322"/>
      <point x="1709" y="-23"/>
    </contour>
    <contour>
      <point x="1282" y="1373" type="curve" smooth="yes"/>
      <point x="974" y="1373"/>
      <point x="825" y="1073"/>
      <point x="825" y="746" type="curve" smooth="yes"/>
      <point x="825" y="420"/>
      <point x="981" y="129"/>
      <point x="1291" y="129" type="curve" smooth="yes"/>
      <point x="1600" y="129"/>
      <point x="1752" y="415"/>
      <point x="1752" y="748" type="curve" smooth="yes"/>
      <point x="1752" y="1065"/>
      <point x="1600" y="1373"/>
    </contour>
  </outline>
</glyph>
<glyph name="uni042F" format="1">
  <advance width="1305"/>
  <unicode hex="042F"/>
  <outline>
    <contour>
      <point x="979" y="0" type="line"/>
      <point x="979" y="639" type="line"/>
      <point x="676" y="639" type="line" smooth="yes"/>
      <point x="636" y="639"/>
      <point x="596" y="641"/>
      <point x="557" y="644" type="curve"/>
      <point x="241" y="0" type="line"/>
      <point x="38" y="0" type="line"/>
      <point x="118.25" y="172"/>
      <point x="379" y="676"/>
      <point x="379" y="677" type="curve" smooth="yes"/>
      <point x="210" y="741"/>
      <point x="102" y="875"/>
      <point x="102" y="1067" type="curve" smooth="yes"/>
      <point x="102" y="1356"/>
      <point x="323" y="1496"/>
      <point x="672" y="1496" type="curve" smooth="yes"/>
      <point x="1158" y="1496" type="line"/>
      <point x="1158" y="0" type="line"/>
    </contour>
    <contour>
      <point x="651" y="795" type="curve" smooth="yes"/>
      <point x="979" y="795" type="line"/>
      <point x="979" y="1340" type="line"/>
      <point x="651" y="1340" type="line" smooth="yes"/>
      <point x="398" y="1340"/>
      <point x="272" y="1241"/>
      <point x="272" y="1065" type="curve" smooth="yes"/>
      <point x="272" y="896"/>
      <point x="415" y="795"/>
    </contour>
  </outline>
</glyph>
<glyph name="afii10066" format="1">
  <advance width="1015"/>
  <unicode hex="0431"/>
  <outline>
    <contour>
      <point x="583" y="579" type="curve" smooth="yes"/>
      <point x="283" y="579" type="line" smooth="no"/>
      <point x="283" y="134" type="line" smooth="no"/>
      <point x="583" y="134" type="line" smooth="yes"/>
      <point x="716" y="134"/>
      <point x="793" y="272"/>
      <point x="793" y="371" type="curve" smooth="yes"/>
      <point x="793" y="470"/>
      <point x="716" y="579"/>
    </contour>
    <contour>
      <point x="115" y="1098" type="line" smooth="no"/>
      <point x="844" y="1098" type="line" smooth="no"/>
      <point x="844" y="956" type="line" smooth="no"/>
      <point x="283" y="956" type="line" smooth="no"/>
      <point x="283" y="715" type="line" smooth="no"/>
      <point x="565" y="715" type="line" smooth="yes"/>
      <point x="834" y="715"/>
      <point x="955" y="548"/>
      <point x="955" y="368" type="curve" smooth="yes"/>
      <point x="955" y="188"/>
      <point x="834" y="0"/>
      <point x="565" y="0" type="curve" smooth="yes"/>
      <point x="115" y="0" type="line" smooth="no"/>
    </contour>
  </outline>
</glyph>
<glyph name="afii10067" format="1">
  <advance width="1033"/>
  <unicode hex="0432"/>
  <outline>
    <contour>
      <point x="968" y="316" type="curve" smooth="no"/>
      <point x="968" y="150"/>
      <point x="843" y="0"/>
      <point x="567" y="0" type="curve" smooth="yes"/>
      <point x="115" y="0" type="line" smooth="no"/>
      <point x="115" y="1098" type="line" smooth="no"/>
      <point x="567" y="1098" type="line" smooth="yes"/>
      <point x="826" y="1098"/>
      <point x="934" y="956"/>
      <point x="934" y="808" type="curve" smooth="yes"/>
      <point x="934" y="719"/>
      <point x="891" y="625"/>
      <point x="788" y="575" type="curve" smooth="no"/>
      <point x="908" y="524"/>
      <point x="963" y="412"/>
    </contour>
    <contour>
      <point x="576" y="500" type="curve" smooth="yes"/>
      <point x="283" y="500" type="line" smooth="no"/>
      <point x="283" y="134" type="line" smooth="no"/>
      <point x="576" y="134" type="line" smooth="yes"/>
      <point x="724" y="134"/>
      <point x="807" y="212"/>
      <point x="807" y="326" type="curve" smooth="no"/>
      <point x="802" y="410"/>
      <point x="724" y="500"/>
    </contour>
    <contour>
      <point x="283" y="637" type="line" smooth="no"/>
      <point x="576" y="637" type="line" smooth="yes"/>
      <point x="709" y="637"/>
      <point x="774" y="719"/>
      <point x="774" y="796" type="curve" smooth="yes"/>
      <point x="774" y="887"/>
      <point x="709" y="956"/>
      <point x="576" y="956" type="curve" smooth="yes"/>
      <point x="283" y="956" type="line" smooth="no"/>
    </contour>
  </outline>
</glyph>
<glyph name="uni0433" format="1">
  <advance width="666"/>
  <unicode hex="0433"/>
  <outline>
    <contour>
      <point x="115" y="1098" type="line"/>
      <point x="649" y="1098" type="line"/>
      <point x="649" y="954" type="line"/>
      <point x="283" y="954" type="line"/>
      <point x="283" y="0" type="line"/>
      <point x="115" y="0" type="line"/>
    </contour>
  </outline>
</glyph>
<glyph name="uni0434" format="1">
  <advance width="1104"/>
  <unicode hex="0434"/>
  <outline>
    <contour>
      <point x="174" y="0" type="line" smooth="no"/>
      <point x="174" y="-197" type="line" smooth="no"/>
      <point x="16" y="-197" type="line" smooth="no"/>
      <point x="16" y="136" type="line" smooth="no"/>
      <point x="112" y="136" type="line" smooth="yes"/>
      <point x="205" y="136"/>
      <point x="227" y="277"/>
      <point x="227" y="409" type="curve" smooth="yes"/>
      <point x="227" y="1098" type="line" smooth="no"/>
      <point x="950" y="1098" type="line" smooth="no"/>
      <point x="950" y="136" type="line" smooth="no"/>
      <point x="1037" y="136" type="line" smooth="no"/>
      <point x="1037" y="-197" type="line" smooth="no"/>
      <point x="874" y="-197" type="line" smooth="no"/>
      <point x="874" y="0" type="line" smooth="no"/>
    </contour>
    <contour>
      <point x="350" y="136" type="curve" smooth="no"/>
      <point x="782" y="136" type="line" smooth="no"/>
      <point x="782" y="954" type="line" smooth="no"/>
      <point x="395" y="954" type="line" smooth="no"/>
      <point x="395" y="462" type="line" smooth="yes"/>
      <point x="395" y="331"/>
      <point x="382" y="213"/>
    </contour>
  </outline>
</glyph>
<glyph name="uni0435" format="1">
  <advance width="1162"/>
  <unicode hex="0435"/>
  <outline>
    <contour>
      <point x="112" y="551" type="curve" smooth="yes"/>
      <point x="112" y="877"/>
      <point x="302" y="1121"/>
      <point x="583" y="1124" type="curve" smooth="yes"/>
      <point x="878" y="1127"/>
      <point x="1037" y="915"/>
      <point x="1037" y="583" type="curve" smooth="yes"/>
      <point x="1037" y="567"/>
      <point x="1035" y="538"/>
      <point x="1035" y="519" type="curve"/>
      <point x="284" y="519" type="line"/>
      <point x="295" y="280"/>
      <point x="414" y="119"/>
      <point x="627" y="119" type="curve" smooth="yes"/>
      <point x="756" y="119"/>
      <point x="886" y="180"/>
      <point x="961" y="260" type="curve"/>
      <point x="1021" y="133" type="line"/>
      <point x="936" y="42"/>
      <point x="792" y="-25"/>
      <point x="616" y="-25" type="curve" smooth="yes"/>
      <point x="303" y="-25"/>
      <point x="112" y="214"/>
    </contour>
    <contour>
      <point x="595" y="988" type="curve" smooth="yes"/>
      <point x="429" y="988"/>
      <point x="309" y="851"/>
      <point x="290" y="635" type="curve"/>
      <point x="875" y="635" type="line"/>
      <point x="875" y="869"/>
      <point x="758" y="988"/>
    </contour>
  </outline>
</glyph>
<glyph name="uni0438" format="1">
  <advance width="1117"/>
  <unicode hex="0438"/>
  <outline>
    <contour>
      <point x="1002" y="0" type="line" smooth="no"/>
      <point x="834" y="0" type="line" smooth="no"/>
      <point x="834" y="746" type="line" smooth="no"/>
      <point x="273" y="0" type="line" smooth="no"/>
      <point x="115" y="0" type="line" smooth="no"/>
      <point x="115" y="1098" type="line" smooth="no"/>
      <point x="283" y="1098" type="line" smooth="no"/>
      <point x="283" y="261" type="line" smooth="no"/>
      <point x="834" y="995" type="line" smooth="no"/>
      <point x="834" y="1098" type="line" smooth="no"/>
      <point x="1002" y="1098" type="line" smooth="no"/>
    </contour>
  </outline>
</glyph>
<glyph name="afii10076" format="1">
  <advance width="997"/>
  <unicode hex="043a"/>
  <outline>
    <contour>
      <point x="283" y="605" type="line" smooth="no"/>
      <point x="485" y="834" type="line" smooth="yes"/>
      <point x="658" y="1030"/>
      <point x="705" y="1110"/>
      <point x="860" y="1110" type="curve" smooth="yes"/>
      <point x="887" y="1110"/>
      <point x="901" y="1105"/>
      <point x="937" y="1098" type="curve" smooth="no"/>
      <point x="937" y="947" type="line" smooth="no"/>
      <point x="910" y="951"/>
      <point x="886" y="956"/>
      <point x="865" y="956" type="curve" smooth="yes"/>
      <point x="770" y="956"/>
      <point x="688" y="805"/>
      <point x="524" y="642" type="curve" smooth="yes"/>
      <point x="423" y="542" type="line" smooth="no"/>
      <point x="990" y="0" type="line" smooth="no"/>
      <point x="763" y="0" type="line" smooth="no"/>
      <point x="283" y="474" type="line" smooth="no"/>
      <point x="283" y="0" type="line" smooth="no"/>
      <point x="115" y="0" type="line" smooth="no"/>
      <point x="115" y="1098" type="line" smooth="no"/>
      <point x="283" y="1098" type="line" smooth="no"/>
    </contour>
  </outline>
</glyph>
<glyph name="uni043B" format="1">
  <advance width="1172"/>
  <unicode hex="043b"/>
  <outline>
    <contour>
      <point x="202" y="1098" type="line" smooth="no"/>
      <point x="1057" y="1098" type="line" smooth="no"/>
      <point x="1057" y="0" type="line" smooth="no"/>
      <point x="889" y="0" type="line" smooth="no"/>
      <point x="889" y="954" type="line" smooth="no"/>
      <point x="370" y="954" type="line" smooth="no"/>
      <point x="370" y="419" type="line" smooth="yes"/>
      <point x="370" y="91"/>
      <point x="366" y="-25"/>
      <point x="61" y="-25" type="curve" smooth="yes"/>
      <point x="24" y="-25" type="line" smooth="no"/>
      <point x="0" y="128" type="line" smooth="no"/>
      <point x="61" y="128" type="line" smooth="yes"/>
      <point x="200" y="128"/>
      <point x="202" y="185"/>
      <point x="202" y="409" type="curve" smooth="yes"/>
    </contour>
  </outline>
</glyph>
<glyph name="uni043C" format="1">
  <advance width="1178"/>
  <unicode hex="043c"/>
  <outline>
    <contour>
      <point x="648" y="385" type="line" smooth="no"/>
      <point x="541" y="385" type="line" smooth="no"/>
      <point x="283" y="811" type="line" smooth="no"/>
      <point x="283" y="0" type="line" smooth="no"/>
      <point x="115" y="0" type="line" smooth="no"/>
      <point x="115" y="1098" type="line" smooth="no"/>
      <point x="262" y="1098" type="line" smooth="no"/>
      <point x="588" y="583" type="line" smooth="no"/>
      <point x="916" y="1098" type="line" smooth="no"/>
      <point x="1063" y="1098" type="line" smooth="no"/>
      <point x="1063" y="0" type="line" smooth="no"/>
      <point x="895" y="0" type="line" smooth="no"/>
      <point x="895" y="811" type="line" smooth="no"/>
    </contour>
  </outline>
</glyph>
<glyph name="uni043D" format="1">
  <advance width="1117"/>
  <unicode hex="043D"/>
  <outline>
    <contour>
      <point x="115" y="1098" type="line"/>
      <point x="283" y="1098" type="line"/>
      <point x="283" y="653" type="line"/>
      <point x="835" y="653" type="line"/>
      <point x="835" y="1098" type="line"/>
      <point x="1002" y="1098" type="line"/>
      <point x="1002" y="0" type="line"/>
      <point x="835" y="0" type="line"/>
      <point x="835" y="518" type="line"/>
      <point x="283" y="518" type="line"/>
      <point x="283" y="0" type="line"/>
      <point x="115" y="0" type="line"/>
    </contour>
  </outline>
</glyph>
<glyph name="uni043F" format="1">
  <advance width="1194"/>
  <unicode hex="043f"/>
  <outline>
    <contour>
      <point x="152" y="1098" type="line" smooth="no"/>
      <point x="1039" y="1098" type="line" smooth="no"/>
      <point x="1039" y="0" type="line" smooth="no"/>
      <point x="870" y="0" type="line" smooth="no"/>
      <point x="870" y="935" type="line" smooth="no"/>
      <point x="322" y="935" type="line" smooth="no"/>
      <point x="322" y="0" type="line" smooth="no"/>
      <point x="152" y="0" type="line" smooth="no"/>
    </contour>
  </outline>
</glyph>
<glyph name="uni0442" format="1">
  <advance width="847"/>
  <unicode hex="0442"/>
  <outline>
    <contour>
      <point x="43" y="1098" type="line" smooth="no"/>
      <point x="805" y="1098" type="line" smooth="no"/>
      <point x="805" y="954" type="line" smooth="no"/>
      <point x="512" y="954" type="line" smooth="no"/>
      <point x="512" y="0" type="line" smooth="no"/>
      <point x="344" y="0" type="line" smooth="no"/>
      <point x="344" y="954" type="line" smooth="no"/>
      <point x="43" y="954" type="line" smooth="no"/>
    </contour>
  </outline>
</glyph>
<glyph name="uni0444" format="1">
  <advance width="1409"/>
  <unicode hex="0444"/>
  <outline>
    <contour>
      <point x="620" y="1312" type="line" smooth="no"/>
      <point x="788" y="1312" type="line" smooth="no"/>
      <point x="788" y="1039" type="line" smooth="no"/>
      <point x="835" y="1058"/>
      <point x="882" y="1070"/>
      <point x="927" y="1070" type="curve" smooth="yes"/>
      <point x="1164" y="1070"/>
      <point x="1323" y="844"/>
      <point x="1323" y="558" type="curve" smooth="yes"/>
      <point x="1323" y="274"/>
      <point x="1162" y="32"/>
      <point x="928" y="32" type="curve" smooth="yes"/>
      <point x="883" y="32"/>
      <point x="835" y="38"/>
      <point x="788" y="57" type="curve" smooth="no"/>
      <point x="788" y="-195" type="line" smooth="no"/>
      <point x="620" y="-195" type="line" smooth="no"/>
      <point x="620" y="57" type="line" smooth="no"/>
      <point x="573" y="38"/>
      <point x="523" y="32"/>
      <point x="478" y="32" type="curve" smooth="yes"/>
      <point x="245" y="32"/>
      <point x="86" y="273"/>
      <point x="86" y="558" type="curve" smooth="yes"/>
      <point x="86" y="844"/>
      <point x="242" y="1070"/>
      <point x="480" y="1070" type="curve" smooth="yes"/>
      <point x="523" y="1070"/>
      <point x="573" y="1058"/>
      <point x="620" y="1039" type="curve" smooth="no"/>
    </contour>
    <contour>
      <point x="927" y="934" type="curve" smooth="yes"/>
      <point x="882" y="934"/>
      <point x="839" y="927"/>
      <point x="788" y="902" type="curve" smooth="no"/>
      <point x="788" y="198" type="line" smooth="no"/>
      <point x="836" y="173"/>
      <point x="881" y="168"/>
      <point x="924" y="168" type="curve" smooth="yes"/>
      <point x="1065" y="168"/>
      <point x="1149" y="359"/>
      <point x="1149" y="556" type="curve" smooth="yes"/>
      <point x="1149" y="755"/>
      <point x="1068" y="934"/>
    </contour>
    <contour>
      <point x="483" y="168" type="curve" smooth="yes"/>
      <point x="526" y="168"/>
      <point x="572" y="174"/>
      <point x="620" y="196" type="curve" smooth="no"/>
      <point x="620" y="906" type="line" smooth="no"/>
      <point x="569" y="931"/>
      <point x="523" y="934"/>
      <point x="480" y="934" type="curve" smooth="yes"/>
      <point x="338" y="934"/>
      <point x="260" y="755"/>
      <point x="260" y="556" type="curve" smooth="yes"/>
      <point x="260" y="359"/>
      <point x="341" y="168"/>
    </contour>
  </outline>
</glyph>
<glyph name="afii10088" format="1">
  <advance width="1106"/>
  <unicode hex="0446"/>
  <outline>
    <contour>
      <point x="933" y="0" type="line"/>
      <point x="115" y="0" type="line"/>
      <point x="115" y="1098" type="line"/>
      <point x="283" y="1098" type="line"/>
      <point x="283" y="145" type="line"/>
      <point x="802" y="145" type="line"/>
      <point x="802" y="1098" type="line"/>
      <point x="970" y="1098" type="line"/>
      <point x="970" y="147" type="line"/>
      <point x="1069" y="147" type="line"/>
      <point x="1069" y="-238" type="line"/>
      <point x="933" y="-238" type="line"/>
    </contour>
  </outline>
</glyph>
<glyph name="uni0447" format="1">
  <advance width="1043"/>
  <unicode hex="0447"/>
  <outline>
    <contour>
      <point x="759" y="1098" type="line" smooth="no"/>
      <point x="928" y="1098" type="line" smooth="no"/>
      <point x="928" y="0" type="line" smooth="no"/>
      <point x="760" y="0" type="line" smooth="no"/>
      <point x="760" y="574" type="line" smooth="no"/>
      <point x="680" y="447"/>
      <point x="579" y="403"/>
      <point x="439" y="403" type="curve" smooth="yes"/>
      <point x="195" y="403"/>
      <point x="87" y="560"/>
      <point x="87" y="840" type="curve" smooth="yes"/>
      <point x="87" y="1098" type="line" smooth="no"/>
      <point x="255" y="1098" type="line" smooth="no"/>
      <point x="255" y="908" type="line" smooth="yes"/>
      <point x="255" y="654"/>
      <point x="308" y="547"/>
      <point x="473" y="547" type="curve" smooth="yes"/>
      <point x="617" y="547"/>
      <point x="738" y="695"/>
      <point x="759" y="799" type="curve" smooth="no"/>
    </contour>
  </outline>
</glyph>
<glyph name="uni0448" format="1">
  <advance width="1322"/>
  <unicode hex="0448"/>
  <outline>
    <contour>
      <point x="283" y="144" type="line" smooth="no"/>
      <point x="577" y="144" type="line" smooth="no"/>
      <point x="577" y="1098" type="line" smooth="no"/>
      <point x="745" y="1098" type="line" smooth="no"/>
      <point x="745" y="144" type="line" smooth="no"/>
      <point x="1039" y="144" type="line" smooth="no"/>
      <point x="1039" y="1098" type="line" smooth="no"/>
      <point x="1207" y="1098" type="line" smooth="no"/>
      <point x="1207" y="0" type="line" smooth="no"/>
      <point x="115" y="0" type="line" smooth="no"/>
      <point x="115" y="1098" type="line" smooth="no"/>
      <point x="283" y="1098" type="line" smooth="no"/>
    </contour>
  </outline>
</glyph>
<glyph name="afii10091" format="1">
  <advance width="1504"/>
  <unicode hex="0449"/>
  <outline>
    <contour>
      <point x="320" y="164" type="line"/>
      <point x="624" y="164" type="line"/>
      <point x="624" y="1098" type="line"/>
      <point x="780" y="1098" type="line"/>
      <point x="780" y="164" type="line"/>
      <point x="1087" y="164" type="line"/>
      <point x="1087" y="1098" type="line"/>
      <point x="1256" y="1098" type="line"/>
      <point x="1256" y="164" type="line"/>
      <point x="1357" y="164" type="line"/>
      <point x="1357" y="-238" type="line"/>
      <point x="1220" y="-238" type="line"/>
      <point x="1220" y="0" type="line"/>
      <point x="152" y="0" type="line"/>
      <point x="152" y="1098" type="line"/>
      <point x="320" y="1098" type="line"/>
    </contour>
  </outline>
</glyph>
<glyph name="uni044A" format="1">
  <advance width="1172"/>
  <unicode hex="044a"/>
  <outline>
    <contour>
      <point x="429" y="1098" type="line" smooth="no"/>
      <point x="429" y="663" type="line" smooth="no"/>
      <point x="719" y="663" type="line" smooth="yes"/>
      <point x="986" y="663"/>
      <point x="1100" y="501"/>
      <point x="1100" y="337" type="curve" smooth="yes"/>
      <point x="1100" y="166"/>
      <point x="992" y="0"/>
      <point x="725" y="0" type="curve" smooth="yes"/>
      <point x="261" y="0" type="line" smooth="no"/>
      <point x="261" y="954" type="line" smooth="no"/>
      <point x="27" y="954" type="line" smooth="no"/>
      <point x="27" y="1098" type="line" smooth="no"/>
    </contour>
    <contour>
      <point x="740" y="519" type="curve" smooth="yes"/>
      <point x="429" y="519" type="line" smooth="no"/>
      <point x="429" y="144" type="line" smooth="no"/>
      <point x="746" y="144" type="line" smooth="yes"/>
      <point x="879" y="144"/>
      <point x="938" y="245"/>
      <point x="938" y="337" type="curve" smooth="yes"/>
      <point x="938" y="421"/>
      <point x="873" y="519"/>
    </contour>
  </outline>
</glyph>
<glyph name="afii10093" format="1">
  <advance width="1322"/>
  <unicode hex="044b"/>
  <outline>
    <contour>
      <point x="1207" y="1098" type="line" smooth="no"/>
      <point x="1207" y="0" type="line" smooth="no"/>
      <point x="1039" y="0" type="line" smooth="no"/>
      <point x="1039" y="1098" type="line" smooth="no"/>
    </contour>
    <contour>
      <point x="532" y="556" type="curve" smooth="yes"/>
      <point x="283" y="556" type="line" smooth="no"/>
      <point x="283" y="144" type="line" smooth="no"/>
      <point x="539" y="144" type="line" smooth="yes"/>
      <point x="671" y="144"/>
      <point x="725" y="262"/>
      <point x="725" y="361" type="curve" smooth="yes"/>
      <point x="725" y="460"/>
      <point x="664" y="556"/>
    </contour>
    <contour>
      <point x="283" y="1098" type="line" smooth="no"/>
      <point x="283" y="700" type="line" smooth="no"/>
      <point x="508" y="700" type="line" smooth="yes"/>
      <point x="776" y="700"/>
      <point x="887" y="538"/>
      <point x="887" y="358" type="curve" smooth="yes"/>
      <point x="887" y="178"/>
      <point x="783" y="0"/>
      <point x="515" y="0" type="curve" smooth="yes"/>
      <point x="115" y="0" type="line" smooth="no"/>
      <point x="115" y="1098" type="line" smooth="no"/>
    </contour>
  </outline>
</glyph>
<glyph name="afii10094" format="1">
  <advance width="952"/>
  <unicode hex="044c"/>
  <outline>
    <contour>
      <point x="283" y="1098" type="line" smooth="no"/>
      <point x="283" y="700" type="line" smooth="no"/>
      <point x="508" y="700" type="line" smooth="yes"/>
      <point x="776" y="700"/>
      <point x="887" y="538"/>
      <point x="887" y="358" type="curve" smooth="yes"/>
      <point x="887" y="178"/>
      <point x="783" y="0"/>
      <point x="515" y="0" type="curve" smooth="yes"/>
      <point x="115" y="0" type="line" smooth="no"/>
      <point x="115" y="1098" type="line" smooth="no"/>
    </contour>
    <contour>
      <point x="532" y="556" type="curve" smooth="yes"/>
      <point x="283" y="556" type="line" smooth="no"/>
      <point x="283" y="144" type="line" smooth="no"/>
      <point x="539" y="144" type="line" smooth="yes"/>
      <point x="671" y="144"/>
      <point x="725" y="262"/>
      <point x="725" y="361" type="curve" smooth="yes"/>
      <point x="725" y="460"/>
      <point x="664" y="556"/>
    </contour>
  </outline>
</glyph>
<glyph name="afii10095" format="1">
  <advance width="1002"/>
  <unicode hex="044d"/>
  <outline>
    <contour>
      <point x="380" y="-25" type="curve" smooth="yes"/>
      <point x="736" y="-25"/>
      <point x="915" y="249"/>
      <point x="915" y="545" type="curve" smooth="yes"/>
      <point x="915" y="853"/>
      <point x="742" y="1124"/>
      <point x="377" y="1124" type="curve" smooth="yes"/>
      <point x="259" y="1124"/>
      <point x="132" y="1091"/>
      <point x="54" y="1024" type="curve" smooth="no"/>
      <point x="100" y="902" type="line" smooth="no"/>
      <point x="167" y="945"/>
      <point x="261" y="986"/>
      <point x="369" y="986" type="curve" smooth="yes"/>
      <point x="596" y="986"/>
      <point x="716" y="840"/>
      <point x="738" y="619" type="curve" smooth="no"/>
      <point x="275" y="619" type="line" smooth="no"/>
      <point x="275" y="477" type="line" smooth="no"/>
      <point x="738" y="477" type="line" smooth="no"/>
      <point x="715" y="257"/>
      <point x="578" y="113"/>
      <point x="370" y="113" type="curve" smooth="yes"/>
      <point x="282" y="113"/>
      <point x="193" y="139"/>
      <point x="101" y="195" type="curve" smooth="no"/>
      <point x="55" y="70" type="line" smooth="no"/>
      <point x="123" y="11"/>
      <point x="241" y="-25"/>
    </contour>
  </outline>
</glyph>
<glyph name="uni044E" format="1">
  <advance width="1468"/>
  <unicode hex="044e"/>
  <outline>
    <contour>
      <point x="1381" y="549" type="curve" smooth="yes"/>
      <point x="1381" y="865"/>
      <point x="1262" y="1124"/>
      <point x="926" y="1124" type="curve" smooth="yes"/>
      <point x="619" y="1124"/>
      <point x="478" y="900"/>
      <point x="458" y="618" type="curve" smooth="no"/>
      <point x="283" y="618" type="line" smooth="no"/>
      <point x="283" y="1098" type="line" smooth="no"/>
      <point x="115" y="1098" type="line" smooth="no"/>
      <point x="115" y="0" type="line" smooth="no"/>
      <point x="283" y="0" type="line" smooth="no"/>
      <point x="283" y="478" type="line" smooth="no"/>
      <point x="458" y="478" type="line" smooth="no"/>
      <point x="477" y="195"/>
      <point x="616" y="-25"/>
      <point x="923" y="-25" type="curve" smooth="yes"/>
      <point x="1252" y="-25"/>
      <point x="1381" y="245"/>
    </contour>
    <contour>
      <point x="926" y="113" type="curve" smooth="yes"/>
      <point x="706" y="113"/>
      <point x="629" y="323"/>
      <point x="629" y="544" type="curve" smooth="yes"/>
      <point x="629" y="768"/>
      <point x="707" y="986"/>
      <point x="923" y="986" type="curve" smooth="yes"/>
      <point x="1150" y="986"/>
      <point x="1207" y="780"/>
      <point x="1207" y="547" type="curve" smooth="yes"/>
      <point x="1207" y="323"/>
      <point x="1143" y="113"/>
    </contour>
  </outline>
</glyph>
<glyph name="afii10097" format="1">
  <advance width="1045"/>
  <unicode hex="044f"/>
  <outline>
    <contour>
      <point x="762" y="0" type="line" smooth="no"/>
      <point x="762" y="439" type="line" smooth="no"/>
      <point x="475" y="439" type="line" smooth="no"/>
      <point x="274" y="0" type="line" smooth="no"/>
      <point x="74" y="0" type="line" smooth="no"/>
      <point x="302" y="459" type="line" smooth="no"/>
      <point x="147" y="507"/>
      <point x="74" y="634"/>
      <point x="74" y="762" type="curve" smooth="yes"/>
      <point x="74" y="933"/>
      <point x="186" y="1098"/>
      <point x="455" y="1098" type="curve" smooth="yes"/>
      <point x="930" y="1098" type="line" smooth="no"/>
      <point x="930" y="0" type="line" smooth="no"/>
    </contour>
    <contour>
      <point x="444" y="579" type="curve" smooth="yes"/>
      <point x="762" y="579" type="line" smooth="no"/>
      <point x="762" y="953" type="line" smooth="no"/>
      <point x="444" y="953" type="line" smooth="yes"/>
      <point x="311" y="953"/>
      <point x="238" y="853"/>
      <point x="238" y="762" type="curve" smooth="yes"/>
      <point x="238" y="678"/>
      <point x="311" y="579"/>
    </contour>
  </outline>
</glyph>
<glyph name="uni0456" format="1">
  <advance width="489"/>
  <unicode hex="0456"/>
  <outline>
    <contour>
      <point x="329" y="1098" type="line" smooth="no"/>
      <point x="329" y="0" type="line" smooth="no"/>
      <point x="160" y="0" type="line" smooth="no"/>
      <point x="160" y="1098" type="line" smooth="no"/>
    </contour>
    <contour>
      <point x="329" y="1490" type="line" smooth="no"/>
      <point x="329" y="1292" type="line" smooth="no"/>
      <point x="160" y="1292" type="line" smooth="no"/>
      <point x="160" y="1490" type="line" smooth="no"/>
    </contour>
  </outline>
</glyph>
<glyph name="endash" format="1">
  <advance width="1317"/>
  <unicode hex="2013"/>
  <outline>
    <contour>
      <point x="1186" y="675" type="line" smooth="no"/>
      <point x="1186" y="527" type="line" smooth="no"/>
      <point x="139" y="527" type="line" smooth="no"/>
      <point x="139" y="675" type="line" smooth="no"/>
    </contour>
  </outline>
</glyph>
<glyph name="emdash" format="1">
  <advance width="2427"/>
  <unicode hex="2014"/>
  <outline>
    <contour>
      <point x="2296" y="675" type="line" smooth="no"/>
      <point x="2296" y="527" type="line" smooth="no"/>
      <point x="139" y="527" type="line" smooth="no"/>
      <point x="139" y="675" type="line" smooth="no"/>
    </contour>
  </outline>
</glyph>
<glyph name="quoteleft" format="1">
  <advance width="510"/>
  <unicode hex="2018"/>
  <outline>
    <contour>
      <point x="382" y="1574" type="line" smooth="no"/>
      <point x="291" y="1102" type="line" smooth="no"/>
      <point x="129" y="1102" type="line" smooth="no"/>
      <point x="265" y="1574" type="line" smooth="no"/>
    </contour>
  </outline>
</glyph>
<glyph name="quoteright" format="1">
  <advance width="504"/>
  <unicode hex="2019"/>
  <outline>
    <contour>
      <point x="133" y="1102" type="line" smooth="no"/>
      <point x="226" y="1574" type="line" smooth="no"/>
      <point x="383" y="1574" type="line" smooth="no"/>
      <point x="249" y="1102" type="line" smooth="no"/>
    </contour>
  </outline>
</glyph>
<glyph name="quotedblright" format="1">
  <advance width="795"/>
  <unicode hex="201d"/>
  <outline>
    <contour>
      <point x="133" y="1102" type="line" smooth="no"/>
      <point x="226" y="1574" type="line" smooth="no"/>
      <point x="385" y="1574" type="line" smooth="no"/>
      <point x="250" y="1102" type="line" smooth="no"/>
    </contour>
    <contour>
      <point x="420" y="1102" type="line" smooth="no"/>
      <point x="511" y="1574" type="line" smooth="no"/>
      <point x="674" y="1574" type="line" smooth="no"/>
      <point x="537" y="1102" type="line" smooth="no"/>
    </contour>
  </outline>
</glyph>
<glyph name="dagger" format="1">
  <advance width="876"/>
  <unicode hex="2020"/>
  <outline>
    <contour>
      <point x="366" y="121" type="line" smooth="no"/>
      <point x="366" y="1007" type="line" smooth="no"/>
      <point x="71" y="1007" type="line" smooth="no"/>
      <point x="71" y="1149" type="line" smooth="no"/>
      <point x="366" y="1149" type="line" smooth="no"/>
      <point x="366" y="1561" type="line" smooth="no"/>
      <point x="496" y="1561" type="line" smooth="no"/>
      <point x="496" y="1149" type="line" smooth="no"/>
      <point x="806" y="1149" type="line" smooth="no"/>
      <point x="806" y="1007" type="line" smooth="no"/>
      <point x="478" y="1007" type="line" smooth="no"/>
      <point x="478" y="121" type="line" smooth="no"/>
    </contour>
  </outline>
</glyph>
<glyph name="daggerdbl" format="1">
  <advance width="950"/>
  <unicode hex="2021"/>
  <outline>
    <contour>
      <point x="421" y="604" type="line" smooth="no"/>
      <point x="421" y="1059" type="line" smooth="no"/>
      <point x="112" y="1059" type="line" smooth="no"/>
      <point x="112" y="1199" type="line" smooth="no"/>
      <point x="428" y="1199" type="line" smooth="no"/>
      <point x="401" y="1561" type="line" smooth="no"/>
      <point x="538" y="1561" type="line" smooth="no"/>
      <point x="538" y="1199" type="line" smooth="no"/>
      <point x="850" y="1199" type="line" smooth="no"/>
      <point x="850" y="1059" type="line" smooth="no"/>
      <point x="530" y="1059" type="line" smooth="no"/>
      <point x="530" y="604" type="line" smooth="no"/>
      <point x="843" y="604" type="line" smooth="no"/>
      <point x="843" y="467" type="line" smooth="no"/>
      <point x="530" y="467" type="line" smooth="no"/>
      <point x="556" y="121" type="line" smooth="no"/>
      <point x="398" y="121" type="line" smooth="no"/>
      <point x="421" y="467" type="line" smooth="no"/>
      <point x="107" y="467" type="line" smooth="no"/>
      <point x="107" y="604" type="line" smooth="no"/>
    </contour>
  </outline>
</glyph>
<glyph name="bullet" format="1">
  <advance width="867"/>
  <unicode hex="2022"/>
  <outline>
    <contour>
      <point x="731" y="753" type="curve" smooth="yes"/>
      <point x="731" y="569"/>
      <point x="593" y="415"/>
      <point x="432" y="415" type="curve" smooth="yes"/>
      <point x="266" y="415"/>
      <point x="137" y="567"/>
      <point x="137" y="747" type="curve" smooth="yes"/>
      <point x="137" y="931"/>
      <point x="278" y="1086"/>
      <point x="436" y="1086" type="curve" smooth="yes"/>
      <point x="597" y="1086"/>
      <point x="731" y="934"/>
    </contour>
  </outline>
</glyph>
<glyph name="ellipsis" format="1">
  <advance width="1509"/>
  <unicode hex="2026"/>
  <outline>
    <contour>
      <point x="323" y="214" type="line" smooth="no"/>
      <point x="323" y="-10" type="line" smooth="no"/>
      <point x="134" y="-10" type="line" smooth="no"/>
      <point x="134" y="214" type="line" smooth="no"/>
    </contour>
    <contour>
      <point x="850" y="214" type="line" smooth="no"/>
      <point x="850" y="-10" type="line" smooth="no"/>
      <point x="660" y="-10" type="line" smooth="no"/>
      <point x="660" y="214" type="line" smooth="no"/>
    </contour>
    <contour>
      <point x="1376" y="214" type="line" smooth="no"/>
      <point x="1376" y="-10" type="line" smooth="no"/>
      <point x="1187" y="-10" type="line" smooth="no"/>
      <point x="1187" y="214" type="line" smooth="no"/>
    </contour>
  </outline>
</glyph>
